{
.appVersion = "939";
classes = (
{
automatic = 1;
code = "A Aacute Abreve Acircumflex Adieresis Agrave Amacron Aogonek Aring Atilde AE B C Cacute Ccaron Ccedilla Cdotaccent D Eth Dcaron Dcroat E Eacute Ecaron Ecircumflex Edieresis Edotaccent Egrave Emacron Eogonek F G Gbreve Gcommaaccent Gdotaccent H Hbar I Iacute Icircumflex Idieresis Idotaccent Igrave Imacron Iogonek J K Kcommaaccent L Lacute Lcaron Lcommaaccent Lslash M N Nacute Ncaron Ncommaaccent Eng Ntilde O Oacute Ocircumflex Odieresis Ograve Ohungarumlaut Omacron Oslash Otilde OE P Thorn Q R Racute Rcaron Rcommaaccent S Sacute Scaron Scedilla Scommaaccent T Tbar Tcaron Tcedilla Tcommaaccent U Uacute Ucircumflex Udieresis Ugrave Uhungarumlaut Umacron Uogonek Uring V W Wacute Wcircumflex Wdieresis Wgrave X Y Yacute Ycircumflex Ydieresis Ygrave Z Zacute Zcaron Zdotaccent A.alt Aacute.alt Abreve.alt Acircumflex.alt Adieresis.alt Agrave.alt Amacron.alt Aogonek.alt Aring.alt Atilde.alt E.alt Eacute.alt Ecaron.alt Ecircumflex.alt Edieresis.alt Edotaccent.alt Egrave.alt Emacron.alt Eogonek.alt I.alt Iacute.alt Icircumflex.alt Idieresis.alt Idotaccent.alt Igrave.alt Imacron.alt Iogonek.alt M.alt N.alt Nacute.alt Ncaron.alt Ncommaaccent.alt Eng.alt Ntilde.alt W.alt Wacute.alt Wcircumflex.alt Wdieresis.alt Wgrave.alt";
name = Uppercase;
},
{
code = "";
name = DevaIMatras;
},
{
code = "";
name = DevaIMatraRephs;
},
{
code = "";
name = DevaIMatraRephAnusvaras;
},
{
code = "";
name = DevaIMatraAnusvaras;
},
{
code = "";
name = DevaIMatraCandraBindus;
},
{
code = "";
name = DevaFullforms;
},
{
code = "";
name = DevaHalfforms;
}
);
copyright = "Copyright © 2018 by Ruggero Magrì. All rights reserved.";
date = "2018-01-20 12:02:10 +0000";
designer = "Ruggero Magrì";
familyName = "Ignazio Text";
featurePrefixes = (
{
automatic = 1;

glyphs = (
{
glyphname = A;
lastChange = "2018-01-20 10:20:02 +0000";
layers = (
{
anchors = (
{
name = bottom;
position = "{349, 0}";
},
{
name = ogonek;
position = "{629, 0}";
},
{
name = top;
position = "{356, 700}";
}
);
layerId = "293088C9-8C6F-4F1A-8530-3146F0106214";
paths = (
{
closed = 1;
nodes = (
"129 0 LINE",
"198 175 LINE",
"509 175 LINE",
"577 0 LINE",
"687 0 LINE",
"413 700 LINE",
"299 700 LINE",
"25 0 LINE"
);
},
{
closed = 1;
nodes = (
"356 622 LINE",
"356 622 OFFCURVE",
"389 486 OFFCURVE",
"450 332 CURVE",
"474 271 LINE",
"237 271 LINE",
"261 332 LINE",
"321 485 OFFCURVE",
"354 622 OFFCURVE",
"354 622 CURVE"
);
}
);
width = 712;
}
);
leftKerningGroup = A;
rightKerningGroup = A;
unicode = 0041;
},
{
glyphname = Aogonek;
lastChange = "2018-01-20 09:41:59 +0000";
layers = (
{
anchors = (
{
name = _ogonek;
position = "{629, 0}";
}
);
components = (
{
name = A;
}
);
layerId = "293088C9-8C6F-4F1A-8530-3146F0106214";
paths = (
{
closed = 1;
nodes = (
"625 -119 OFFCURVE",
"601 -106 OFFCURVE",
"601 -72 CURVE SMOOTH",
"601 -43 OFFCURVE",
"631 -8 OFFCURVE",
"687 0 CURVE",
"672 12 LINE",
"593 12 LINE",
"576 0 LINE",
"542 -20 OFFCURVE",
"527 -52 OFFCURVE",
"527 -89 CURVE",
"527 -147 OFFCURVE",
"566 -184 OFFCURVE",
"624 -184 CURVE SMOOTH",
"650 -184 OFFCURVE",
"671 -179 OFFCURVE",
"695 -166 CURVE",
"662 -108 LINE"
);
}
);
width = 712;
}
);
leftKerningGroup = A;
leftMetricsKey = A;
rightKerningGroup = A;
unicode = 0104;
},
{
glyphname = Aring;
lastChange = "2018-01-20 10:20:20 +0000";
layers = (
{
components = (
{
name = A;
}
);
layerId = "293088C9-8C6F-4F1A-8530-3146F0106214";
paths = (
{
closed = 1;
nodes = (
"422 647 OFFCURVE",
"462 685 OFFCURVE",
"462 745 CURVE SMOOTH",
"462 805 OFFCURVE",
"422 842 OFFCURVE",
"358 842 CURVE SMOOTH",
"293 842 OFFCURVE",
"253 805 OFFCURVE",
"253 745 CURVE SMOOTH",
"253 685 OFFCURVE",
"293 647 OFFCURVE",
"358 647 CURVE SMOOTH"
);
},
{
closed = 1;
nodes = (
"325 700 OFFCURVE",
"306 717 OFFCURVE",
"306 745 CURVE SMOOTH",
"306 773 OFFCURVE",
"325 789 OFFCURVE",
"358 789 CURVE SMOOTH",
"390 789 OFFCURVE",
"409 773 OFFCURVE",
"409 745 CURVE SMOOTH",
"409 717 OFFCURVE",
"390 700 OFFCURVE",
"358 700 CURVE SMOOTH"
);
}
);
width = 712;
}
);
leftKerningGroup = A;
leftMetricsKey = A;
rightKerningGroup = A;
rightMetricsKey = A;
unicode = 00C5;
},
{
glyphname = AE;
lastChange = "2018-01-20 09:51:50 +0000";
layers = (
{
layerId = "293088C9-8C6F-4F1A-8530-3146F0106214";
paths = (
{
closed = 1;
nodes = (
"100 0 LINE",
"206 175 LINE",
"477 175 LINE",
"477 0 LINE",
"879 0 LINE",
"879 98 LINE",
"583 98 LINE",
"583 313 LINE",
"837 313 LINE",
"837 409 LINE",
"583 409 LINE",
"583 603 LINE",
"869 603 LINE",
"869 700 LINE",
"422 700 LINE",
"-10 0 LINE"
);
},
{
closed = 1;
nodes = (
"392 478 LINE",
"450 573 OFFCURVE",
"480 625 OFFCURVE",
"480 625 CURVE",
"482 624 LINE",
"482 624 OFFCURVE",
"477 562 OFFCURVE",
"477 462 CURVE",
"477 271 LINE",
"266 271 LINE"
);
}
);
width = 949;
}
);
leftKerningGroup = A;
rightKerningGroup = E;
rightMetricsKey = E;
unicode = 00C6;
},
{
glyphname = B;
lastChange = "2018-01-20 09:03:23 +0000";
layers = (
{
layerId = "293088C9-8C6F-4F1A-8530-3146F0106214";
paths = (
{
closed = 1;
nodes = (
"494 413 OFFCURVE",
"528 458.711 OFFCURVE",
"528 516 CURVE SMOOTH",
"528 637 OFFCURVE",
"449 700 OFFCURVE",
"287 700 CURVE SMOOTH",
"100 700 LINE",
"100 0 LINE",
"305 0 LINE SMOOTH",
"480 0 OFFCURVE",
"566 68 OFFCURVE",
"566 207 CURVE SMOOTH",
"566 291.256 OFFCURVE",
"519 346 OFFCURVE",
"445 377 CURVE",
"445 379 LINE"
);
},
{
closed = 1;
nodes = (
"206 319 LINE",
"308 319 LINE SMOOTH",
"409 319 OFFCURVE",
"458 282 OFFCURVE",
"458 207 CURVE SMOOTH",
"458 132 OFFCURVE",
"409 95 OFFCURVE",
"308 95 CURVE SMOOTH",
"206 95 LINE"
);
},
{
closed = 1;
nodes = (
"206 605 LINE",
"290 605 LINE SMOOTH",
"377 605 OFFCURVE",
"420 573 OFFCURVE",
"420 507 CURVE SMOOTH",
"420 441 OFFCURVE",
"377 409 OFFCURVE",
"290 409 CURVE SMOOTH",
"206 409 LINE"
);
}
);
width = 631;
}
);
leftKerningGroup = N;
leftMetricsKey = N;
rightKerningGroup = B;
unicode = 0042;
},
{
glyphname = C;
lastChange = "2018-01-15 19:27:53 +0000";
layers = (
{
anchors = (
{
name = bottom;
position = "{413, 0}";
},
{
name = top;
position = "{403, 700}";
}
);
layerId = "293088C9-8C6F-4F1A-8530-3146F0106214";
paths = (
{
closed = 1;
nodes = (
"60 133 OFFCURVE",
"213 -12 OFFCURVE",
"443 -12 CURVE",
"543 -12 OFFCURVE",
"619 17 OFFCURVE",
"653 34 CURVE",
"605 117 LINE",
"572 103 OFFCURVE",
"527 88 OFFCURVE",
"443 88 CURVE",
"279 88 OFFCURVE",
"170 193 OFFCURVE",
"170 350 CURVE",
"170 507 OFFCURVE",
"279 612 OFFCURVE",
"443 612 CURVE",
"527 612 OFFCURVE",
"572 597 OFFCURVE",
"605 583 CURVE",
"653 666 LINE",
"619 683 OFFCURVE",
"543 712 OFFCURVE",
"443 712 CURVE",
"213 712 OFFCURVE",
"60 567 OFFCURVE",
"60 350 CURVE"
);
}
);
width = 713;
}
);
leftKerningGroup = O;
leftMetricsKey = O;
rightKerningGroup = C;
unicode = 0043;
},
{
glyphname = D;
lastChange = "2018-01-20 10:21:01 +0000";
layers = (
{
anchors = (
{
name = center;
position = "{197, 350}";
},
{
name = top;
position = "{362, 700}";
}
);
layerId = "293088C9-8C6F-4F1A-8530-3146F0106214";
paths = (
{
closed = 1;
nodes = (
"350 0 LINE SMOOTH",
"573 0 OFFCURVE",
"704 130 OFFCURVE",
"704 351 CURVE SMOOTH",
"704 570 OFFCURVE",
"573 700 OFFCURVE",
"350 700 CURVE SMOOTH",
"100 700 LINE",
"100 0 LINE"
);
},
{
closed = 1;
nodes = (
"207 603 LINE",
"350 603 LINE SMOOTH",
"505 603 OFFCURVE",
"596 509 OFFCURVE",
"596 351 CURVE SMOOTH",
"596 192 OFFCURVE",
"505 98 OFFCURVE",
"350 98 CURVE SMOOTH",
"207 98 LINE"
);
}
);
width = 764;
}
);
leftKerningGroup = N;
leftMetricsKey = N;
rightKerningGroup = O;
rightMetricsKey = O;
unicode = 0044;
},
{
glyphname = Eth;
lastChange = "2018-01-15 19:16:47 +0000";
layers = (
{
anchors = (
{
name = _center;
position = "{186, 350}";
}
);
components = (
{
name = D;
transform = "{1, 0, 0, 1, 9, 0}";
}
);
layerId = "293088C9-8C6F-4F1A-8530-3146F0106214";
paths = (
{
closed = 1;
nodes = (
"15 403 LINE",
"15 319 LINE",
"366 319 LINE",
"366 403 LINE"
);
}
);
width = 773;
}
);
leftKerningGroup = N;
rightKerningGroup = O;
rightMetricsKey = D;
unicode = 00D0;
},
{
glyphname = E;
lastChange = "2018-01-20 10:21:13 +0000";
layers = (
{
anchors = (
{
name = ogonek;
position = "{459, 0}";
},
{
name = top;
position = "{296, 700}";
},
{
name = topleft;
position = "{40, 700}";
}
);
layerId = "293088C9-8C6F-4F1A-8530-3146F0106214";
paths = (
{
closed = 1;
nodes = (
"502 0 LINE",
"502 98 LINE",
"206 98 LINE",
"206 313 LINE",
"460 313 LINE",
"460 409 LINE",
"206 409 LINE",
"206 603 LINE",
"492 603 LINE",
"492 700 LINE",
"100 700 LINE",
"100 0 LINE"
);
}
);
width = 572;
}
);
leftKerningGroup = N;
leftMetricsKey = N;
rightKerningGroup = E;
unicode = 0045;
},
{
glyphname = F;
lastChange = "2018-01-20 09:04:18 +0000";
layers = (
{
layerId = "293088C9-8C6F-4F1A-8530-3146F0106214";
paths = (
{
closed = 1;
nodes = (
"207 0 LINE",
"207 303 LINE",
"460 303 LINE",
"460 399 LINE",
"207 399 LINE",
"207 603 LINE",
"492 603 LINE",
"492 700 LINE",
"100 700 LINE",
"100 0 LINE"
);
}
);
width = 557;
}
);
leftKerningGroup = N;
leftMetricsKey = N;
rightKerningGroup = F;
unicode = 0046;
},
{
glyphname = G;
lastChange = "2018-01-20 10:21:54 +0000";
layers = (
{
anchors = (
{
name = bottom;
position = "{413, 0}";
},
{
name = top;
position = "{408, 700}";
}
);
layerId = "293088C9-8C6F-4F1A-8530-3146F0106214";
paths = (
{
closed = 1;
nodes = (
"60 133 OFFCURVE",
"215 -12 OFFCURVE",
"448 -12 CURVE SMOOTH",
"548 -12 OFFCURVE",
"629 17 OFFCURVE",
"663 34 CURVE",
"663 368 LINE",
"407 368 LINE",
"407 274 LINE",
"560 274 LINE",
"560 99 LINE",
"531 93 OFFCURVE",
"494.975 88 OFFCURVE",
"448 88 CURVE SMOOTH",
"281 88 OFFCURVE",
"170 193 OFFCURVE",
"170 350 CURVE SMOOTH",
"170 507 OFFCURVE",
"281 612 OFFCURVE",
"448 612 CURVE SMOOTH",
"532 612 OFFCURVE",
"577 597 OFFCURVE",
"610 583 CURVE",
"658 666 LINE",
"624 683 OFFCURVE",
"548 712 OFFCURVE",
"448 712 CURVE SMOOTH",
"215 712 OFFCURVE",
"60 567 OFFCURVE",
"60 350 CURVE SMOOTH"
);
}
);
width = 748;
}
);
leftKerningGroup = O;
leftMetricsKey = O;
rightKerningGroup = G;
unicode = 0047;
},
{
glyphname = H;
lastChange = "2018-01-20 09:04:37 +0000";
layers = (
{
anchors = (
{
name = bottom;
position = "{396, 0}";
},
{
name = center;
position = "{396, 545}";
},
{
name = top;
position = "{396, 700}";
},
{
name = topleft;
position = "{40, 700}";
}
);
layerId = "293088C9-8C6F-4F1A-8530-3146F0106214";
paths = (
{
closed = 1;
nodes = (
"208 0 LINE",
"208 312 LINE",
"584 312 LINE",
"584 0 LINE",
"692 0 LINE",
"692 700 LINE",
"584 700 LINE",
"584 410 LINE",
"208 410 LINE",
"208 700 LINE",
"100 700 LINE",
"100 0 LINE"
);
}
);
width = 792;
}
);
leftKerningGroup = N;
leftMetricsKey = N;
rightMetricsKey = N;
unicode = 0048;
},
{
glyphname = I;
lastChange = "2018-01-20 09:42:26 +0000";
layers = (
{
anchors = (
{
name = bottom;
position = "{154, 0}";
},
{
name = ogonek;
position = "{154, 0}";
},
{
name = top;
position = "{154, 700}";
},
{
name = topleft;
position = "{40, 700}";
}
);
layerId = "293088C9-8C6F-4F1A-8530-3146F0106214";
paths = (
{
closed = 1;
nodes = (
"208 0 LINE",
"208 700 LINE",
"100 700 LINE",
"100 0 LINE"
);
}
);
width = 308;
}
);
leftKerningGroup = N;
leftMetricsKey = N;
rightMetricsKey = N;
unicode = 0049;
},
{
glyphname = Iogonek;
lastChange = "2018-01-20 09:42:44 +0000";
layers = (
{
components = (
{
name = I;
}
);
layerId = "293088C9-8C6F-4F1A-8530-3146F0106214";
paths = (
{
closed = 1;
nodes = (
"149 -119 OFFCURVE",
"125 -106 OFFCURVE",
"125 -72 CURVE SMOOTH",
"125 -43 OFFCURVE",
"152 -8 OFFCURVE",
"208 0 CURVE",
"196 12 LINE",
"117 12 LINE",
"100 0 LINE",
"66 -20 OFFCURVE",
"51 -52 OFFCURVE",
"51 -89 CURVE",
"51 -147 OFFCURVE",
"90 -184 OFFCURVE",
"148 -184 CURVE SMOOTH",
"174 -184 OFFCURVE",
"195 -179 OFFCURVE",
"219 -166 CURVE",
"186 -108 LINE"
);
}
);
width = 308;
}
);
leftKerningGroup = N;
unicode = 012E;
},
{
glyphname = J;
lastChange = "2018-01-15 19:28:58 +0000";
layers = (
{
layerId = "293088C9-8C6F-4F1A-8530-3146F0106214";
paths = (
{
closed = 1;
nodes = (
"207 700 LINE",
"207 188 LINE SMOOTH",
"207 117 OFFCURVE",
"176 86 OFFCURVE",
"105 86 CURVE SMOOTH",
"85 86 OFFCURVE",
"69 88 OFFCURVE",
"60 91 CURVE",
"20 5 LINE",
"39 -5 OFFCURVE",
"77 -12 OFFCURVE",
"114 -12 CURVE SMOOTH",
"246 -12 OFFCURVE",
"315 55 OFFCURVE",
"315 183 CURVE SMOOTH",
"315 700 LINE"
);
}
);
width = 410;
}
);
leftKerningGroup = J;
rightKerningGroup = J;
unicode = 004A;
},
{
glyphname = K;
lastChange = "2018-01-20 09:04:48 +0000";
layers = (
{
anchors = (
{
name = bottom;
position = "{352, 0}";
},
{
name = top;
position = "{352, 700}";
}
);
layerId = "293088C9-8C6F-4F1A-8530-3146F0106214";
paths = (
{
closed = 1;
nodes = (
"100 0 LINE",
"207 0 LINE",
"207 700 LINE",
"100 700 LINE"
);
},
{
closed = 1;
nodes = (
"482 51 OFFCURVE",
"551 5 OFFCURVE",
"622 -16 CURVE",
"659 63 LINE",
"605 84 OFFCURVE",
"550 130 OFFCURVE",
"500 186 CURVE",
"338 364 LINE",
"646 700 LINE",
"511 700 LINE",
"212 361 LINE",
"429 112 LINE"
);
}
);
width = 684;
}
);
leftKerningGroup = N;
leftMetricsKey = N;
rightKerningGroup = K;
unicode = 004B;
},
{
glyphname = L;
lastChange = "2018-01-20 09:04:54 +0000";
layers = (
{
anchors = (
{
name = bottom;
position = "{282, 0}";
},
{
name = center;
position = "{182, 406}";
},
{
name = top;
position = "{154, 700}";
},
{
name = topright;
position = "{484, 700}";
}
);
layerId = "293088C9-8C6F-4F1A-8530-3146F0106214";
paths = (
{
closed = 1;
nodes = (
"464 0 LINE",
"464 98 LINE",
"208 98 LINE",
"208 700 LINE",
"100 700 LINE",
"100 0 LINE"
);
}
);
width = 514;
}
);
leftKerningGroup = N;
leftMetricsKey = N;
rightKerningGroup = L;
unicode = 004C;
},
{
glyphname = Lcaron;
lastChange = "2018-01-15 19:16:47 +0000";
layers = (
{
anchors = (
{
name = _top;
position = "{304, 495}";
},
{
name = top;
position = "{319, 700}";
}
);
components = (
{
name = L;
}
);
layerId = "293088C9-8C6F-4F1A-8530-3146F0106214";
paths = (
{
closed = 1;
nodes = (
"340 553 LINE",
"390 700 LINE",
"290 700 LINE",
"268 553 LINE"
);
}
);
width = 514;
}
);
leftKerningGroup = N;
leftMetricsKey = L;
rightKerningGroup = L;
rightMetricsKey = L;
unicode = 013D;
},
{
glyphname = M;
lastChange = "2018-01-20 09:06:53 +0000";
layers = (
{
layerId = "293088C9-8C6F-4F1A-8530-3146F0106214";
paths = (
{
closed = 1;
nodes = (
"204 0 LINE",
"204 272 LINE",
"204 462 OFFCURVE",
"192 602 OFFCURVE",
"192 602 CURVE",
"192 602 OFFCURVE",
"194 603 OFFCURVE",
"194 603 CURVE SMOOTH",
"194 603 OFFCURVE",
"244 508 OFFCURVE",
"337 360 CURVE",
"428 211 LINE",
"521 211 LINE",
"612 360 LINE",
"705 508 OFFCURVE",
"755 603 OFFCURVE",
"755 603 CURVE SMOOTH",
"755 603 OFFCURVE",
"757 602 OFFCURVE",
"757 602 CURVE",
"757 602 OFFCURVE",
"745 462 OFFCURVE",
"745 272 CURVE",
"745 0 LINE",
"850 0 LINE",
"850 700 LINE",
"711 700 LINE",
"602 526 LINE",
"537 424 OFFCURVE",
"478 315 OFFCURVE",
"478 315 CURVE",
"478 315 OFFCURVE",
"476 315 OFFCURVE",
"476 315 CURVE SMOOTH",
"476 315 OFFCURVE",
"417 424 OFFCURVE",
"352 526 CURVE",
"244 700 LINE",
"100 700 LINE",
"100 0 LINE"
);
}
);
width = 950;
}
);
leftKerningGroup = N;
leftMetricsKey = N;
rightMetricsKey = N;
unicode = 004D;
},
{
glyphname = N;
lastChange = "2018-01-20 10:22:15 +0000";
layers = (
{
anchors = (
{
name = bottom;
position = "{430, 0}";
},
{
name = top;
position = "{440, 700}";
}
);
layerId = "293088C9-8C6F-4F1A-8530-3146F0106214";
paths = (
{
closed = 1;
nodes = (
"204 0 LINE",
"204 302 LINE",
"204 492 OFFCURVE",
"196 587 OFFCURVE",
"196 587 CURVE SMOOTH",
"196 587 OFFCURVE",
"198 588 OFFCURVE",
"198 588 CURVE",
"198 588 OFFCURVE",
"246 507 OFFCURVE",
"364 353 CURVE",
"634 0 LINE",
"760 0 LINE",
"760 700 LINE",
"655 700 LINE",
"655 398 LINE",
"655 208 OFFCURVE",
"663 113 OFFCURVE",
"663 113 CURVE",
"661 112 LINE",
"661 112 OFFCURVE",
"613 193 OFFCURVE",
"495 347 CURVE",
"225 700 LINE",
"100 700 LINE",
"100 0 LINE"
);
}
);
width = 860;
}
);
leftKerningGroup = N;
rightKerningGroup = N;
unicode = 004E;
},
{
glyphname = Eng;
lastChange = "2018-01-20 09:53:57 +0000";
layers = (
{
layerId = "293088C9-8C6F-4F1A-8530-3146F0106214";
paths = (
{
closed = 1;
nodes = (
"204 0 LINE",
"204 302 LINE SMOOTH",
"204 492 OFFCURVE",
"196 587 OFFCURVE",
"196 587 CURVE",
"198 588 LINE",
"198 588 OFFCURVE",
"246 507 OFFCURVE",
"364 353 CURVE SMOOTH",
"634 0 LINE",
"669 0 LINE",
"669 -33 LINE SMOOTH",
"669 -89 OFFCURVE",
"636 -117 OFFCURVE",
"575 -117 CURVE SMOOTH",
"560 -117 OFFCURVE",
"542 -115 OFFCURVE",
"532 -112 CURVE",
"486 -192 LINE",
"505 -202 OFFCURVE",
"544 -209 OFFCURVE",
"581 -209 CURVE SMOOTH",
"694 -209 OFFCURVE",
"760 -145 OFFCURVE",
"760 -38 CURVE SMOOTH",
"760 700 LINE",
"655 700 LINE",
"655 398 LINE SMOOTH",
"655 208 OFFCURVE",
"663 113 OFFCURVE",
"663 113 CURVE",
"661 112 LINE",
"661 112 OFFCURVE",
"613 193 OFFCURVE",
"495 347 CURVE SMOOTH",
"225 700 LINE",
"100 700 LINE",
"100 0 LINE"
);
}
);
width = 860;
}
);
leftKerningGroup = N;
leftMetricsKey = N;
rightMetricsKey = N;
unicode = 014A;
},
{
glyphname = O;
lastChange = "2018-01-20 10:22:36 +0000";
layers = (
{
anchors = (
{
name = center;
position = "{413, 337}";
},
{
name = top;
position = "{416, 700}";
},
{
name = topleft;
position = "{30, 700}";
},
{
name = topright;
position = "{801, 700}";
}
);
layerId = "293088C9-8C6F-4F1A-8530-3146F0106214";
paths = (
{
closed = 1;
nodes = (
"629 -12 OFFCURVE",
"771 133 OFFCURVE",
"771 350 CURVE SMOOTH",
"771 567 OFFCURVE",
"629 712 OFFCURVE",
"416 712 CURVE SMOOTH",
"202 712 OFFCURVE",
"60 567 OFFCURVE",
"60 350 CURVE SMOOTH",
"60 133 OFFCURVE",
"202 -12 OFFCURVE",
"416 -12 CURVE SMOOTH"
);
},
{
closed = 1;
nodes = (
"265 88 OFFCURVE",
"170 188 OFFCURVE",
"170 350 CURVE SMOOTH",
"170 511 OFFCURVE",
"265 612 OFFCURVE",
"416 612 CURVE SMOOTH",
"567 612 OFFCURVE",
"661 511 OFFCURVE",
"661 350 CURVE SMOOTH",
"661 188 OFFCURVE",
"567 88 OFFCURVE",
"416 88 CURVE SMOOTH"
);
}
);
width = 831;
}
);
leftKerningGroup = O;
rightKerningGroup = O;
unicode = 004F;
},
{
glyphname = Oslash;
lastChange = "2018-01-20 09:54:40 +0000";
layers = (
{
components = (
{
name = O;
}
);
layerId = "293088C9-8C6F-4F1A-8530-3146F0106214";
paths = (
{
closed = 1;
nodes = (
"229 106 LINE",
"666 535 LINE",
"606 591 LINE",
"172 165 LINE"
);
}
);
width = 831;
}
);
leftKerningGroup = O;
leftMetricsKey = O;
rightKerningGroup = O;
rightMetricsKey = O;
unicode = 00D8;
},
{
glyphname = OE;
lastChange = "2018-01-20 09:55:07 +0000";
layers = (
{
layerId = "293088C9-8C6F-4F1A-8530-3146F0106214";
paths = (
{
closed = 1;
nodes = (
"60 133 OFFCURVE",
"202 -12 OFFCURVE",
"416 -12 CURVE SMOOTH",
"521 -12 OFFCURVE",
"602 23 OFFCURVE",
"659 85 CURVE",
"661 84 LINE",
"661 0 LINE",
"1058 0 LINE",
"1058 98 LINE",
"762 98 LINE",
"762 313 LINE",
"1016 313 LINE",
"1016 409 LINE",
"762 409 LINE",
"762 603 LINE",
"1048 603 LINE",
"1048 700 LINE",
"661 700 LINE",
"661 616 LINE",
"659 615 LINE",
"602 677 OFFCURVE",
"521 712 OFFCURVE",
"416 712 CURVE SMOOTH",
"202 712 OFFCURVE",
"60 567 OFFCURVE",
"60 350 CURVE SMOOTH"
);
},
{
closed = 1;
nodes = (
"170 511 OFFCURVE",
"265 612 OFFCURVE",
"416 612 CURVE SMOOTH",
"567 612 OFFCURVE",
"661 511 OFFCURVE",
"661 350 CURVE SMOOTH",
"661 188 OFFCURVE",
"567 87 OFFCURVE",
"416 87 CURVE SMOOTH",
"265 87 OFFCURVE",
"170 188 OFFCURVE",
"170 350 CURVE SMOOTH"
);
}
);
width = 1128;
}
);
leftKerningGroup = O;
leftMetricsKey = O;
rightKerningGroup = E;
rightMetricsKey = E;
unicode = 0152;
},
{
glyphname = P;
lastChange = "2018-01-20 09:08:38 +0000";
layers = (
{
layerId = "293088C9-8C6F-4F1A-8530-3146F0106214";
paths = (
{
closed = 1;
nodes = (
"207 0 LINE",
"207 253 LINE",
"267 253 LINE SMOOTH",
"438 253 OFFCURVE",
"538 336 OFFCURVE",
"538 476 CURVE SMOOTH",
"538 617 OFFCURVE",
"448 700 OFFCURVE",
"295 700 CURVE SMOOTH",
"100 700 LINE",
"100 0 LINE"
);
},
{
closed = 1;
nodes = (
"207 603 LINE",
"287 603 LINE SMOOTH",
"379 603 OFFCURVE",
"434 556 OFFCURVE",
"434 476 CURVE SMOOTH",
"434 396 OFFCURVE",
"378 349 OFFCURVE",
"283 349 CURVE SMOOTH",
"207 349 LINE"
);
}
);
width = 596;
}
);
leftKerningGroup = N;
leftMetricsKey = N;
rightKerningGroup = P;
unicode = 0050;
},
{
glyphname = Thorn;
lastChange = "2018-01-20 09:55:20 +0000";
layers = (
{
layerId = "293088C9-8C6F-4F1A-8530-3146F0106214";
paths = (
{
closed = 1;
nodes = (
"187 0 LINE",
"187 139 LINE",
"260 139 LINE SMOOTH",
"424 139 OFFCURVE",
"521 222 OFFCURVE",
"521 362 CURVE SMOOTH",
"521 506 OFFCURVE",
"428 586 OFFCURVE",
"260 586 CURVE SMOOTH",
"187 586 LINE",
"187 700 LINE",
"80 700 LINE",
"80 0 LINE"
);
},
{
closed = 1;
nodes = (
"187 489 LINE",
"263 489 LINE SMOOTH",
"360 489 OFFCURVE",
"414 444 OFFCURVE",
"414 362 CURVE SMOOTH",
"414 283 OFFCURVE",
"361 238 OFFCURVE",
"263 235 CURVE SMOOTH",
"187 235 LINE"
);
}
);
width = 556;
}
);
leftKerningGroup = N;
unicode = 00DE;
},
{
glyphname = Q;
lastChange = "2018-01-20 09:08:50 +0000";
layers = (
{
layerId = "293088C9-8C6F-4F1A-8530-3146F0106214";
paths = (
{
closed = 1;
nodes = (
"60 128 OFFCURVE",
"195 -12 OFFCURVE",
"411 -12 CURVE SMOOTH",
"474.236 -12 OFFCURVE",
"531 0 OFFCURVE",
"579 23 CURVE",
"629 -36 OFFCURVE",
"698.922 -87.886 OFFCURVE",
"775 -118 CURVE",
"826 -29 LINE",
"752.899 -2.147 OFFCURVE",
"695 32 OFFCURVE",
"654 74 CURVE",
"723 137 OFFCURVE",
"761 231.665 OFFCURVE",
"761 350 CURVE SMOOTH",
"761 572 OFFCURVE",
"626 712 OFFCURVE",
"411 712 CURVE SMOOTH",
"195 712 OFFCURVE",
"60 572 OFFCURVE",
"60 350 CURVE SMOOTH"
);
},
{
closed = 1;
nodes = (
"170 511 OFFCURVE",
"263 612 OFFCURVE",
"411 612 CURVE SMOOTH",
"558 612 OFFCURVE",
"651 511 OFFCURVE",
"651 350 CURVE SMOOTH",
"651 189 OFFCURVE",
"558 88 OFFCURVE",
"411 88 CURVE SMOOTH",
"263 88 OFFCURVE",
"170 189 OFFCURVE",
"170 350 CURVE SMOOTH"
);
}
);
width = 835;
}
);
leftKerningGroup = O;
leftMetricsKey = O;
rightKerningGroup = Q;
unicode = 0051;
},
{
glyphname = R;
lastChange = "2018-01-20 10:22:50 +0000";
layers = (
{
anchors = (
{
name = bottom;
position = "{329, 0}";
},
{
name = top;
position = "{299, 700}";
}
);
layerId = "293088C9-8C6F-4F1A-8530-3146F0106214";
paths = (
{
closed = 1;
nodes = (
"206 0 LINE",
"206 257 LINE",
"297 258 LINE",
"396 114 LINE SMOOTH",
"442 47 OFFCURVE",
"497 11 OFFCURVE",
"574 -11 CURVE",
"611 70 LINE",
"549 94 OFFCURVE",
"502 129 OFFCURVE",
"461 189 CURVE SMOOTH",
"399 279 LINE",
"490 312 OFFCURVE",
"543 383.958 OFFCURVE",
"543 476 CURVE SMOOTH",
"543 617 OFFCURVE",
"448 700 OFFCURVE",
"295 700 CURVE SMOOTH",
"100 700 LINE",
"100 0 LINE"
);
},
{
closed = 1;
nodes = (
"206 603 LINE",
"287 603 LINE SMOOTH",
"379 603 OFFCURVE",
"439 556 OFFCURVE",
"439 476 CURVE SMOOTH",
"439 396 OFFCURVE",
"378 349 OFFCURVE",
"283 349 CURVE SMOOTH",
"206 349 LINE"
);
}
);
width = 646;
}
);
leftKerningGroup = N;
leftMetricsKey = N;
rightKerningGroup = R;
unicode = 0052;
},
{
glyphname = S;
lastChange = "2018-01-20 10:23:03 +0000";
layers = (
{
anchors = (
{
name = bottom;
position = "{284, 0}";
},
{
name = top;
position = "{288, 700}";
}
);
layerId = "293088C9-8C6F-4F1A-8530-3146F0106214";
paths = (
{
closed = 1;
nodes = (
"108 5 OFFCURVE",
"186 -12 OFFCURVE",
"262 -12 CURVE",
"411 -12 OFFCURVE",
"507 58 OFFCURVE",
"507 188 CURVE",
"507 406 OFFCURVE",
"182 390 OFFCURVE",
"182 531 CURVE",
"182 583 OFFCURVE",
"225 615 OFFCURVE",
"298 615 CURVE",
"345 615 OFFCURVE",
"387 608 OFFCURVE",
"434 590 CURVE",
"482 673 LINE",
"433 698 OFFCURVE",
"363 712 OFFCURVE",
"301 712 CURVE",
"165 712 OFFCURVE",
"77 639 OFFCURVE",
"77 529 CURVE",
"77 312 OFFCURVE",
"404 328 OFFCURVE",
"402 178 CURVE",
"401 118 OFFCURVE",
"350 87 OFFCURVE",
"265 87 CURVE",
"215 87 OFFCURVE",
"154 100 OFFCURVE",
"110 121 CURVE",
"60 34 LINE"
);
}
);
width = 567;
}
);
leftKerningGroup = S;
rightKerningGroup = S;
unicode = 0053;
},
{
glyphname = T;
lastChange = "2018-01-20 09:10:02 +0000";
layers = (
{
anchors = (
{
name = bottom;
position = "{311, 0}";
},
{
name = center;
position = "{309, 360}";
},
{
name = top;
position = "{309, 700}";
}
);
layerId = "293088C9-8C6F-4F1A-8530-3146F0106214";
paths = (
{
closed = 1;
nodes = (
"255 605 LINE",
"255 0 LINE",
"363 0 LINE",
"363 605 LINE",
"588 605 LINE",
"588 700 LINE",
"30 700 LINE",
"30 605 LINE"
);
}
);
width = 618;
}
);
leftKerningGroup = T;
rightKerningGroup = T;
unicode = 0054;
},
{
glyphname = Tcedilla;
lastChange = "2018-01-20 10:13:07 +0000";
layers = (
{
components = (
{
name = T;
}
);
layerId = "293088C9-8C6F-4F1A-8530-3146F0106214";
paths = (
{
closed = 1;
nodes = (
"278 -192 LINE",
"348 -164 OFFCURVE",
"385 -133 OFFCURVE",
"385 -69 CURVE",
"385 -20 OFFCURVE",
"364 5 OFFCURVE",
"339 23 CURVE",
"257 12 LINE",
"255 0 LINE",
"290 -3 OFFCURVE",
"303 -26 OFFCURVE",
"303 -57 CURVE SMOOTH",
"303 -93 OFFCURVE",
"285 -111 OFFCURVE",
"243 -131 CURVE"
);
}
);
width = 618;
}
);
leftKerningGroup = T;
leftMetricsKey = T;
rightKerningGroup = T;
rightMetricsKey = T;
unicode = 0162;
},
{
glyphname = U;
lastChange = "2018-01-20 10:23:29 +0000";
layers = (
{
anchors = (
{
name = ogonek;
position = "{442, 0}";
},
{
name = top;
position = "{388, 700}";
},
{
name = topright;
position = "{736, 700}";
}
);
layerId = "293088C9-8C6F-4F1A-8530-3146F0106214";
paths = (
{
closed = 1;
nodes = (
"95 103 OFFCURVE",
"200 -12 OFFCURVE",
"388 -12 CURVE",
"576 -12 OFFCURVE",
"681 103 OFFCURVE",
"681 310 CURVE",
"681 700 LINE",
"573 700 LINE",
"573 330 LINE",
"573 174 OFFCURVE",
"507 88 OFFCURVE",
"388 88 CURVE",
"269 88 OFFCURVE",
"203 174 OFFCURVE",
"203 330 CURVE",
"203 700 LINE",
"95 700 LINE",
"95 310 LINE"
);
}
);
width = 776;
}
);
leftKerningGroup = U;
leftMetricsKey = "=N-5";
rightKerningGroup = U;
rightMetricsKey = "=N-5";
unicode = 0055;
},
{
glyphname = Uogonek;
lastChange = "2018-01-20 09:31:36 +0000";
layers = (
{
components = (
{
name = U;
}
);
layerId = "293088C9-8C6F-4F1A-8530-3146F0106214";
paths = (
{
closed = 1;
nodes = (
"438 -119 OFFCURVE",
"414 -106 OFFCURVE",
"414 -76 CURVE SMOOTH",
"414 -46 OFFCURVE",
"442 -16 OFFCURVE",
"485 0 CURVE",
"450 12 LINE",
"363 -12 OFFCURVE",
"340 -50 OFFCURVE",
"340 -96 CURVE",
"340 -143 OFFCURVE",
"379 -184 OFFCURVE",
"437 -184 CURVE SMOOTH",
"463 -184 OFFCURVE",
"484 -179 OFFCURVE",
"508 -166 CURVE",
"475 -108 LINE"
);
}
);
width = 776;
}
);
leftKerningGroup = U;
leftMetricsKey = U;
rightKerningGroup = U;
rightMetricsKey = U;
unicode = 0172;
},
{
glyphname = V;
lastChange = "2018-01-20 09:10:44 +0000";
layers = (
{
layerId = "293088C9-8C6F-4F1A-8530-3146F0106214";
paths = (
{
closed = 1;
nodes = (
"575 700 LINE",
"445 368 LINE",
"390 228 OFFCURVE",
"355 108 OFFCURVE",
"355 108 CURVE",
"353 108 LINE",
"353 108 OFFCURVE",
"320 228 OFFCURVE",
"265 368 CURVE",
"136 700 LINE",
"25 700 LINE",
"299 0 LINE",
"409 0 LINE",
"683 700 LINE"
);
}
);
width = 708;
}
);
leftKerningGroup = V;
leftMetricsKey = A;
rightKerningGroup = V;
rightMetricsKey = A;
unicode = 0056;
},
{
glyphname = W;
lastChange = "2018-01-20 09:13:27 +0000";
layers = (
{
anchors = (
{
name = bottom;
position = "{577, 0}";
},
{
name = top;
position = "{583, 700}";
}
);
layerId = "293088C9-8C6F-4F1A-8530-3146F0106214";
paths = (
{
closed = 1;
nodes = (
"269 0 LINE",
"381 0 LINE",
"490 300 LINE",
"557 486 OFFCURVE",
"580 595 OFFCURVE",
"580 595 CURVE",
"582 595 LINE",
"582 595 OFFCURVE",
"602 486 OFFCURVE",
"667 300 CURVE",
"772 0 LINE",
"884 0 LINE",
"1138 700 LINE",
"1029 700 LINE",
"911 368 LINE",
"861 226 OFFCURVE",
"831 108 OFFCURVE",
"831 108 CURVE",
"829 108 LINE",
"829 108 OFFCURVE",
"800 226 OFFCURVE",
"752 368 CURVE",
"640 700 LINE",
"526 700 LINE",
"408 368 LINE",
"358 226 OFFCURVE",
"328 108 OFFCURVE",
"328 108 CURVE",
"326 108 LINE",
"326 108 OFFCURVE",
"299 226 OFFCURVE",
"249 368 CURVE",
"137 700 LINE",
"25 700 LINE"
);
}
);
width = 1163;
}
);
leftKerningGroup = V;
leftMetricsKey = A;
rightKerningGroup = V;
rightMetricsKey = A;
unicode = 0057;
},
{
glyphname = X;
lastChange = "2018-01-20 09:14:08 +0000";
layers = (
{
layerId = "293088C9-8C6F-4F1A-8530-3146F0106214";
paths = (
{
closed = 1;
nodes = (
"148 0 LINE",
"338 282 LINE",
"340 282 LINE",
"529 0 LINE",
"649 0 LINE",
"406 361 LINE",
"637 700 LINE",
"514 700 LINE",
"338 437 LINE",
"336 437 LINE",
"160 700 LINE",
"39 700 LINE",
"268 359 LINE",
"25 0 LINE"
);
}
);
width = 674;
}
);
leftKerningGroup = X;
leftMetricsKey = A;
rightKerningGroup = X;
rightMetricsKey = A;
unicode = 0058;
},
{
glyphname = Y;
lastChange = "2018-01-20 10:24:04 +0000";
layers = (
{
anchors = (
{
name = top;
position = "{317, 700}";
}
);
layerId = "293088C9-8C6F-4F1A-8530-3146F0106214";
paths = (
{
closed = 1;
nodes = (
"263 258 LINE",
"263 0 LINE",
"370 0 LINE",
"370 256 LINE",
"609 700 LINE",
"495 700 LINE",
"415 550 LINE",
"358 443 OFFCURVE",
"320 343 OFFCURVE",
"320 343 CURVE",
"318 343 LINE",
"318 343 OFFCURVE",
"279 443 OFFCURVE",
"222 549 CURVE",
"141 700 LINE",
"25 700 LINE"
);
}
);
width = 634;
}
);
leftKerningGroup = Y;
leftMetricsKey = A;
rightKerningGroup = Y;
rightMetricsKey = A;
unicode = 0059;
},
{
glyphname = Z;
lastChange = "2018-01-20 10:24:37 +0000";
layers = (
{
anchors = (
{
name = top;
position = "{322, 700}";
}
);
layerId = "293088C9-8C6F-4F1A-8530-3146F0106214";
paths = (
{
closed = 1;
nodes = (
"582 0 LINE",
"582 98 LINE",
"395 98 LINE",
"296 98 OFFCURVE",
"175 95 OFFCURVE",
"175 95 CURVE",
"174 97 LINE",
"174 97 OFFCURVE",
"247 182 OFFCURVE",
"308 263 CURVE",
"572 603 LINE",
"572 700 LINE",
"72 700 LINE",
"72 603 LINE",
"259 603 LINE",
"358 603 OFFCURVE",
"450 606 OFFCURVE",
"450 606 CURVE",
"451 604 LINE",
"451 604 OFFCURVE",
"392 534 OFFCURVE",
"332 457 CURVE",
"52 96 LINE",
"52 0 LINE"
);
}
);
width = 635;
}
);
leftKerningGroup = Z;
rightKerningGroup = Z;
unicode = 005A;
},
{
glyphname = A.alt;
lastChange = "2018-01-20 10:25:00 +0000";
layers = (
{
anchors = (
{
name = ogonek;
position = "{604, 0}";
},
{
name = top;
position = "{356, 700}";
}
);
layerId = "293088C9-8C6F-4F1A-8530-3146F0106214";
paths = (
{
closed = 1;
nodes = (
"129 0 LINE",
"212 211 LINE",
"214 212 LINE",
"354 118 LINE",
"356 118 LINE",
"495 212 LINE",
"497 211 LINE",
"577 0 LINE",
"687 0 LINE",
"413 700 LINE",
"299 700 LINE",
"25 0 LINE"
);
},
{
closed = 1;
nodes = (
"261 332 LINE",
"321 485 OFFCURVE",
"354 622 OFFCURVE",
"354 622 CURVE",
"356 622 LINE",
"356 622 OFFCURVE",
"389 486 OFFCURVE",
"450 332 CURVE",
"463 299 LINE",
"356 224 LINE",
"354 224 LINE",
"247 298 LINE"
);
}
);
width = 712;
}
);
leftKerningGroup = A;
leftMetricsKey = A;
rightKerningGroup = A;
rightMetricsKey = A;
},
{
glyphname = Aogonek.alt;
lastChange = "2018-01-20 09:40:03 +0000";
layers = (
{
anchors = (
{
name = _ogonek;
position = "{604, 0}";
}
);
components = (
{
name = A.alt;
}
);
layerId = "293088C9-8C6F-4F1A-8530-3146F0106214";
paths = (
{
closed = 1;
nodes = (
"625 -119 OFFCURVE",
"601 -106 OFFCURVE",
"601 -72 CURVE SMOOTH",
"601 -43 OFFCURVE",
"629 -8 OFFCURVE",
"687 0 CURVE",
"672 12 LINE",
"593 12 LINE",
"576 0 LINE",
"542 -20 OFFCURVE",
"527 -52 OFFCURVE",
"527 -89 CURVE",
"527 -147 OFFCURVE",
"566 -184 OFFCURVE",
"624 -184 CURVE SMOOTH",
"650 -184 OFFCURVE",
"671 -179 OFFCURVE",
"695 -166 CURVE",
"662 -108 LINE"
);
}
);
width = 712;
}
);
leftKerningGroup = A;
leftMetricsKey = A;
rightKerningGroup = A;
},
{
glyphname = Aring.alt;
lastChange = "2018-01-20 09:23:16 +0000";
layers = (
{
components = (
{
name = A.alt;
}
);
layerId = "293088C9-8C6F-4F1A-8530-3146F0106214";
paths = (
{
closed = 1;
nodes = (
"416 650 OFFCURVE",
"454 688 OFFCURVE",
"454 744 CURVE SMOOTH",
"454 800 OFFCURVE",
"416 837 OFFCURVE",
"358 837 CURVE SMOOTH",
"300 837 OFFCURVE",
"261 800 OFFCURVE",
"261 744 CURVE SMOOTH",
"261 688 OFFCURVE",
"300 650 OFFCURVE",
"358 650 CURVE SMOOTH"
);
},
{
closed = 1;
nodes = (
"330 700 OFFCURVE",
"311 718 OFFCURVE",
"311 744 CURVE SMOOTH",
"311 770 OFFCURVE",
"330 787 OFFCURVE",
"358 787 CURVE SMOOTH",
"386 787 OFFCURVE",
"404 770 OFFCURVE",
"404 744 CURVE SMOOTH",
"404 718 OFFCURVE",
"386 700 OFFCURVE",
"358 700 CURVE SMOOTH"
);
}
);
width = 712;
}
);
leftKerningGroup = A;
leftMetricsKey = A;
rightKerningGroup = A;
rightMetricsKey = A;
},
{
glyphname = E.alt;
lastChange = "2018-01-20 10:25:23 +0000";
layers = (
{
anchors = (
{
name = bottom;
position = "{413, 0}";
},
{
name = ogonek;
position = "{627, 10}";
},
{
name = top;
position = "{403, 700}";
},
{
name = topleft;
position = "{30, 700}";
}
);
layerId = "293088C9-8C6F-4F1A-8530-3146F0106214";
paths = (
{
closed = 1;
nodes = (
"60 133 OFFCURVE",
"213 -12 OFFCURVE",
"443 -12 CURVE SMOOTH",
"543 -12 OFFCURVE",
"619 17 OFFCURVE",
"653 34 CURVE",
"605 117 LINE",
"572 103 OFFCURVE",
"527 88 OFFCURVE",
"443 88 CURVE SMOOTH",
"294.844 88 OFFCURVE",
"192 174 OFFCURVE",
"173 306 CURVE",
"560 306 LINE",
"560 404 LINE",
"175 404 LINE",
"197 531 OFFCURVE",
"298.611 612 OFFCURVE",
"443 612 CURVE SMOOTH",
"527 612 OFFCURVE",
"572 597 OFFCURVE",
"605 583 CURVE",
"653 666 LINE",
"619 683 OFFCURVE",
"543 712 OFFCURVE",
"443 712 CURVE SMOOTH",
"213 712 OFFCURVE",
"60 567 OFFCURVE",
"60 350 CURVE SMOOTH"
);
}
);
width = 713;
}
);
leftKerningGroup = O;
leftMetricsKey = C;
rightKerningGroup = C;
rightMetricsKey = C;
},
{
glyphname = Eogonek.alt;
lastChange = "2018-01-20 09:30:48 +0000";
layers = (
{
components = (
{
name = E.alt;
}
);
layerId = "293088C9-8C6F-4F1A-8530-3146F0106214";
paths = (
{
closed = 1;
nodes = (
"496 -119 OFFCURVE",
"472 -106 OFFCURVE",
"472 -76 CURVE SMOOTH",
"472 -46 OFFCURVE",
"500 -16 OFFCURVE",
"543 0 CURVE",
"508 12 LINE",
"421 -12 OFFCURVE",
"398 -50 OFFCURVE",
"398 -96 CURVE",
"398 -143 OFFCURVE",
"437 -184 OFFCURVE",
"495 -184 CURVE SMOOTH",
"521 -184 OFFCURVE",
"542 -179 OFFCURVE",
"566 -166 CURVE",
"533 -108 LINE"
);
}
);
width = 713;
}
);
leftMetricsKey = C;
rightKerningGroup = E;
rightMetricsKey = C;
},
{
glyphname = I.alt;
lastChange = "2018-01-20 09:23:59 +0000";
layers = (
{
layerId = "293088C9-8C6F-4F1A-8530-3146F0106214";
paths = (
{
closed = 1;
nodes = (
"417 0 LINE",
"417 95 LINE",
"295 95 LINE",
"295 606 LINE",
"417 606 LINE",
"417 700 LINE",
"65 700 LINE",
"65 606 LINE",
"187 606 LINE",
"187 95 LINE",
"65 95 LINE",
"65 0 LINE"
);
}
);
width = 482;
}
);
leftKerningGroup = I.001;
rightKerningGroup = I.001;
},
{
glyphname = M.alt;
lastChange = "2018-01-20 09:26:49 +0000";
layers = (
{
layerId = "293088C9-8C6F-4F1A-8530-3146F0106214";
paths = (
{
closed = 1;
nodes = (
"204 0 LINE",
"204 235 LINE SMOOTH",
"204 370 OFFCURVE",
"196 459 OFFCURVE",
"196 459 CURVE",
"198 460 LINE",
"198 460 OFFCURVE",
"246 389 OFFCURVE",
"328 289 CURVE",
"428 165 LINE",
"508 165 LINE",
"604 285 LINE SMOOTH",
"686 385 OFFCURVE",
"737 460 OFFCURVE",
"737 460 CURVE",
"739 459 LINE",
"739 459 OFFCURVE",
"731 370 OFFCURVE",
"731 235 CURVE SMOOTH",
"731 0 LINE",
"836 0 LINE",
"836 700 LINE",
"730 700 LINE",
"732 599 LINE",
"470 274 LINE",
"468 274 LINE",
"203 601 LINE",
"205 700 LINE",
"100 700 LINE",
"100 0 LINE"
);
}
);
width = 936;
}
);
leftMetricsKey = N;
rightMetricsKey = N;
},
{
glyphname = N.alt;
lastChange = "2018-01-20 10:02:07 +0000";
layers = (
{
layerId = "293088C9-8C6F-4F1A-8530-3146F0106214";
paths = (
{
closed = 1;
nodes = (
"205 0 LINE",
"205 264 LINE SMOOTH",
"205 412 OFFCURVE",
"199 482 OFFCURVE",
"199 482 CURVE SMOOTH",
"199 482 OFFCURVE",
"247 432 OFFCURVE",
"354 343 CURVE SMOOTH",
"651 94 LINE",
"649 0 LINE",
"755 0 LINE",
"755 700 LINE",
"649 700 LINE",
"649 430 LINE SMOOTH",
"649 282 OFFCURVE",
"655 212 OFFCURVE",
"655 212 CURVE SMOOTH",
"655 212 OFFCURVE",
"601 265 OFFCURVE",
"506 346 CURVE SMOOTH",
"203 603 LINE",
"205 700 LINE",
"100 700 LINE",
"100 0 LINE"
);
}
);
width = 855;
}
);
leftMetricsKey = N;
rightMetricsKey = N;
},
{
glyphname = Eng.alt;
lastChange = "2018-01-20 10:02:23 +0000";
layers = (
{
layerId = "293088C9-8C6F-4F1A-8530-3146F0106214";
paths = (
{
closed = 1;
nodes = (
"205 0 LINE",
"205 264 LINE SMOOTH",
"205 412 OFFCURVE",
"199 482 OFFCURVE",
"199 482 CURVE SMOOTH",
"199 482 OFFCURVE",
"248 432 OFFCURVE",
"354 343 CURVE SMOOTH",
"653 92 LINE",
"654 0 LINE",
"654 -33 LINE SMOOTH",
"654 -89 OFFCURVE",
"631 -117 OFFCURVE",
"570 -117 CURVE SMOOTH",
"555 -117 OFFCURVE",
"537 -115 OFFCURVE",
"527 -112 CURVE",
"481 -192 LINE",
"500 -202 OFFCURVE",
"539 -209 OFFCURVE",
"576 -209 CURVE SMOOTH",
"689 -209 OFFCURVE",
"755 -145 OFFCURVE",
"755 -38 CURVE SMOOTH",
"755 700 LINE",
"649 700 LINE",
"649 430 LINE SMOOTH",
"649 282 OFFCURVE",
"655 212 OFFCURVE",
"655 212 CURVE SMOOTH",
"655 212 OFFCURVE",
"601 265 OFFCURVE",
"506 346 CURVE SMOOTH",
"203 603 LINE",
"205 700 LINE",
"100 700 LINE",
"100 0 LINE"
);
}
);
width = 855;
}
);
leftMetricsKey = N;
rightMetricsKey = N;
},
{
glyphname = W.alt;
lastChange = "2018-01-20 10:04:31 +0000";
layers = (
{
anchors = (
{
name = bottom;
position = "{545, 0}";
},
{
name = top;
position = "{545, 700}";
}
);
layerId = "293088C9-8C6F-4F1A-8530-3146F0106214";
paths = (
{
closed = 1;
nodes = (
"279 0 LINE",
"389 0 LINE",
"456 186 LINE",
"524 382 OFFCURVE",
"550 478 OFFCURVE",
"550 478 CURVE",
"552 478 LINE",
"552 478 OFFCURVE",
"579 382 OFFCURVE",
"649 186 CURVE",
"716 0 LINE",
"826 0 LINE",
"1080 700 LINE",
"972 700 LINE",
"851 362 LINE",
"794 202 OFFCURVE",
"771 123 OFFCURVE",
"771 123 CURVE",
"769 123 LINE",
"769 123 OFFCURVE",
"748 202 OFFCURVE",
"692 362 CURVE SMOOTH",
"573 700 LINE",
"462 700 LINE",
"499 602 LINE",
"414 362 LINE",
"357 202 OFFCURVE",
"334 123 OFFCURVE",
"334 123 CURVE",
"332 123 LINE",
"332 123 OFFCURVE",
"310 202 OFFCURVE",
"255 362 CURVE",
"136 700 LINE",
"25 700 LINE"
);
}
);
width = 1105;
}
);
leftKerningGroup = W;
leftMetricsKey = A;
rightKerningGroup = W;
rightMetricsKey = A;
},
{
glyphname = a;
lastChange = "2018-01-20 10:15:33 +0000";
layers = (
{
anchors = (
{
name = bottom;
position = "{281, 0}";
},
{
name = ogonek;
position = "{497, -1}";
},
{
name = top;
position = "{284, 525}";
}
);
layerId = "293088C9-8C6F-4F1A-8530-3146F0106214";
paths = (
{
closed = 1;
nodes = (
"412 55 OFFCURVE",
"420.659 20.117 OFFCURVE",
"435 -10 CURVE",
"528 15 LINE",
"508 57 OFFCURVE",
"498 109 OFFCURVE",
"498 151 CURVE SMOOTH",
"498 315 LINE SMOOTH",
"498 470 OFFCURVE",
"429 536 OFFCURVE",
"273 537 CURVE SMOOTH",
"184 536 OFFCURVE",
"106 507 OFFCURVE",
"81 492 CURVE",
"126 413 LINE",
"151 426 OFFCURVE",
"202 446 OFFCURVE",
"261 446 CURVE SMOOTH",
"362.241 446 OFFCURVE",
"398 410 OFFCURVE",
"398 316 CURVE",
"371 323 OFFCURVE",
"328.746 327 OFFCURVE",
"279 327 CURVE SMOOTH",
"197 327 OFFCURVE",
"52 294 OFFCURVE",
"52 149 CURVE SMOOTH",
"52 60 OFFCURVE",
"107 -12 OFFCURVE",
"221 -12 CURVE SMOOTH",
"292.902 -12 OFFCURVE",
"362 30 OFFCURVE",
"406 88 CURVE",
"408 88 LINE"
);
},
{
closed = 1;
nodes = (
"150 215 OFFCURVE",
"200 249 OFFCURVE",
"292 249 CURVE SMOOTH",
"342.296 249 OFFCURVE",
"375 245 OFFCURVE",
"398 236 CURVE",
"398 165 LINE",
"364 124 OFFCURVE",
"297.824 78 OFFCURVE",
"242 78 CURVE SMOOTH",
"183 78 OFFCURVE",
"150 111 OFFCURVE",
"151 157 CURVE"
);
}
);
width = 584;
}
);
leftKerningGroup = a;
rightKerningGroup = n;
unicode = 0061;
},
{
glyphname = aogonek;
lastChange = "2018-01-20 09:49:24 +0000";
layers = (
{
components = (
{
name = a;
}
);
layerId = "293088C9-8C6F-4F1A-8530-3146F0106214";
paths = (
{
closed = 1;
nodes = (
"493 -121 OFFCURVE",
"463 -109 OFFCURVE",
"463 -71 CURVE SMOOTH",
"463 -47 OFFCURVE",
"474 -20 OFFCURVE",
"528 15 CURVE",
"469 13 LINE",
"438 0 LINE",
"424 -13 OFFCURVE",
"392 -40 OFFCURVE",
"392 -91 CURVE",
"392 -149 OFFCURVE",
"434 -184 OFFCURVE",
"493 -184 CURVE SMOOTH",
"524 -184 OFFCURVE",
"552 -177 OFFCURVE",
"572 -166 CURVE",
"539 -108 LINE"
);
}
);
width = 584;
}
);
leftKerningGroup = a;
rightKerningGroup = n;
unicode = 0105;
},
{
glyphname = ae;
lastChange = "2018-01-19 18:23:49 +0000";
layers = (
{
layerId = "293088C9-8C6F-4F1A-8530-3146F0106214";
paths = (
{
closed = 1;
nodes = (
"428 511 OFFCURVE",
"369.215 536.383 OFFCURVE",
"273 537 CURVE SMOOTH",
"184 536 OFFCURVE",
"106 507 OFFCURVE",
"81 492 CURVE",
"126 413 LINE",
"151 426 OFFCURVE",
"202 446 OFFCURVE",
"261 446 CURVE SMOOTH",
"362.241 446 OFFCURVE",
"398 410 OFFCURVE",
"398 316 CURVE",
"371 323 OFFCURVE",
"328.746 327 OFFCURVE",
"279 327 CURVE SMOOTH",
"197 327 OFFCURVE",
"52 294 OFFCURVE",
"52 149 CURVE SMOOTH",
"52 60 OFFCURVE",
"107 -12 OFFCURVE",
"221 -12 CURVE SMOOTH",
"290.973 -12 OFFCURVE",
"358 28 OFFCURVE",
"439 110 CURVE",
"441 110 LINE",
"482 32 OFFCURVE",
"558.95 -12 OFFCURVE",
"667 -12 CURVE SMOOTH",
"781 -12 OFFCURVE",
"830 18 OFFCURVE",
"855 36 CURVE",
"811 112 LINE",
"786 99 OFFCURVE",
"737 79 OFFCURVE",
"673 79 CURVE SMOOTH",
"571.911 79 OFFCURVE",
"504 138 OFFCURVE",
"492 233 CURVE",
"860 233 LINE",
"860 272 LINE SMOOTH",
"860 439 OFFCURVE",
"778 537 OFFCURVE",
"638 537 CURVE SMOOTH",
"561.428 537 OFFCURVE",
"502 508 OFFCURVE",
"462 455 CURVE",
"460 455 LINE"
);
},
{
closed = 1;
nodes = (
"150 215 OFFCURVE",
"200 249 OFFCURVE",
"292 249 CURVE SMOOTH",
"342.296 249 OFFCURVE",
"375 245 OFFCURVE",
"398 236 CURVE",
"398 165 LINE",
"364 124 OFFCURVE",
"297.824 78 OFFCURVE",
"242 78 CURVE SMOOTH",
"183 78 OFFCURVE",
"150 111 OFFCURVE",
"151 157 CURVE"
);
},
{
closed = 1;
nodes = (
"503 392 OFFCURVE",
"558.326 446 OFFCURVE",
"638 446 CURVE SMOOTH",
"714.468 446 OFFCURVE",
"760.103 396.982 OFFCURVE",
"758.031 314.41 CURVE",
"493 302 LINE"
);
}
);
width = 921;
}
);
leftKerningGroup = a;
leftMetricsKey = a;
rightKerningGroup = e;
rightMetricsKey = e;
unicode = 00E6;
},
{
glyphname = b;
lastChange = "2018-01-19 18:07:07 +0000";
layers = (
{
layerId = "293088C9-8C6F-4F1A-8530-3146F0106214";
paths = (
{
closed = 1;
nodes = (
"194 760 LINE",
"90 760 LINE",
"90 18 LINE",
"122 5 OFFCURVE",
"186 -12 OFFCURVE",
"276 -12 CURVE SMOOTH",
"462 -12 OFFCURVE",
"563 96 OFFCURVE",
"563 267 CURVE SMOOTH",
"563 433 OFFCURVE",
"466 537 OFFCURVE",
"312 537 CURVE SMOOTH",
"257.097 537 OFFCURVE",
"219 520 OFFCURVE",
"196 497 CURVE",
"194 498 LINE"
);
},
{
closed = 1;
nodes = (
"214 432 OFFCURVE",
"243.659 446 OFFCURVE",
"298 446 CURVE SMOOTH",
"398 446 OFFCURVE",
"457 380 OFFCURVE",
"457 267 CURVE SMOOTH",
"457 149 OFFCURVE",
"400 79 OFFCURVE",
"276 79 CURVE SMOOTH",
"241.303 79 OFFCURVE",
"220 82 OFFCURVE",
"194 91 CURVE",
"194 417 LINE"
);
}
);
width = 613;
}
);
leftKerningGroup = l;
leftMetricsKey = l;
rightKerningGroup = o;
rightMetricsKey = o;
unicode = 0062;
},
{
glyphname = c;
lastChange = "2018-01-20 10:14:34 +0000";
layers = (
{
anchors = (
{
name = bottom;
position = "{291, 0}";
},
{
name = top;
position = "{301, 525}";
}
);
layerId = "293088C9-8C6F-4F1A-8530-3146F0106214";
paths = (
{
closed = 1;
nodes = (
"50 94 OFFCURVE",
"160 -12 OFFCURVE",
"335 -12 CURVE SMOOTH",
"392 -12 OFFCURVE",
"441 0 OFFCURVE",
"481 20 CURVE",
"437 96 LINE",
"404 85 OFFCURVE",
"377 79 OFFCURVE",
"335 79 CURVE SMOOTH",
"225 79 OFFCURVE",
"156 150 OFFCURVE",
"156 262 CURVE SMOOTH",
"156 375 OFFCURVE",
"225 446 OFFCURVE",
"335 446 CURVE SMOOTH",
"377 446 OFFCURVE",
"404 440 OFFCURVE",
"437 429 CURVE",
"481 505 LINE",
"441 525 OFFCURVE",
"392 537 OFFCURVE",
"335 537 CURVE SMOOTH",
"160 537 OFFCURVE",
"50 431 OFFCURVE",
"50 262 CURVE SMOOTH"
);
}
);
width = 516;
}
);
leftKerningGroup = o;
leftMetricsKey = o;
rightKerningGroup = c;
unicode = 0063;
},
{
glyphname = d;
lastChange = "2018-01-19 18:08:09 +0000";
layers = (
{
anchors = (
{
name = center;
position = "{421, 647}";
}
);
layerId = "293088C9-8C6F-4F1A-8530-3146F0106214";
paths = (
{
closed = 1;
nodes = (
"441 48 OFFCURVE",
"443.98 18.415 OFFCURVE",
"453 -8 CURVE",
"547 17 LINE",
"535 56 OFFCURVE",
"533 104 OFFCURVE",
"533 143 CURVE SMOOTH",
"533 760 LINE",
"429 760 LINE",
"429 492 LINE",
"427 491 LINE",
"408 516 OFFCURVE",
"367.772 537 OFFCURVE",
"301 537 CURVE SMOOTH",
"150 537 OFFCURVE",
"50 425 OFFCURVE",
"50 267 CURVE SMOOTH",
"50 96 OFFCURVE",
"149 -12 OFFCURVE",
"273 -12 CURVE SMOOTH",
"350.056 -12 OFFCURVE",
"401 25 OFFCURVE",
"437 77 CURVE",
"439 77 LINE"
);
},
{
closed = 1;
nodes = (
"156 373 OFFCURVE",
"218 449 OFFCURVE",
"311 449 CURVE SMOOTH",
"376.839 449 OFFCURVE",
"410 431 OFFCURVE",
"429 414 CURVE",
"429 159 LINE",
"411 127 OFFCURVE",
"368.202 81 OFFCURVE",
"297 81 CURVE SMOOTH",
"212 81 OFFCURVE",
"156 152 OFFCURVE",
"156 267 CURVE SMOOTH"
);
}
);
width = 623;
}
);
leftKerningGroup = o;
leftMetricsKey = o;
rightKerningGroup = l;
unicode = 0064;
},
{
glyphname = eth;
lastChange = "2018-01-19 18:26:59 +0000";
layers = (
{
layerId = "293088C9-8C6F-4F1A-8530-3146F0106214";
paths = (
{
closed = 1;
nodes = (
"225 84 OFFCURVE",
"157 156 OFFCURVE",
"157 264 CURVE SMOOTH",
"157 373 OFFCURVE",
"225 445 OFFCURVE",
"328 445 CURVE SMOOTH",
"430 445 OFFCURVE",
"498 373 OFFCURVE",
"498 264 CURVE SMOOTH",
"498 156 OFFCURVE",
"430 84 OFFCURVE",
"328 84 CURVE SMOOTH"
);
},
{
closed = 1;
nodes = (
"50 98 OFFCURVE",
"161 -12 OFFCURVE",
"328 -12 CURVE SMOOTH",
"494 -12 OFFCURVE",
"605 98 OFFCURVE",
"605 302 CURVE SMOOTH",
"605 444.505 OFFCURVE",
"550 579 OFFCURVE",
"434 671 CURVE",
"509 725 LINE",
"474 775 LINE",
"381 707 LINE",
"348 727 OFFCURVE",
"311.306 743.683 OFFCURVE",
"271 757 CURVE",
"234 693 LINE",
"262.077 681.977 OFFCURVE",
"288 670 OFFCURVE",
"312 657 CURVE",
"246 610 LINE",
"282 561 LINE",
"367 623 LINE",
"426 580 OFFCURVE",
"464.752 530.13 OFFCURVE",
"485 470 CURVE",
"483 469 LINE",
"443 516 OFFCURVE",
"385 542 OFFCURVE",
"318 542 CURVE SMOOTH",
"161 542 OFFCURVE",
"50 431 OFFCURVE",
"50 264 CURVE SMOOTH"
);
}
);
width = 655;
}
);
leftKerningGroup = o;
leftMetricsKey = o;
rightKerningGroup = o;
rightMetricsKey = o;
unicode = 00F0;
},
{
glyphname = dcaron;
lastChange = "2018-01-11 16:10:02 +0000";
layers = (
{
components = (
{
name = d;
}
);
layerId = "293088C9-8C6F-4F1A-8530-3146F0106214";
paths = (
{
closed = 1;
nodes = (
"658 593 LINE",
"718 760 LINE",
"614 760 LINE",
"582 593 LINE"
);
}
);
width = 688;
}
);
leftKerningGroup = o;
rightKerningGroup = l;
unicode = 010F;
},
{
glyphname = e;
lastChange = "2018-01-20 10:14:58 +0000";
layers = (
{
anchors = (
{
name = bottom;
position = "{298, 0}";
},
{
name = ogonek;
position = "{418, 0}";
},
{
name = top;
position = "{293, 525}";
}
);
layerId = "293088C9-8C6F-4F1A-8530-3146F0106214";
paths = (
{
closed = 1;
nodes = (
"50 94 OFFCURVE",
"160 -12 OFFCURVE",
"327 -12 CURVE SMOOTH",
"441 -12 OFFCURVE",
"490 18 OFFCURVE",
"515 36 CURVE",
"471 112 LINE",
"446 99 OFFCURVE",
"397 79 OFFCURVE",
"333 79 CURVE SMOOTH",
"231.911 79 OFFCURVE",
"164 138 OFFCURVE",
"152 233 CURVE",
"520 233 LINE",
"520 272 LINE SMOOTH",
"520 439 OFFCURVE",
"438 537 OFFCURVE",
"298 537 CURVE SMOOTH",
"153 537 OFFCURVE",
"50 432 OFFCURVE",
"50 264 CURVE SMOOTH"
);
},
{
closed = 1;
nodes = (
"163 392 OFFCURVE",
"218.326 446 OFFCURVE",
"298 446 CURVE SMOOTH",
"374.468 446 OFFCURVE",
"420.103 396.982 OFFCURVE",
"418.031 314.41 CURVE",
"153 302 LINE"
);
}
);
width = 581;
}
);
leftKerningGroup = o;
rightKerningGroup = o;
unicode = 0065;
},
{
glyphname = f;
lastChange = "2018-01-19 18:08:37 +0000";
layers = (
{
layerId = "293088C9-8C6F-4F1A-8530-3146F0106214";
paths = (
{
closed = 1;
nodes = (
"125 446 LINE",
"125 0 LINE",
"229 0 LINE",
"229 446 LINE",
"360 446 LINE",
"360 525 LINE",
"229 525 LINE",
"229 576 LINE",
"229 643 OFFCURVE",
"264 683 OFFCURVE",
"338 683 CURVE",
"382 683 OFFCURVE",
"404 671 OFFCURVE",
"413 667 CURVE",
"457 742 LINE",
"434 754 OFFCURVE",
"391 772 OFFCURVE",
"329 772 CURVE",
"204 772 OFFCURVE",
"125 686 OFFCURVE",
"125 571 CURVE",
"125 525 LINE",
"30 510 LINE",
"30 446 LINE"
);
}
);
width = 392;
}
);
leftKerningGroup = f;
rightKerningGroup = f;
unicode = 0066;
},
{
glyphname = g;
lastChange = "2018-01-20 10:15:54 +0000";
layers = (
{
anchors = (
{
name = top;
position = "{282, 525}";
}
);
layerId = "293088C9-8C6F-4F1A-8530-3146F0106214";
paths = (
{
closed = 1;
nodes = (
"368 525 OFFCURVE",
"325.563 537 OFFCURVE",
"275 537 CURVE SMOOTH",
"150 537 OFFCURVE",
"66 463 OFFCURVE",
"66 353 CURVE SMOOTH",
"66 285.671 OFFCURVE",
"97 233 OFFCURVE",
"151 202 CURVE",
"151 200 LINE",
"108 175 OFFCURVE",
"88 135.34 OFFCURVE",
"88 98 CURVE SMOOTH",
"88 31 OFFCURVE",
"154 -8 OFFCURVE",
"252 -8 CURVE SMOOTH",
"315 -8 LINE SMOOTH",
"392 -8 OFFCURVE",
"426 -19 OFFCURVE",
"426 -61 CURVE SMOOTH",
"426 -101 OFFCURVE",
"382 -132 OFFCURVE",
"275 -132 CURVE SMOOTH",
"171 -132 OFFCURVE",
"119 -81 OFFCURVE",
"99 -54 CURVE",
"25 -98 LINE",
"54 -156 OFFCURVE",
"140 -222 OFFCURVE",
"283 -222 CURVE SMOOTH",
"451 -222 OFFCURVE",
"521 -139 OFFCURVE",
"521 -61 CURVE SMOOTH",
"521 33 OFFCURVE",
"448 78 OFFCURVE",
"334 78 CURVE SMOOTH",
"264 78 LINE SMOOTH",
"204 78 OFFCURVE",
"176 94 OFFCURVE",
"176 129 CURVE SMOOTH",
"176 147.13 OFFCURVE",
"189 165 OFFCURVE",
"205 179 CURVE",
"226 173 OFFCURVE",
"249.727 170 OFFCURVE",
"275 170 CURVE SMOOTH",
"400 170 OFFCURVE",
"483 243 OFFCURVE",
"483 353 CURVE SMOOTH",
"483 395.079 OFFCURVE",
"471 432 OFFCURVE",
"449 461 CURVE",
"470 488 OFFCURVE",
"506.652 509.452 OFFCURVE",
"555 515 CURVE",
"521 587 LINE",
"467.079 581.102 OFFCURVE",
"429 546 OFFCURVE",
"404 504 CURVE",
"402 503 LINE"
);
},
{
closed = 1;
nodes = (
"160 414 OFFCURVE",
"201 453 OFFCURVE",
"275 453 CURVE SMOOTH",
"348 453 OFFCURVE",
"389 414 OFFCURVE",
"389 353 CURVE SMOOTH",
"389 290 OFFCURVE",
"348 253 OFFCURVE",
"275 253 CURVE SMOOTH",
"201 253 OFFCURVE",
"160 290 OFFCURVE",
"160 353 CURVE SMOOTH"
);
}
);
width = 565;
}
);
leftKerningGroup = g;
rightKerningGroup = g;
unicode = 0067;
},
{
glyphname = h;
lastChange = "2018-01-19 18:10:12 +0000";
layers = (
{
anchors = (
{
name = center;
position = "{202, 647}";
}
);
layerId = "293088C9-8C6F-4F1A-8530-3146F0106214";
paths = (
{
closed = 1;
nodes = (
"195 760 LINE",
"90 760 LINE",
"90 0 LINE",
"195 0 LINE",
"195 344 LINE",
"225 389 OFFCURVE",
"281 437 OFFCURVE",
"351 437 CURVE SMOOTH",
"422 437 OFFCURVE",
"448 397 OFFCURVE",
"448 305 CURVE SMOOTH",
"448 0 LINE",
"554 0 LINE",
"554 305 LINE SMOOTH",
"554 457 OFFCURVE",
"493 537 OFFCURVE",
"369 537 CURVE SMOOTH",
"290.354 537 OFFCURVE",
"239 497 OFFCURVE",
"197 443 CURVE",
"195 444 LINE"
);
}
);
width = 640;
}
);
leftKerningGroup = l;
leftMetricsKey = l;
rightKerningGroup = n;
rightMetricsKey = n;
unicode = 0068;
},
{
glyphname = i;
lastChange = "2018-01-19 14:45:01 +0000";
layers = (
{
layerId = "293088C9-8C6F-4F1A-8530-3146F0106214";
paths = (
{
closed = 1;
nodes = (
"196 0 LINE",
"196 525 LINE",
"90 525 LINE",
"90 0 LINE"
);
},
{
closed = 1;
nodes = (
"202 757 LINE",
"84 757 LINE",
"84 638 LINE",
"202 638 LINE"
);
}
);
width = 286;
}
);
leftKerningGroup = i;
rightKerningGroup = i;
unicode = 0069;
},
{
glyphname = idotless;
lastChange = "2018-01-11 15:59:20 +0000";
layers = (
{
anchors = (
{
name = bottom;
position = "{143, 0}";
},
{
name = ogonek;
position = "{178, 0}";
},
{
name = top;
position = "{143, 525}";
}
);
layerId = "293088C9-8C6F-4F1A-8530-3146F0106214";
paths = (
{
closed = 1;
nodes = (
"196 0 LINE",
"196 525 LINE",
"90 525 LINE",
"90 0 LINE"
);
}
);
width = 286;
}
);
leftKerningGroup = i;
rightKerningGroup = i;
unicode = 0131;
},
{
glyphname = iogonek;
lastChange = "2018-01-20 09:47:25 +0000";
layers = (
{
components = (
{
name = i;
}
);
layerId = "293088C9-8C6F-4F1A-8530-3146F0106214";
paths = (
{
closed = 1;
nodes = (
"145 -121 OFFCURVE",
"115 -105 OFFCURVE",
"115 -74 CURVE SMOOTH",
"115 -46 OFFCURVE",
"137 -11 OFFCURVE",
"196 0 CURVE",
"121 13 LINE",
"90 0 LINE",
"76 -13 OFFCURVE",
"44 -40 OFFCURVE",
"44 -91 CURVE",
"44 -149 OFFCURVE",
"86 -184 OFFCURVE",
"145 -184 CURVE SMOOTH",
"176 -184 OFFCURVE",
"204 -177 OFFCURVE",
"224 -166 CURVE",
"191 -108 LINE"
);
}
);
width = 266;
}
);
leftKerningGroup = i;
rightKerningGroup = i;
unicode = 012F;
},
{
glyphname = j;
lastChange = "2018-01-19 14:44:56 +0000";
layers = (
{
layerId = "293088C9-8C6F-4F1A-8530-3146F0106214";
paths = (
{
closed = 1;
nodes = (
"-41 -215 OFFCURVE",
"-8 -222 OFFCURVE",
"29 -222 CURVE",
"147 -222 OFFCURVE",
"203 -148 OFFCURVE",
"203 -41 CURVE",
"203 525 LINE",
"97 525 LINE",
"97 -46 LINE",
"97 -102 OFFCURVE",
"83 -136 OFFCURVE",
"20 -136 CURVE",
"5 -136 OFFCURVE",
"-7 -135 OFFCURVE",
"-17 -132 CURVE",
"-60 -205 LINE"
);
},
{
closed = 1;
nodes = (
"209 757 LINE",
"91 757 LINE",
"91 638 LINE",
"209 638 LINE"
);
}
);
width = 293;
}
);
leftKerningGroup = j;
rightKerningGroup = i;
rightMetricsKey = i;
unicode = 006A;
},
{
glyphname = k;
lastChange = "2018-01-19 17:46:24 +0000";
layers = (
{
anchors = (
{
name = bottom;
position = "{288, 0}";
}
);
layerId = "293088C9-8C6F-4F1A-8530-3146F0106214";
paths = (
{
closed = 1;
nodes = (
"193 1 LINE",
"193 761 LINE",
"90 760 LINE",
"90 0 LINE"
);
},
{
closed = 1;
nodes = (
"340 106 LINE SMOOTH",
"387 44 OFFCURVE",
"434 7 OFFCURVE",
"512 -16 CURVE",
"549 64 LINE",
"487 86 OFFCURVE",
"445 121 OFFCURVE",
"402 175 CURVE",
"318 290 LINE",
"535 525 LINE",
"419 525 LINE",
"202 288 LINE"
);
}
);
width = 569;
}
);
leftKerningGroup = l;
leftMetricsKey = l;
rightKerningGroup = x;
unicode = 006B;
},
{
glyphname = l;
lastChange = "2018-01-19 12:41:13 +0000";
layers = (
{
anchors = (
{
name = bottom;
position = "{173, 0}";
},
{
name = center;
position = "{146, 405}";
},
{
name = top;
position = "{143, 750}";
},
{
name = topright;
position = "{256, 720}";
}
);
layerId = "293088C9-8C6F-4F1A-8530-3146F0106214";
paths = (
{
closed = 1;
nodes = (
"90 56 OFFCURVE",
"115 -12 OFFCURVE",
"220 -12 CURVE SMOOTH",
"263 -12 OFFCURVE",
"285 -7 OFFCURVE",
"297 -2 CURVE",
"277 73 LINE",
"273 72 OFFCURVE",
"257 71 OFFCURVE",
"243 71 CURVE SMOOTH",
"213 71 OFFCURVE",
"196 83 OFFCURVE",
"196 129 CURVE SMOOTH",
"196 760 LINE",
"90 760 LINE",
"90 129 LINE SMOOTH"
);
}
);
width = 317;
}
);
leftKerningGroup = l;
rightKerningGroup = l;
unicode = 006C;
},
{
glyphname = lcaron;
lastChange = "2018-01-11 16:01:20 +0000";
layers = (
{
components = (
{
name = l;
}
);
layerId = "293088C9-8C6F-4F1A-8530-3146F0106214";
paths = (
{
closed = 1;
nodes = (
"326 583 LINE",
"386 750 LINE",
"282 750 LINE",
"250 583 LINE"
);
}
);
width = 356;
}
);
leftKerningGroup = l;
rightKerningGroup = l;
unicode = 013E;
},
{
glyphname = m;
lastChange = "2018-01-19 18:11:30 +0000";
layers = (
{
layerId = "293088C9-8C6F-4F1A-8530-3146F0106214";
paths = (
{
closed = 1;
nodes = (
"501 498 OFFCURVE",
"447.066 537 OFFCURVE",
"364 537 CURVE SMOOTH",
"285.917 537 OFFCURVE",
"232 490 OFFCURVE",
"187 429 CURVE",
"185 430 LINE",
"183 464 OFFCURVE",
"176.601 500.709 OFFCURVE",
"164 533 CURVE",
"70 508 LINE",
"84 469 OFFCURVE",
"90 421 OFFCURVE",
"90 382 CURVE SMOOTH",
"90 0 LINE",
"196 0 LINE",
"196 344 LINE",
"226 389 OFFCURVE",
"286 437 OFFCURVE",
"346 437 CURVE SMOOTH",
"412 437 OFFCURVE",
"438 397 OFFCURVE",
"438 305 CURVE SMOOTH",
"438 0 LINE",
"544 0 LINE",
"544 344 LINE",
"574 389 OFFCURVE",
"634 437 OFFCURVE",
"694 437 CURVE SMOOTH",
"760 437 OFFCURVE",
"786 397 OFFCURVE",
"786 305 CURVE SMOOTH",
"786 0 LINE",
"892 0 LINE",
"892 305 LINE SMOOTH",
"892 457 OFFCURVE",
"831 537 OFFCURVE",
"712 537 CURVE SMOOTH",
"630.88 537 OFFCURVE",
"574 486 OFFCURVE",
"529 422 CURVE",
"527 422 LINE"
);
}
);
width = 978;
}
);
leftKerningGroup = n;
leftMetricsKey = n;
rightKerningGroup = n;
rightMetricsKey = n;
unicode = 006D;
},
{
glyphname = n;
lastChange = "2018-01-20 10:16:31 +0000";
layers = (
{
anchors = (
{
name = bottom;
position = "{321, 0}";
},
{
name = top;
position = "{326, 525}";
}
);
layerId = "293088C9-8C6F-4F1A-8530-3146F0106214";
paths = (
{
closed = 1;
nodes = (
"183 465 OFFCURVE",
"176.492 500.99 OFFCURVE",
"164 533 CURVE",
"70 508 LINE",
"84 469 OFFCURVE",
"90 421 OFFCURVE",
"90 382 CURVE SMOOTH",
"90 0 LINE",
"196 0 LINE",
"196 344 LINE",
"226 389 OFFCURVE",
"281 437 OFFCURVE",
"351 437 CURVE SMOOTH",
"422 437 OFFCURVE",
"448 397 OFFCURVE",
"448 305 CURVE SMOOTH",
"448 0 LINE",
"554 0 LINE",
"554 305 LINE SMOOTH",
"554 457 OFFCURVE",
"493 537 OFFCURVE",
"369 537 CURVE SMOOTH",
"284.04 537 OFFCURVE",
"231 491 OFFCURVE",
"187 430 CURVE",
"185 431 LINE"
);
}
);
width = 640;
}
);
leftKerningGroup = n;
rightKerningGroup = n;
unicode = 006E;
},
{
glyphname = eng;
lastChange = "2018-01-19 18:27:51 +0000";
layers = (
{
layerId = "293088C9-8C6F-4F1A-8530-3146F0106214";
paths = (
{
closed = 1;
nodes = (
"84 469 OFFCURVE",
"90 421 OFFCURVE",
"90 382 CURVE SMOOTH",
"90 0 LINE",
"196 0 LINE",
"196 344 LINE",
"226 389 OFFCURVE",
"281 437 OFFCURVE",
"351 437 CURVE SMOOTH",
"422 437 OFFCURVE",
"448 397 OFFCURVE",
"448 305 CURVE SMOOTH",
"448 -46 LINE SMOOTH",
"448 -102 OFFCURVE",
"434 -136 OFFCURVE",
"371 -136 CURVE SMOOTH",
"356 -136 OFFCURVE",
"344 -135 OFFCURVE",
"334 -132 CURVE",
"291 -205 LINE",
"310 -215 OFFCURVE",
"343 -222 OFFCURVE",
"380 -222 CURVE SMOOTH",
"498 -222 OFFCURVE",
"554 -148 OFFCURVE",
"554 -41 CURVE SMOOTH",
"554 305 LINE SMOOTH",
"554 457 OFFCURVE",
"493 537 OFFCURVE",
"369 537 CURVE SMOOTH",
"284 537 OFFCURVE",
"231 491 OFFCURVE",
"187 430 CURVE",
"185 431 LINE",
"183 465 OFFCURVE",
"176 501 OFFCURVE",
"164 533 CURVE",
"70 508 LINE"
);
}
);
width = 640;
}
);
leftKerningGroup = n;
leftMetricsKey = n;
rightKerningGroup = n;
rightMetricsKey = n;
unicode = 014B;
},
{
glyphname = o;
lastChange = "2018-01-19 18:12:17 +0000";
layers = (
{
anchors = (
{
name = center;
position = "{313, 275}";
},
{
name = top;
position = "{313, 525}";
}
);
layerId = "293088C9-8C6F-4F1A-8530-3146F0106214";
paths = (
{
closed = 1;
nodes = (
"470 -12 OFFCURVE",
"575 98 OFFCURVE",
"575 263 CURVE SMOOTH",
"575 427 OFFCURVE",
"470 537 OFFCURVE",
"313 537 CURVE SMOOTH",
"155 537 OFFCURVE",
"50 427 OFFCURVE",
"50 263 CURVE SMOOTH",
"50 98 OFFCURVE",
"155 -12 OFFCURVE",
"313 -12 CURVE SMOOTH"
);
},
{
closed = 1;
nodes = (
"216 79 OFFCURVE",
"156 153 OFFCURVE",
"156 263 CURVE SMOOTH",
"156 373 OFFCURVE",
"216 446 OFFCURVE",
"313 446 CURVE SMOOTH",
"410 446 OFFCURVE",
"469 373 OFFCURVE",
"469 263 CURVE SMOOTH",
"469 153 OFFCURVE",
"410 79 OFFCURVE",
"313 79 CURVE SMOOTH"
);
}
);
width = 625;
}
);
leftKerningGroup = o;
rightKerningGroup = o;
unicode = 006F;
},
{
glyphname = oslash;
lastChange = "2018-01-04 14:28:01 +0000";
layers = (
{
anchors = (
{
name = _center;
position = "{318, 275}";
}
);
components = (
{
name = o;
}
);
layerId = "293088C9-8C6F-4F1A-8530-3146F0106214";
paths = (
{
closed = 1;
nodes = (
"207 68 LINE",
"488 448 LINE",
"426 477 LINE",
"152 108 LINE"
);
}
);
width = 635;
}
);
leftKerningGroup = o;
rightKerningGroup = o;
unicode = 00F8;
},
{
glyphname = oe;
lastChange = "2018-01-19 18:26:23 +0000";
layers = (
{
layerId = "293088C9-8C6F-4F1A-8530-3146F0106214";
paths = (
{
closed = 1;
nodes = (
"564 28 OFFCURVE",
"638.491 -12 OFFCURVE",
"741 -12 CURVE SMOOTH",
"855 -12 OFFCURVE",
"904 18 OFFCURVE",
"929 36 CURVE",
"885 112 LINE",
"860 99 OFFCURVE",
"811 79 OFFCURVE",
"747 79 CURVE SMOOTH",
"645.911 79 OFFCURVE",
"578 138 OFFCURVE",
"566 233 CURVE",
"934 233 LINE",
"934 272 LINE SMOOTH",
"934 439 OFFCURVE",
"852 537 OFFCURVE",
"712 537 CURVE SMOOTH",
"624.115 537 OFFCURVE",
"558 498 OFFCURVE",
"519 431 CURVE",
"517 431 LINE",
"476 498 OFFCURVE",
"407.042 537 OFFCURVE",
"313 537 CURVE SMOOTH",
"155 537 OFFCURVE",
"50 427 OFFCURVE",
"50 263 CURVE SMOOTH",
"50 98 OFFCURVE",
"155 -12 OFFCURVE",
"313 -12 CURVE SMOOTH",
"408.676 -12 OFFCURVE",
"478 29 OFFCURVE",
"519 98 CURVE",
"521 98 LINE"
);
},
{
closed = 1;
nodes = (
"156 373 OFFCURVE",
"216 446 OFFCURVE",
"313 446 CURVE SMOOTH",
"410 446 OFFCURVE",
"469 373 OFFCURVE",
"469 263 CURVE SMOOTH",
"469 153 OFFCURVE",
"410 79 OFFCURVE",
"313 79 CURVE SMOOTH",
"216 79 OFFCURVE",
"156 153 OFFCURVE",
"156 263 CURVE SMOOTH"
);
},
{
closed = 1;
nodes = (
"577 392 OFFCURVE",
"632.326 446 OFFCURVE",
"712 446 CURVE SMOOTH",
"788.468 446 OFFCURVE",
"834.103 396.982 OFFCURVE",
"832.031 314.41 CURVE",
"567 302 LINE"
);
}
);
width = 995;
}
);
leftKerningGroup = o;
leftMetricsKey = o;
rightKerningGroup = e;
rightMetricsKey = e;
unicode = 0153;
},
{
glyphname = p;
lastChange = "2018-01-19 18:13:17 +0000";
layers = (
{
anchors = (
{
name = bottom;
position = "{308, 0}";
}
);
layerId = "293088C9-8C6F-4F1A-8530-3146F0106214";
paths = (
{
closed = 1;
nodes = (
"215 9 OFFCURVE",
"255.228 -12 OFFCURVE",
"322 -12 CURVE SMOOTH",
"473 -12 OFFCURVE",
"573 100 OFFCURVE",
"573 267 CURVE SMOOTH",
"573 429 OFFCURVE",
"474 537 OFFCURVE",
"350 537 CURVE SMOOTH",
"272.944 537 OFFCURVE",
"223 500 OFFCURVE",
"187 448 CURVE",
"185 449 LINE",
"183 478 OFFCURVE",
"179.02 506.585 OFFCURVE",
"170 533 CURVE",
"76 508 LINE",
"88 469 OFFCURVE",
"90 421 OFFCURVE",
"90 382 CURVE SMOOTH",
"90 -210 LINE",
"194 -210 LINE",
"194 33 LINE",
"196 34 LINE"
);
},
{
closed = 1;
nodes = (
"194 366 LINE",
"212 398 OFFCURVE",
"254.798 444 OFFCURVE",
"326 444 CURVE SMOOTH",
"411 444 OFFCURVE",
"467 373 OFFCURVE",
"467 267 CURVE SMOOTH",
"467 152 OFFCURVE",
"405 76 OFFCURVE",
"312 76 CURVE SMOOTH",
"246.161 76 OFFCURVE",
"213 94 OFFCURVE",
"194 111 CURVE"
);
}
);
width = 623;
}
);
leftKerningGroup = n;
rightKerningGroup = o;
rightMetricsKey = o;
unicode = 0070;
},
{
glyphname = thorn;
lastChange = "2018-01-19 18:28:51 +0000";
layers = (
{
layerId = "293088C9-8C6F-4F1A-8530-3146F0106214";
paths = (
{
closed = 1;
nodes = (
"218 8 OFFCURVE",
"257.524 -12 OFFCURVE",
"322 -12 CURVE SMOOTH",
"473 -12 OFFCURVE",
"573 100 OFFCURVE",
"573 267 CURVE SMOOTH",
"573 429 OFFCURVE",
"474 537 OFFCURVE",
"350 537 CURVE SMOOTH",
"280.628 537 OFFCURVE",
"233 507 OFFCURVE",
"198 469 CURVE",
"196 470 LINE",
"196 760 LINE",
"90 760 LINE",
"90 -210 LINE",
"196 -210 LINE",
"196 19 LINE",
"198 20 LINE"
);
},
{
closed = 1;
nodes = (
"196 370 LINE",
"215 401 OFFCURVE",
"257.27 444 OFFCURVE",
"326 444 CURVE SMOOTH",
"411 444 OFFCURVE",
"467 373 OFFCURVE",
"467 267 CURVE SMOOTH",
"467 152 OFFCURVE",
"405 76 OFFCURVE",
"312 76 CURVE SMOOTH",
"248.396 76 OFFCURVE",
"215 93 OFFCURVE",
"196 109 CURVE"
);
}
);
width = 623;
}
);
leftKerningGroup = l;
leftMetricsKey = l;
rightKerningGroup = o;
rightMetricsKey = p;
unicode = 00FE;
},
{
glyphname = q;
lastChange = "2018-01-19 18:13:41 +0000";
layers = (
{
layerId = "293088C9-8C6F-4F1A-8530-3146F0106214";
paths = (
{
closed = 1;
nodes = (
"419 -210 LINE",
"523 -210 LINE",
"523 500 LINE",
"491 513 OFFCURVE",
"427 537 OFFCURVE",
"337 537 CURVE SMOOTH",
"151 537 OFFCURVE",
"50 429 OFFCURVE",
"50 267 CURVE SMOOTH",
"50 92 OFFCURVE",
"147 -12 OFFCURVE",
"301 -12 CURVE SMOOTH",
"355.903 -12 OFFCURVE",
"394 5 OFFCURVE",
"417 28 CURVE",
"419 27 LINE"
);
},
{
closed = 1;
nodes = (
"156 376 OFFCURVE",
"213 446 OFFCURVE",
"337 446 CURVE SMOOTH",
"365.516 446 OFFCURVE",
"395 442 OFFCURVE",
"419 436 CURVE",
"419 108 LINE",
"399 93 OFFCURVE",
"369.341 79 OFFCURVE",
"315 79 CURVE SMOOTH",
"215 79 OFFCURVE",
"156 145 OFFCURVE",
"156 267 CURVE SMOOTH"
);
}
);
width = 613;
}
);
leftKerningGroup = o;
leftMetricsKey = o;
rightKerningGroup = u;
unicode = 0071;
},
{
glyphname = r;
lastChange = "2018-01-20 10:17:01 +0000";
layers = (
{
anchors = (
{
name = bottom;
position = "{143, 0}";
},
{
name = top;
position = "{244, 525}";
}
);
layerId = "293088C9-8C6F-4F1A-8530-3146F0106214";
paths = (
{
closed = 1;
nodes = (
"185 450 OFFCURVE",
"179.013 494.53 OFFCURVE",
"164 533 CURVE",
"70 508 LINE",
"84 469 OFFCURVE",
"90 421 OFFCURVE",
"90 382 CURVE SMOOTH",
"90 0 LINE",
"196 0 LINE",
"196 336 LINE",
"236 396 OFFCURVE",
"312.1 437 OFFCURVE",
"374 437 CURVE",
"417 534 LINE",
"405 536 OFFCURVE",
"387 537 OFFCURVE",
"373 537 CURVE SMOOTH",
"297.088 537 OFFCURVE",
"225 473 OFFCURVE",
"188 410 CURVE",
"186 411 LINE"
);
}
);
width = 429;
}
);
leftKerningGroup = n;
leftMetricsKey = n;
rightKerningGroup = r;
unicode = 0072;
},
{
glyphname = s;
lastChange = "2018-01-20 10:17:22 +0000";
layers = (
{
anchors = (
{
name = bottom;
position = "{235, 0}";
},
{
name = top;
position = "{239, 525}";
}
);
layerId = "293088C9-8C6F-4F1A-8530-3146F0106214";
paths = (
{
closed = 1;
nodes = (
"89 7 OFFCURVE",
"154 -12 OFFCURVE",
"228 -12 CURVE",
"352 -12 OFFCURVE",
"429 44 OFFCURVE",
"429 144 CURVE",
"429 307 OFFCURVE",
"160 296 OFFCURVE",
"160 391 CURVE",
"160 425 OFFCURVE",
"187 450 OFFCURVE",
"247 450 CURVE",
"298 450 OFFCURVE",
"331 441 OFFCURVE",
"366 428 CURVE",
"409 503 LINE",
"366 523 OFFCURVE",
"305 537 OFFCURVE",
"249 537 CURVE",
"140 537 OFFCURVE",
"64 480 OFFCURVE",
"64 395 CURVE",
"64 204 OFFCURVE",
"333 243 OFFCURVE",
"333 138 CURVE",
"333 102 OFFCURVE",
"294 77 OFFCURVE",
"230 77 CURVE",
"167 77 OFFCURVE",
"122 94 OFFCURVE",
"86 109 CURVE",
"40 32 LINE"
);
}
);
width = 469;
}
);
leftKerningGroup = s;
rightKerningGroup = s;
unicode = 0073;
},
{
glyphname = germandbls;
lastChange = "2018-01-19 18:29:03 +0000";
layers = (
{
layerId = "293088C9-8C6F-4F1A-8530-3146F0106214";
paths = (
{
closed = 1;
nodes = (
"196 0 LINE",
"196 573 LINE SMOOTH",
"196 636 OFFCURVE",
"244 678 OFFCURVE",
"329 678 CURVE SMOOTH",
"403 678 OFFCURVE",
"454 645 OFFCURVE",
"454 596 CURVE SMOOTH",
"454 528 OFFCURVE",
"317 501 OFFCURVE",
"317 393 CURVE SMOOTH",
"317 222 OFFCURVE",
"536 253 OFFCURVE",
"536 138 CURVE SMOOTH",
"536 102 OFFCURVE",
"507 79 OFFCURVE",
"453 79 CURVE SMOOTH",
"403 79 OFFCURVE",
"365 95 OFFCURVE",
"329 111 CURVE",
"283 34 LINE",
"328 6 OFFCURVE",
"387 -12 OFFCURVE",
"451 -12 CURVE SMOOTH",
"565 -12 OFFCURVE",
"632 44 OFFCURVE",
"632 133 CURVE SMOOTH",
"632 321 OFFCURVE",
"413 304 OFFCURVE",
"413 389 CURVE SMOOTH",
"413 461 OFFCURVE",
"555 485 OFFCURVE",
"555 600 CURVE SMOOTH",
"555 705 OFFCURVE",
"463 772 OFFCURVE",
"329 772 CURVE SMOOTH",
"179 772 OFFCURVE",
"90 695 OFFCURVE",
"90 578 CURVE SMOOTH",
"90 0 LINE"
);
}
);
width = 672;
}
);
leftKerningGroup = l;
leftMetricsKey = l;
rightKerningGroup = s;
rightMetricsKey = s;
unicode = 00DF;
},
{
glyphname = t;
lastChange = "2018-01-20 10:17:54 +0000";
layers = (
{
anchors = (
{
name = bottom;
position = "{253, 0}";
}
);
layerId = "293088C9-8C6F-4F1A-8530-3146F0106214";
paths = (
{
closed = 1;
nodes = (
"125 446 LINE",
"125 159 LINE",
"125 47 OFFCURVE",
"165 -12 OFFCURVE",
"286 -12 CURVE",
"341 -12 OFFCURVE",
"384 -3 OFFCURVE",
"399 7 CURVE",
"378 88 LINE",
"371 85 OFFCURVE",
"339 79 OFFCURVE",
"306 79 CURVE",
"234 79 OFFCURVE",
"229 111 OFFCURVE",
"229 174 CURVE",
"229 446 LINE",
"399 446 LINE",
"399 525 LINE",
"229 525 LINE",
"229 652 LINE",
"125 652 LINE",
"125 525 LINE",
"30 510 LINE",
"30 446 LINE"
);
}
);
width = 432;
}
);
leftKerningGroup = f;
leftMetricsKey = f;
rightKerningGroup = t;
unicode = 0074;
},
{
glyphname = tbar;
lastChange = "2018-01-19 18:29:27 +0000";
layers = (
{
components = (
{
name = t;
}
);
layerId = "293088C9-8C6F-4F1A-8530-3146F0106214";
paths = (
{
closed = 1;
nodes = (
"47 271 LINE",
"368 271 LINE",
"368 338 LINE",
"47 338 LINE"
);
}
);
width = 374;
}
);
leftKerningGroup = f;
rightKerningGroup = f;
unicode = 0167;
},
{
glyphname = tcaron;
lastChange = "2018-01-20 10:17:59 +0000";
layers = (
{
components = (
{
name = t;
}
);
layerId = "293088C9-8C6F-4F1A-8530-3146F0106214";
paths = (
{
closed = 1;
nodes = (
"369 583 LINE",
"429 750 LINE",
"325 750 LINE",
"293 583 LINE"
);
}
);
width = 374;
}
);
leftKerningGroup = f;
rightKerningGroup = f;
unicode = 0165;
},
{
glyphname = u;
lastChange = "2018-01-20 10:18:16 +0000";
layers = (
{
anchors = (
{
name = ogonek;
position = "{529, 0}";
},
{
name = top;
position = "{313, 525}";
}
);
layerId = "293088C9-8C6F-4F1A-8530-3146F0106214";
paths = (
{
closed = 1;
nodes = (
"452 60 OFFCURVE",
"461.428 22.702 OFFCURVE",
"477 -10 CURVE",
"570 15 LINE",
"550 57 OFFCURVE",
"540 109 OFFCURVE",
"540 151 CURVE SMOOTH",
"540 525 LINE",
"434 525 LINE",
"434 181 LINE",
"404 136 OFFCURVE",
"349 88 OFFCURVE",
"284 88 CURVE SMOOTH",
"213 88 OFFCURVE",
"192 128 OFFCURVE",
"192 220 CURVE SMOOTH",
"192 525 LINE",
"86 525 LINE",
"86 220 LINE SMOOTH",
"86 68 OFFCURVE",
"142 -12 OFFCURVE",
"266 -12 CURVE SMOOTH",
"350.614 -12 OFFCURVE",
"404 38 OFFCURVE",
"446 97 CURVE",
"448 96 LINE"
);
}
);
width = 626;
}
);
leftKerningGroup = u;
rightKerningGroup = u;
rightMetricsKey = a;
unicode = 0075;
},
{
glyphname = uogonek;
lastChange = "2018-01-20 09:50:11 +0000";
layers = (
{
components = (
{
name = u;
}
);
layerId = "293088C9-8C6F-4F1A-8530-3146F0106214";
paths = (
{
closed = 1;
nodes = (
"535 -121 OFFCURVE",
"505 -109 OFFCURVE",
"505 -71 CURVE SMOOTH",
"505 -47 OFFCURVE",
"516 -20 OFFCURVE",
"570 15 CURVE",
"511 13 LINE",
"480 0 LINE",
"466 -13 OFFCURVE",
"434 -40 OFFCURVE",
"434 -91 CURVE",
"434 -149 OFFCURVE",
"476 -184 OFFCURVE",
"535 -184 CURVE SMOOTH",
"566 -184 OFFCURVE",
"594 -177 OFFCURVE",
"614 -166 CURVE",
"581 -108 LINE"
);
}
);
width = 626;
}
);
leftKerningGroup = u;
rightKerningGroup = u;
unicode = 0173;
},
{
glyphname = v;
lastChange = "2018-01-19 18:15:38 +0000";
layers = (
{
layerId = "293088C9-8C6F-4F1A-8530-3146F0106214";
paths = (
{
closed = 1;
nodes = (
"208 0 LINE",
"353 0 LINE",
"541 525 LINE",
"440 525 LINE",
"344 259 LINE",
"310 163 OFFCURVE",
"284 70 OFFCURVE",
"284 70 CURVE SMOOTH",
"284 70 OFFCURVE",
"282 70 OFFCURVE",
"282 70 CURVE",
"282 70 OFFCURVE",
"258 163 OFFCURVE",
"224 259 CURVE",
"130 525 LINE",
"25 525 LINE"
);
}
);
width = 566;
}
);
leftKerningGroup = v;
rightKerningGroup = v;
unicode = 0076;
},
{
glyphname = w;
lastChange = "2018-01-20 10:19:03 +0000";
layers = (
{
anchors = (
{
name = bottom;
position = "{465, 0}";
},
{
name = top;
position = "{465, 525}";
}
);
layerId = "293088C9-8C6F-4F1A-8530-3146F0106214";
paths = (
{
closed = 1;
nodes = (
"193 0 LINE",
"338 0 LINE",
"391 161 LINE",
"439 305 OFFCURVE",
"461 427 OFFCURVE",
"461 427 CURVE",
"461 427 OFFCURVE",
"463 427 OFFCURVE",
"463 427 CURVE SMOOTH",
"463 427 OFFCURVE",
"486 305 OFFCURVE",
"532 160 CURVE",
"583 0 LINE",
"728 0 LINE",
"901 525 LINE",
"800 525 LINE",
"713 259 LINE",
"681 162 OFFCURVE",
"659 70 OFFCURVE",
"659 70 CURVE SMOOTH",
"659 70 OFFCURVE",
"657 70 OFFCURVE",
"657 70 CURVE",
"657 70 OFFCURVE",
"636 162 OFFCURVE",
"605 259 CURVE",
"520 525 LINE",
"410 525 LINE",
"323 259 LINE",
"291 162 OFFCURVE",
"269 70 OFFCURVE",
"269 70 CURVE SMOOTH",
"269 70 OFFCURVE",
"267 70 OFFCURVE",
"267 70 CURVE",
"267 70 OFFCURVE",
"246 162 OFFCURVE",
"215 259 CURVE",
"130 525 LINE",
"25 525 LINE"
);
}
);
width = 926;
}
);
leftKerningGroup = v;
leftMetricsKey = v;
rightKerningGroup = v;
rightMetricsKey = v;
unicode = 0077;
},
{
glyphname = x;
lastChange = "2018-01-19 18:17:48 +0000";
layers = (
{
layerId = "293088C9-8C6F-4F1A-8530-3146F0106214";
paths = (
{
closed = 1;
nodes = (
"137 0 LINE",
"209 101 LINE SMOOTH",
"242 147 OFFCURVE",
"276 209 OFFCURVE",
"276 209 CURVE SMOOTH",
"276 209 OFFCURVE",
"278 209 OFFCURVE",
"278 209 CURVE SMOOTH",
"278 209 OFFCURVE",
"312 147 OFFCURVE",
"345 101 CURVE SMOOTH",
"417 0 LINE",
"533 0 LINE",
"341 270 LINE",
"522 525 LINE",
"413 525 LINE",
"353 441 LINE SMOOTH",
"316 390 OFFCURVE",
"286 333 OFFCURVE",
"286 333 CURVE SMOOTH",
"286 333 OFFCURVE",
"284 333 OFFCURVE",
"284 333 CURVE SMOOTH",
"284 333 OFFCURVE",
"251 390 OFFCURVE",
"215 438 CURVE",
"157 525 LINE",
"40 525 LINE",
"221 272 LINE",
"27 0 LINE"
);
}
);
width = 552;
}
);
leftKerningGroup = x;
rightKerningGroup = x;
unicode = 0078;
},
{
glyphname = y;
lastChange = "2018-01-19 18:18:36 +0000";
layers = (
{
anchors = (
{
name = top;
position = "{285, 525}";
}
);
layerId = "293088C9-8C6F-4F1A-8530-3146F0106214";
paths = (
{
closed = 1;
nodes = (
"284 70 OFFCURVE",
"310 163 OFFCURVE",
"344 259 CURVE SMOOTH",
"440 525 LINE",
"541 525 LINE",
"353 0 LINE",
"317 -93 LINE SMOOTH",
"285 -176 OFFCURVE",
"224 -222 OFFCURVE",
"148 -222 CURVE SMOOTH",
"112 -222 OFFCURVE",
"67 -212 OFFCURVE",
"49 -203 CURVE",
"92 -128 LINE",
"101 -131 OFFCURVE",
"120 -136 OFFCURVE",
"139 -136 CURVE SMOOTH",
"197 -136 OFFCURVE",
"221 -110 OFFCURVE",
"242 -58 CURVE SMOOTH",
"254 -29 OFFCURVE",
"268 2 OFFCURVE",
"268 2 CURVE",
"268 2 OFFCURVE",
"245 0 OFFCURVE",
"208 0 CURVE",
"25 525 LINE",
"130 525 LINE",
"224 259 LINE SMOOTH",
"258 163 OFFCURVE",
"282 70 OFFCURVE",
"282 70 CURVE",
"284 70 LINE"
);
}
);
width = 566;
}
);
leftKerningGroup = v;
leftMetricsKey = v;
rightKerningGroup = v;
rightMetricsKey = v;
unicode = 0079;
},
{
glyphname = z;
lastChange = "2018-01-19 18:19:59 +0000";
layers = (
{
anchors = (
{
name = top;
position = "{265, 525}";
}
);
layerId = "293088C9-8C6F-4F1A-8530-3146F0106214";
paths = (
{
closed = 1;
nodes = (
"463 0 LINE",
"463 84 LINE",
"320 84 LINE",
"232 84 OFFCURVE",
"154 80 OFFCURVE",
"154 80 CURVE",
"153 82 OFFCURVE",
"153 82 OFFCURVE",
"153 82 CURVE",
"153 82 OFFCURVE",
"212 137 OFFCURVE",
"272 212 CURVE",
"456 444 LINE",
"456 525 LINE",
"70 525 LINE",
"70 441 LINE",
"188 441 LINE",
"275 441 OFFCURVE",
"355 445 OFFCURVE",
"355 445 CURVE",
"356 443 OFFCURVE",
"356 443 OFFCURVE",
"356 443 CURVE",
"356 443 OFFCURVE",
"303 397 OFFCURVE",
"243 322 CURVE",
"48 81 LINE",
"48 0 LINE"
);
}
);
width = 515;
}
);
leftKerningGroup = z;
rightKerningGroup = z;
unicode = 007A;
},
{
glyphname = f_b.liga;
lastChange = "2018-01-20 15:40:14 +0000";
layers = (
{
layerId = "293088C9-8C6F-4F1A-8530-3146F0106214";
paths = (
{
closed = 1;
nodes = (
"600 432 OFFCURVE",
"630 446 OFFCURVE",
"684 446 CURVE SMOOTH",
"784 446 OFFCURVE",
"843 380 OFFCURVE",
"843 267 CURVE SMOOTH",
"843 149 OFFCURVE",
"786 79 OFFCURVE",
"662 79 CURVE SMOOTH",
"627 79 OFFCURVE",
"606 82 OFFCURVE",
"580 91 CURVE",
"580 417 LINE"
);
},
{
closed = 1;
nodes = (
"125 446 LINE",
"125 0 LINE",
"229 0 LINE",
"229 446 LINE",
"360 446 LINE",
"360 525 LINE",
"229 525 LINE",
"229 576 LINE SMOOTH",
"229 643 OFFCURVE",
"264 683 OFFCURVE",
"363 683 CURVE SMOOTH",
"428.126 683 OFFCURVE",
"461 675 OFFCURVE",
"476 670 CURVE",
"476 18 LINE",
"508 5 OFFCURVE",
"572 -12 OFFCURVE",
"662 -12 CURVE SMOOTH",
"848 -12 OFFCURVE",
"949 96 OFFCURVE",
"949 267 CURVE SMOOTH",
"949 433 OFFCURVE",
"852 537 OFFCURVE",
"698 537 CURVE SMOOTH",
"643 537 OFFCURVE",
"605 520 OFFCURVE",
"582 497 CURVE",
"580 498 LINE",
"580 760 LINE",
"476 760 LINE",
"447 767 OFFCURVE",
"407.076 772 OFFCURVE",
"354 772 CURVE SMOOTH",
"204 772 OFFCURVE",
"125 686 OFFCURVE",
"125 571 CURVE SMOOTH",
"125 525 LINE",
"30 510 LINE",
"30 446 LINE"
);
}
);
width = 999;
}
);
leftKerningGroup = f;
leftMetricsKey = f;
rightKerningGroup = o;
rightMetricsKey = b;
},
{
glyphname = f_f.liga;
lastChange = "2018-01-20 15:49:35 +0000";
layers = (
{
layerId = "293088C9-8C6F-4F1A-8530-3146F0106214";
paths = (
{
closed = 1;
nodes = (
"125 446 LINE",
"125 0 LINE",
"229 0 LINE",
"229 446 LINE",
"474 446 LINE",
"474 0 LINE",
"578 0 LINE",
"578 446 LINE",
"709 446 LINE",
"709 525 LINE",
"578 525 LINE",
"578 576 LINE SMOOTH",
"578 643 OFFCURVE",
"613 683 OFFCURVE",
"687 683 CURVE SMOOTH",
"731 683 OFFCURVE",
"753 671 OFFCURVE",
"762 667 CURVE",
"806 742 LINE",
"783 754 OFFCURVE",
"740 772 OFFCURVE",
"678 772 CURVE SMOOTH",
"622.451 772 OFFCURVE",
"576 755 OFFCURVE",
"542 726 CURVE",
"508 746 OFFCURVE",
"455.966 772 OFFCURVE",
"366 772 CURVE SMOOTH",
"204 772 OFFCURVE",
"125 686 OFFCURVE",
"125 571 CURVE SMOOTH",
"125 525 LINE",
"30 510 LINE",
"30 446 LINE"
);
},
{
closed = 1;
nodes = (
"480 630 OFFCURVE",
"474 601.853 OFFCURVE",
"474 571 CURVE SMOOTH",
"474 525 LINE",
"229 525 LINE",
"229 576 LINE SMOOTH",
"229 643 OFFCURVE",
"264 683 OFFCURVE",
"375 683 CURVE SMOOTH",
"435.114 683 OFFCURVE",
"468 670 OFFCURVE",
"489 657 CURVE",
"490 655 LINE"
);
}
);
width = 741;
}
);
leftKerningGroup = f;
leftMetricsKey = f;
rightKerningGroup = f;
rightMetricsKey = f;
},
{
glyphname = f_f_i.liga;
lastChange = "2018-01-20 15:49:50 +0000";
layers = (
{
layerId = "293088C9-8C6F-4F1A-8530-3146F0106214";
paths = (
{
closed = 1;
nodes = (
"125 446 LINE",
"125 0 LINE",
"229 0 LINE",
"229 446 LINE",
"477 446 LINE",
"477 0 LINE",
"581 0 LINE",
"581 446 LINE",
"828 446 LINE",
"828 0 LINE",
"934 0 LINE",
"934 525 LINE",
"581 525 LINE",
"581 576 LINE SMOOTH",
"581 643 OFFCURVE",
"616 683 OFFCURVE",
"715 683 CURVE SMOOTH",
"794 683 OFFCURVE",
"826 671 OFFCURVE",
"835 667 CURVE",
"879 742 LINE",
"856 754 OFFCURVE",
"803 772 OFFCURVE",
"706 772 CURVE SMOOTH",
"637.497 772 OFFCURVE",
"584 754 OFFCURVE",
"546 724 CURVE",
"512 743 OFFCURVE",
"459.762 772 OFFCURVE",
"366 772 CURVE SMOOTH",
"204 772 OFFCURVE",
"125 686 OFFCURVE",
"125 571 CURVE SMOOTH",
"125 525 LINE",
"30 510 LINE",
"30 446 LINE"
);
},
{
closed = 1;
nodes = (
"482 628 OFFCURVE",
"477 601.194 OFFCURVE",
"477 571 CURVE SMOOTH",
"477 525 LINE",
"229 525 LINE",
"229 576 LINE SMOOTH",
"229 643 OFFCURVE",
"264 683 OFFCURVE",
"375 683 CURVE SMOOTH",
"437.77 683 OFFCURVE",
"471 668 OFFCURVE",
"492 656 CURVE",
"493 654 LINE"
);
}
);
width = 1024;
}
);
leftKerningGroup = f;
leftMetricsKey = f;
rightKerningGroup = i;
},
{
glyphname = f_f_j.liga;
lastChange = "2018-01-20 15:50:03 +0000";
layers = (
{
layerId = "293088C9-8C6F-4F1A-8530-3146F0106214";
paths = (
{
closed = 1;
nodes = (
"482 628 OFFCURVE",
"477 601.194 OFFCURVE",
"477 571 CURVE SMOOTH",
"477 525 LINE",
"229 525 LINE",
"229 576 LINE SMOOTH",
"229 643 OFFCURVE",
"264 683 OFFCURVE",
"375 683 CURVE SMOOTH",
"437.77 683 OFFCURVE",
"471 668 OFFCURVE",
"492 656 CURVE",
"493 654 LINE"
);
},
{
closed = 1;
nodes = (
"125 446 LINE",
"125 0 LINE",
"229 0 LINE",
"229 446 LINE",
"477 446 LINE",
"477 0 LINE",
"581 0 LINE",
"581 446 LINE",
"828 446 LINE",
"828 -46 LINE SMOOTH",
"828 -102 OFFCURVE",
"814 -136 OFFCURVE",
"751 -136 CURVE SMOOTH",
"736 -136 OFFCURVE",
"724 -135 OFFCURVE",
"714 -132 CURVE",
"671 -205 LINE",
"690 -215 OFFCURVE",
"723 -222 OFFCURVE",
"760 -222 CURVE SMOOTH",
"878 -222 OFFCURVE",
"934 -148 OFFCURVE",
"934 -41 CURVE SMOOTH",
"934 525 LINE",
"581 525 LINE",
"581 576 LINE SMOOTH",
"581 643 OFFCURVE",
"616 683 OFFCURVE",
"715 683 CURVE SMOOTH",
"794 683 OFFCURVE",
"826 671 OFFCURVE",
"835 667 CURVE",
"879 742 LINE",
"856 754 OFFCURVE",
"803 772 OFFCURVE",
"706 772 CURVE SMOOTH",
"637 772 OFFCURVE",
"584 754 OFFCURVE",
"546 724 CURVE",
"512 743 OFFCURVE",
"460 772 OFFCURVE",
"366 772 CURVE SMOOTH",
"204 772 OFFCURVE",
"125 686 OFFCURVE",
"125 571 CURVE SMOOTH",
"125 525 LINE",
"30 510 LINE",
"30 446 LINE"
);
}
);
width = 1018;
}
);
leftMetricsKey = f;
rightMetricsKey = j;
},
{
glyphname = f_f_l.liga;
lastChange = "2018-01-20 15:50:19 +0000";
layers = (
{
layerId = "293088C9-8C6F-4F1A-8530-3146F0106214";
paths = (
{
closed = 1;
nodes = (
"125 446 LINE",
"125 0 LINE",
"229 0 LINE",
"229 446 LINE",
"477 446 LINE",
"477 0 LINE",
"581 0 LINE",
"581 446 LINE",
"712 446 LINE",
"712 525 LINE",
"581 525 LINE",
"581 576 LINE SMOOTH",
"581 643 OFFCURVE",
"616 683 OFFCURVE",
"715 683 CURVE SMOOTH",
"780 683 OFFCURVE",
"813 675 OFFCURVE",
"828 670 CURVE",
"828 129 LINE SMOOTH",
"828 56 OFFCURVE",
"853 -12 OFFCURVE",
"958 -12 CURVE SMOOTH",
"1001 -12 OFFCURVE",
"1023 -7 OFFCURVE",
"1035 -2 CURVE",
"1015 73 LINE",
"1011 72 OFFCURVE",
"995 71 OFFCURVE",
"981 71 CURVE SMOOTH",
"951 71 OFFCURVE",
"934 83 OFFCURVE",
"934 129 CURVE SMOOTH",
"934 760 LINE",
"828 760 LINE",
"799 767 OFFCURVE",
"759 772 OFFCURVE",
"706 772 CURVE SMOOTH",
"638 772 OFFCURVE",
"584 754 OFFCURVE",
"546 724 CURVE",
"512 743 OFFCURVE",
"460 772 OFFCURVE",
"366 772 CURVE SMOOTH",
"204 772 OFFCURVE",
"125 686 OFFCURVE",
"125 571 CURVE SMOOTH",
"125 525 LINE",
"30 510 LINE",
"30 446 LINE"
);
},
{
closed = 1;
nodes = (
"485 634 OFFCURVE",
"477 604 OFFCURVE",
"477 571 CURVE SMOOTH",
"477 525 LINE",
"229 525 LINE",
"229 576 LINE SMOOTH",
"229 643 OFFCURVE",
"264 683 OFFCURVE",
"375 683 CURVE SMOOTH",
"438 683 OFFCURVE",
"471 668 OFFCURVE",
"492 656 CURVE",
"493 654 LINE"
);
}
);
width = 1055;
}
);
leftMetricsKey = f;
rightMetricsKey = l;
},
{
glyphname = f_h.liga;
lastChange = "2018-01-19 18:22:06 +0000";
layers = (
{
layerId = "293088C9-8C6F-4F1A-8530-3146F0106214";
paths = (
{
closed = 1;
nodes = (
"125 446 LINE",
"125 0 LINE",
"229 0 LINE",
"229 446 LINE",
"360 446 LINE",
"360 525 LINE",
"229 525 LINE",
"229 576 LINE SMOOTH",
"229 643 OFFCURVE",
"264 683 OFFCURVE",
"363 683 CURVE SMOOTH",
"428.126 683 OFFCURVE",
"461 675 OFFCURVE",
"476 670 CURVE",
"476 0 LINE",
"581 0 LINE",
"581 344 LINE",
"611 389 OFFCURVE",
"667 437 OFFCURVE",
"737 437 CURVE SMOOTH",
"808 437 OFFCURVE",
"834 397 OFFCURVE",
"834 305 CURVE SMOOTH",
"834 0 LINE",
"940 0 LINE",
"940 305 LINE SMOOTH",
"940 457 OFFCURVE",
"879 537 OFFCURVE",
"755 537 CURVE SMOOTH",
"676 537 OFFCURVE",
"625 497 OFFCURVE",
"583 443 CURVE",
"581 444 LINE",
"581 760 LINE",
"476 760 LINE",
"447 767 OFFCURVE",
"407.076 772 OFFCURVE",
"354 772 CURVE SMOOTH",
"204 772 OFFCURVE",
"125 686 OFFCURVE",
"125 571 CURVE SMOOTH",
"125 525 LINE",
"30 510 LINE",
"30 446 LINE"
);
}
);
width = 1026;
}
);
leftKerningGroup = f;
leftMetricsKey = f;
rightKerningGroup = n;
rightMetricsKey = h;
},
{
glyphname = f_j.liga;
lastChange = "2018-01-19 18:22:15 +0000";
layers = (
{
layerId = "293088C9-8C6F-4F1A-8530-3146F0106214";
paths = (
{
closed = 1;
nodes = (
"125 446 LINE",
"125 0 LINE",
"229 0 LINE",
"229 446 LINE",
"476 446 LINE",
"476 -46 LINE SMOOTH",
"476 -102 OFFCURVE",
"462 -136 OFFCURVE",
"399 -136 CURVE SMOOTH",
"384 -136 OFFCURVE",
"372 -135 OFFCURVE",
"362 -132 CURVE",
"319 -205 LINE",
"338 -215 OFFCURVE",
"371 -222 OFFCURVE",
"408 -222 CURVE SMOOTH",
"526 -222 OFFCURVE",
"582 -148 OFFCURVE",
"582 -41 CURVE SMOOTH",
"582 525 LINE",
"229 525 LINE",
"229 576 LINE SMOOTH",
"229 643 OFFCURVE",
"264 683 OFFCURVE",
"363 683 CURVE SMOOTH",
"442 683 OFFCURVE",
"474 671 OFFCURVE",
"483 667 CURVE",
"527 742 LINE",
"504 754 OFFCURVE",
"451 772 OFFCURVE",
"354 772 CURVE SMOOTH",
"204 772 OFFCURVE",
"125 686 OFFCURVE",
"125 571 CURVE SMOOTH",
"125 525 LINE",
"30 510 LINE",
"30 446 LINE"
);
}
);
width = 672;
}
);
leftKerningGroup = f;
leftMetricsKey = f;
rightKerningGroup = i;
},
{
glyphname = f_k.liga;
lastChange = "2018-01-19 18:22:24 +0000";
layers = (
{
layerId = "293088C9-8C6F-4F1A-8530-3146F0106214";
paths = (
{
closed = 1;
nodes = (
"726 106 LINE SMOOTH",
"773 44 OFFCURVE",
"820 7 OFFCURVE",
"898 -16 CURVE",
"935 64 LINE",
"873 86 OFFCURVE",
"831 121 OFFCURVE",
"788 175 CURVE",
"704 290 LINE",
"911 525 LINE",
"795 525 LINE",
"588 288 LINE"
);
},
{
closed = 1;
nodes = (
"125 446 LINE",
"125 0 LINE",
"229 0 LINE",
"229 446 LINE",
"360 446 LINE",
"360 525 LINE",
"229 525 LINE",
"229 576 LINE SMOOTH",
"229 643 OFFCURVE",
"264 683 OFFCURVE",
"363 683 CURVE SMOOTH",
"428.126 683 OFFCURVE",
"461 675 OFFCURVE",
"476 670 CURVE",
"476 0 LINE",
"579 1 LINE",
"579 761 LINE",
"476 760 LINE",
"447 767 OFFCURVE",
"407.076 772 OFFCURVE",
"354 772 CURVE SMOOTH",
"204 772 OFFCURVE",
"125 686 OFFCURVE",
"125 571 CURVE SMOOTH",
"125 525 LINE",
"30 510 LINE",
"30 446 LINE"
);
}
);
width = 955;
}
);
leftKerningGroup = f;
leftMetricsKey = f;
rightKerningGroup = x;
rightMetricsKey = k;
},
{
glyphname = f_l.liga;
lastChange = "2018-01-20 15:39:47 +0000";
layers = (
{
layerId = "293088C9-8C6F-4F1A-8530-3146F0106214";
paths = (
{
closed = 1;
nodes = (
"125 446 LINE",
"125 0 LINE",
"229 0 LINE",
"229 446 LINE",
"360 446 LINE",
"360 525 LINE",
"229 525 LINE",
"229 576 LINE SMOOTH",
"229 643 OFFCURVE",
"264 683 OFFCURVE",
"363 683 CURVE SMOOTH",
"428.126 683 OFFCURVE",
"461 675 OFFCURVE",
"476 670 CURVE",
"476 129 LINE SMOOTH",
"476 56 OFFCURVE",
"501 -12 OFFCURVE",
"606 -12 CURVE SMOOTH",
"649 -12 OFFCURVE",
"671 -7 OFFCURVE",
"683 -2 CURVE",
"663 73 LINE",
"659 72 OFFCURVE",
"643 71 OFFCURVE",
"629 71 CURVE SMOOTH",
"599 71 OFFCURVE",
"582 83 OFFCURVE",
"582 129 CURVE SMOOTH",
"582 760 LINE",
"476 760 LINE",
"447 767 OFFCURVE",
"407.076 772 OFFCURVE",
"354 772 CURVE SMOOTH",
"204 772 OFFCURVE",
"125 686 OFFCURVE",
"125 571 CURVE SMOOTH",
"125 525 LINE",
"30 510 LINE",
"30 446 LINE"
);
}
);
width = 703;
}
);
leftKerningGroup = f;
leftMetricsKey = f;
rightKerningGroup = l;
rightMetricsKey = l;
},
{
glyphname = fi.liga;
lastChange = "2018-01-19 18:22:36 +0000";
layers = (
{
layerId = "293088C9-8C6F-4F1A-8530-3146F0106214";
paths = (
{
closed = 1;
nodes = (
"125 446 LINE",
"125 0 LINE",
"229 0 LINE",
"229 446 LINE",
"476 446 LINE",
"476 0 LINE",
"582 0 LINE",
"582 525 LINE",
"229 525 LINE",
"229 576 LINE SMOOTH",
"229 643 OFFCURVE",
"264 683 OFFCURVE",
"363 683 CURVE SMOOTH",
"442 683 OFFCURVE",
"474 671 OFFCURVE",
"483 667 CURVE",
"527 742 LINE",
"504 754 OFFCURVE",
"451 772 OFFCURVE",
"354 772 CURVE SMOOTH",
"204 772 OFFCURVE",
"125 686 OFFCURVE",
"125 571 CURVE SMOOTH",
"125 525 LINE",
"30 510 LINE",
"30 446 LINE"
);
}
);
width = 672;
}
);
leftKerningGroup = f;
leftMetricsKey = f;
rightKerningGroup = i;
},
{
glyphname = t_t.liga;
lastChange = "2018-01-19 18:22:43 +0000";
layers = (
{
layerId = "293088C9-8C6F-4F1A-8530-3146F0106214";
paths = (
{
closed = 1;
nodes = (
"125 446 LINE",
"125 159 LINE SMOOTH",
"125 47 OFFCURVE",
"165 -12 OFFCURVE",
"286 -12 CURVE SMOOTH",
"341 -12 OFFCURVE",
"384 -3 OFFCURVE",
"399 7 CURVE",
"378 88 LINE",
"371 85 OFFCURVE",
"339 79 OFFCURVE",
"306 79 CURVE SMOOTH",
"234 79 OFFCURVE",
"229 111 OFFCURVE",
"229 174 CURVE SMOOTH",
"229 446 LINE",
"490 446 LINE",
"490 159 LINE SMOOTH",
"490 47 OFFCURVE",
"530 -12 OFFCURVE",
"651 -12 CURVE SMOOTH",
"706 -12 OFFCURVE",
"749 -3 OFFCURVE",
"764 7 CURVE",
"743 88 LINE",
"736 85 OFFCURVE",
"704 79 OFFCURVE",
"671 79 CURVE SMOOTH",
"599 79 OFFCURVE",
"594 111 OFFCURVE",
"594 174 CURVE SMOOTH",
"594 446 LINE",
"764 446 LINE",
"764 525 LINE",
"594 525 LINE",
"594 652 LINE",
"490 652 LINE",
"490 525 LINE",
"229 525 LINE",
"229 652 LINE",
"125 652 LINE",
"125 525 LINE",
"30 510 LINE",
"30 446 LINE"
);
}
);
width = 797;
}
);
leftMetricsKey = t;
rightMetricsKey = t;
},
{
glyphname = zero;
lastChange = "2018-01-15 19:45:34 +0000";
layers = (
{
layerId = "293088C9-8C6F-4F1A-8530-3146F0106214";
paths = (
{
closed = 1;
nodes = (
"483 -12 OFFCURVE",
"581 90 OFFCURVE",
"581 263 CURVE SMOOTH",
"581 435 OFFCURVE",
"483 537 OFFCURVE",
"318 537 CURVE SMOOTH",
"153 537 OFFCURVE",
"55 435 OFFCURVE",
"55 263 CURVE SMOOTH",
"55 90 OFFCURVE",
"153 -12 OFFCURVE",
"318 -12 CURVE SMOOTH"
);
},
{
closed = 1;
nodes = (
"219 79 OFFCURVE",
"161 150 OFFCURVE",
"161 263 CURVE SMOOTH",
"161 375 OFFCURVE",
"219 446 OFFCURVE",
"318 446 CURVE SMOOTH",
"417 446 OFFCURVE",
"475 375 OFFCURVE",
"475 263 CURVE SMOOTH",
"475 150 OFFCURVE",
"417 79 OFFCURVE",
"318 79 CURVE SMOOTH"
);
}
);
width = 636;
}
);
leftKerningGroup = zero;
rightKerningGroup = zero;
unicode = 0030;
},
{
glyphname = one;
lastChange = "2018-01-20 10:27:50 +0000";
layers = (
{
layerId = "293088C9-8C6F-4F1A-8530-3146F0106214";
paths = (
{
closed = 1;
nodes = (
"178 445 LINE",
"178 0 LINE",
"284 0 LINE",
"284 530 LINE",
"20 520 LINE",
"20 445 LINE"
);
}
);
width = 379;
}
);
leftKerningGroup = one;
unicode = 0031;
},
{
glyphname = two;
lastChange = "2018-01-20 10:28:13 +0000";
layers = (
{
layerId = "293088C9-8C6F-4F1A-8530-3146F0106214";
paths = (
{
closed = 1;
nodes = (
"53 90 LINE",
"249 246 OFFCURVE",
"358 304 OFFCURVE",
"358 375 CURVE SMOOTH",
"358 420 OFFCURVE",
"319 446 OFFCURVE",
"252 446 CURVE SMOOTH",
"210 446 OFFCURVE",
"152 432 OFFCURVE",
"105 415 CURVE",
"60 494 LINE",
"110 519 OFFCURVE",
"183 537 OFFCURVE",
"249 537 CURVE SMOOTH",
"387 537 OFFCURVE",
"464 481 OFFCURVE",
"464 388 CURVE SMOOTH",
"464 279 OFFCURVE",
"350 214 OFFCURVE",
"181 86 CURVE",
"182 84 LINE",
"478 84 LINE",
"478 0 LINE",
"53 0 LINE"
);
}
);
width = 530;
}
);
leftKerningGroup = two;
rightKerningGroup = two;
unicode = 0032;
},
{
glyphname = three;
lastChange = "2018-01-20 10:28:33 +0000";
layers = (
{
layerId = "293088C9-8C6F-4F1A-8530-3146F0106214";
paths = (
{
closed = 1;
nodes = (
"381 183 OFFCURVE",
"461 133 OFFCURVE",
"461 22 CURVE SMOOTH",
"461 -96 OFFCURVE",
"365 -162 OFFCURVE",
"212 -162 CURVE SMOOTH",
"125 -162 OFFCURVE",
"58 -145 OFFCURVE",
"15 -119 CURVE",
"58 -44 LINE",
"97 -63 OFFCURVE",
"152 -71 OFFCURVE",
"210 -71 CURVE SMOOTH",
"298 -71 OFFCURVE",
"355 -40 OFFCURVE",
"355 34 CURVE SMOOTH",
"355 114 OFFCURVE",
"274 157 OFFCURVE",
"105 157 CURVE",
"105 241 LINE",
"253 241 OFFCURVE",
"335 287 OFFCURVE",
"335 362 CURVE SMOOTH",
"335 417 OFFCURVE",
"293 446 OFFCURVE",
"225 446 CURVE SMOOTH",
"178 446 OFFCURVE",
"120 433 OFFCURVE",
"77 416 CURVE",
"33 493 LINE",
"81 518 OFFCURVE",
"153 537 OFFCURVE",
"222 537 CURVE SMOOTH",
"347 537 OFFCURVE",
"441 487 OFFCURVE",
"441 379 CURVE SMOOTH",
"441 298 OFFCURVE",
"381 241 OFFCURVE",
"308 208 CURVE",
"308 206 LINE"
);
}
);
width = 511;
}
);
leftKerningGroup = three;
rightKerningGroup = three;
unicode = 0033;
},
{
glyphname = four;
lastChange = "2018-01-20 10:29:32 +0000";
layers = (
{
layerId = "293088C9-8C6F-4F1A-8530-3146F0106214";
paths = (
{
closed = 1;
nodes = (
"351 0 LINE",
"351 -150 LINE",
"452 -150 LINE",
"452 0 LINE",
"542 0 LINE",
"542 87 LINE",
"452 87 LINE",
"452 525 LINE",
"325 525 LINE",
"36 85 LINE",
"36 0 LINE"
);
},
{
closed = 1;
nodes = (
"349 420 LINE",
"351 419 LINE",
"351 87 LINE",
"136 87 LINE",
"135 89 LINE"
);
}
);
width = 572;
}
);
leftKerningGroup = four;
rightKerningGroup = four;
unicode = 0034;
},
{
glyphname = five;
lastChange = "2018-01-20 10:29:49 +0000";
layers = (
{
layerId = "293088C9-8C6F-4F1A-8530-3146F0106214";
paths = (
{
closed = 1;
nodes = (
"93 -49 LINE",
"132 -62 OFFCURVE",
"177 -71 OFFCURVE",
"225 -71 CURVE SMOOTH",
"336 -71 OFFCURVE",
"394 -28 OFFCURVE",
"394 54 CURVE SMOOTH",
"394 134 OFFCURVE",
"328 175 OFFCURVE",
"201 175 CURVE SMOOTH",
"177 175 OFFCURVE",
"139 174 OFFCURVE",
"91 170 CURVE",
"91 525 LINE",
"459 525 LINE",
"459 439 LINE",
"189 439 LINE",
"189 259 LINE",
"204 260 OFFCURVE",
"218 261 OFFCURVE",
"236 261 CURVE SMOOTH",
"388 261 OFFCURVE",
"498 189 OFFCURVE",
"498 54 CURVE SMOOTH",
"498 -88 OFFCURVE",
"405 -162 OFFCURVE",
"227 -162 CURVE SMOOTH",
"150 -162 OFFCURVE",
"93 -146 OFFCURVE",
"50 -124 CURVE"
);
}
);
width = 548;
}
);
rightKerningGroup = five;
unicode = 0035;
},
{
glyphname = six;
lastChange = "2018-01-20 10:30:15 +0000";
layers = (
{
layerId = "293088C9-8C6F-4F1A-8530-3146F0106214";
paths = (
{
closed = 1;
nodes = (
"147 299 OFFCURVE",
"201 354 OFFCURVE",
"283 354 CURVE",
"365 354 OFFCURVE",
"419 299 OFFCURVE",
"419 217 CURVE",
"419 135 OFFCURVE",
"365 81 OFFCURVE",
"283 81 CURVE",
"201 81 OFFCURVE",
"147 135 OFFCURVE",
"147 217 CURVE"
);
},
{
closed = 1;
nodes = (
"206 517 OFFCURVE",
"300.428 597.822 OFFCURVE",
"437 634 CURVE",
"391 713 LINE",
"177 656 OFFCURVE",
"50 470 OFFCURVE",
"50 254 CURVE SMOOTH",
"50 89 OFFCURVE",
"145 -12 OFFCURVE",
"283 -12 CURVE SMOOTH",
"422 -12 OFFCURVE",
"517 80 OFFCURVE",
"517 217 CURVE SMOOTH",
"517 354 OFFCURVE",
"428 443 OFFCURVE",
"298 443 CURVE SMOOTH",
"248.665 443 OFFCURVE",
"201 424 OFFCURVE",
"164 397 CURVE",
"162 398 LINE"
);
}
);
width = 567;
}
);
leftKerningGroup = six;
rightKerningGroup = six;
unicode = 0036;
},
{
glyphname = seven;
lastChange = "2018-01-20 10:30:35 +0000";
layers = (
{
layerId = "293088C9-8C6F-4F1A-8530-3146F0106214";
paths = (
{
closed = 1;
nodes = (
"353 441 LINE",
"354 439 LINE",
"67 -112 LINE",
"153 -162 LINE",
"455 430 LINE",
"455 525 LINE",
"20 525 LINE",
"20 441 LINE"
);
}
);
width = 500;
}
);
leftKerningGroup = seven;
rightKerningGroup = seven;
unicode = 0037;
},
{
glyphname = eight;
lastChange = "2018-01-20 10:31:32 +0000";
layers = (
{
layerId = "293088C9-8C6F-4F1A-8530-3146F0106214";
paths = (
{
closed = 1;
nodes = (
"148 125 OFFCURVE",
"202 79 OFFCURVE",
"284 80 CURVE SMOOTH",
"366 81 OFFCURVE",
"420 127 OFFCURVE",
"420 192 CURVE SMOOTH",
"420 261 OFFCURVE",
"366 316 OFFCURVE",
"258 328 CURVE",
"184 301 OFFCURVE",
"148 248 OFFCURVE",
"148 192 CURVE SMOOTH"
);
},
{
closed = 1;
nodes = (
"165 460 OFFCURVE",
"212 414 OFFCURVE",
"305 404 CURVE",
"370 427 OFFCURVE",
"403 473 OFFCURVE",
"403 526 CURVE SMOOTH",
"403 584 OFFCURVE",
"355 622 OFFCURVE",
"284 622 CURVE SMOOTH",
"213 622 OFFCURVE",
"165 584 OFFCURVE",
"165 526 CURVE SMOOTH"
);
},
{
closed = 1;
nodes = (
"395 368 LINE",
"464 334 OFFCURVE",
"518 275 OFFCURVE",
"518 187 CURVE SMOOTH",
"518 69 OFFCURVE",
"425 -12 OFFCURVE",
"286 -12 CURVE SMOOTH",
"144 -12 OFFCURVE",
"50 69 OFFCURVE",
"50 187 CURVE SMOOTH",
"50 275 OFFCURVE",
"101 334 OFFCURVE",
"173 368 CURVE",
"173 370 LINE",
"111 404 OFFCURVE",
"69 454 OFFCURVE",
"69 531 CURVE SMOOTH",
"69 640 OFFCURVE",
"156 712 OFFCURVE",
"286 712 CURVE SMOOTH",
"414 712 OFFCURVE",
"499 640 OFFCURVE",
"499 531 CURVE SMOOTH",
"499 454 OFFCURVE",
"457 404 OFFCURVE",
"395 370 CURVE"
);
}
);
width = 568;
}
);
rightKerningGroup = eight;
unicode = 0038;
},
{
glyphname = nine;
lastChange = "2018-01-20 10:32:02 +0000";
layers = (
{
layerId = "293088C9-8C6F-4F1A-8530-3146F0106214";
paths = (
{
closed = 1;
nodes = (
"420 226 OFFCURVE",
"366 171 OFFCURVE",
"284 171 CURVE",
"202 171 OFFCURVE",
"148 226 OFFCURVE",
"148 308 CURVE",
"148 390 OFFCURVE",
"202 444 OFFCURVE",
"284 444 CURVE",
"366 444 OFFCURVE",
"420 390 OFFCURVE",
"420 308 CURVE"
);
},
{
closed = 1;
nodes = (
"360 11 OFFCURVE",
"266.208 -46.918 OFFCURVE",
"130 -83 CURVE",
"176 -162 LINE",
"391 -105 OFFCURVE",
"518 55 OFFCURVE",
"517 271 CURVE",
"517 436 OFFCURVE",
"422 537 OFFCURVE",
"284 537 CURVE SMOOTH",
"145 537 OFFCURVE",
"50 445 OFFCURVE",
"50 308 CURVE SMOOTH",
"50 171 OFFCURVE",
"139 82 OFFCURVE",
"269 82 CURVE SMOOTH",
"318.178 82 OFFCURVE",
"366 100 OFFCURVE",
"403 127 CURVE",
"405 126 LINE"
);
}
);
width = 567;
}
);
leftKerningGroup = nine;
rightKerningGroup = nine;
unicode = 0039;
},
{
glyphname = zero.alt;
lastChange = "2018-01-15 19:15:11 +0000";
layers = (
{
layerId = "293088C9-8C6F-4F1A-8530-3146F0106214";
paths = (
{
closed = 1;
nodes = (
"258 203 LINE",
"378 203 LINE",
"378 323 LINE",
"258 323 LINE"
);
},
{
closed = 1;
nodes = (
"483 -12 OFFCURVE",
"581 90 OFFCURVE",
"581 263 CURVE SMOOTH",
"581 435 OFFCURVE",
"483 537 OFFCURVE",
"318 537 CURVE SMOOTH",
"153 537 OFFCURVE",
"55 435 OFFCURVE",
"55 263 CURVE SMOOTH",
"55 90 OFFCURVE",
"153 -12 OFFCURVE",
"318 -12 CURVE SMOOTH"
);
},
{
closed = 1;
nodes = (
"219 77 OFFCURVE",
"159 150 OFFCURVE",
"159 263 CURVE SMOOTH",
"159 375 OFFCURVE",
"219 448 OFFCURVE",
"318 448 CURVE SMOOTH",
"417 448 OFFCURVE",
"477 375 OFFCURVE",
"477 263 CURVE SMOOTH",
"477 150 OFFCURVE",
"417 77 OFFCURVE",
"318 77 CURVE SMOOTH"
);
}
);
width = 636;
}
);
rightKerningGroup = zero;
},
{
glyphname = zero.tosf;
lastChange = "2018-01-15 19:15:19 +0000";
layers = (
{
layerId = "293088C9-8C6F-4F1A-8530-3146F0106214";
paths = (
{
closed = 1;
nodes = (
"434 -12 OFFCURVE",
"512 82 OFFCURVE",
"512 263 CURVE SMOOTH",
"512 443 OFFCURVE",
"434 537 OFFCURVE",
"284 537 CURVE SMOOTH",
"134 537 OFFCURVE",
"56 443 OFFCURVE",
"56 263 CURVE SMOOTH",
"56 82 OFFCURVE",
"134 -12 OFFCURVE",
"284 -12 CURVE SMOOTH"
);
},
{
closed = 1;
nodes = (
"204 77 OFFCURVE",
"159 142 OFFCURVE",
"159 263 CURVE SMOOTH",
"159 383 OFFCURVE",
"204 448 OFFCURVE",
"284 448 CURVE SMOOTH",
"364 448 OFFCURVE",
"409 383 OFFCURVE",
"409 263 CURVE SMOOTH",
"409 142 OFFCURVE",
"364 77 OFFCURVE",
"284 77 CURVE SMOOTH"
);
}
);
width = 567;
}
);
},
{
glyphname = one.tosf;
lastChange = "2018-01-20 10:32:11 +0000";
layers = (
{
layerId = "293088C9-8C6F-4F1A-8530-3146F0106214";
paths = (
{
closed = 1;
nodes = (
"497 0 LINE",
"497 84 LINE",
"349 84 LINE",
"349 530 LINE",
"85 520 LINE",
"85 445 LINE",
"243 445 LINE",
"243 84 LINE",
"80 84 LINE",
"80 0 LINE"
);
}
);
width = 567;
}
);
},
{
glyphname = two.tosf;
lastChange = "2018-01-20 10:38:18 +0000";
layers = (
{
layerId = "293088C9-8C6F-4F1A-8530-3146F0106214";
paths = (
{
closed = 1;
nodes = (
"64 90 LINE",
"260 236 OFFCURVE",
"389 304 OFFCURVE",
"389 375 CURVE SMOOTH",
"389 430 OFFCURVE",
"330 446 OFFCURVE",
"275 446 CURVE SMOOTH",
"221 446 OFFCURVE",
"163 432 OFFCURVE",
"116 415 CURVE",
"71 494 LINE",
"121 519 OFFCURVE",
"194 537 OFFCURVE",
"272 537 CURVE SMOOTH",
"398 537 OFFCURVE",
"495 491 OFFCURVE",
"495 388 CURVE SMOOTH",
"495 280 OFFCURVE",
"364 205 OFFCURVE",
"195 86 CURVE",
"196 84 LINE",
"509 84 LINE",
"509 0 LINE",
"64 0 LINE"
);
}
);
width = 567;
}
);
},
{
glyphname = three.tosf;
lastChange = "2018-01-20 10:38:38 +0000";
layers = (
{
layerId = "293088C9-8C6F-4F1A-8530-3146F0106214";
paths = (
{
closed = 1;
nodes = (
"411 193 OFFCURVE",
"501 133 OFFCURVE",
"501 22 CURVE SMOOTH",
"501 -86 OFFCURVE",
"405 -162 OFFCURVE",
"243 -162 CURVE SMOOTH",
"155 -162 OFFCURVE",
"78 -145 OFFCURVE",
"35 -119 CURVE",
"78 -44 LINE",
"117 -63 OFFCURVE",
"182 -71 OFFCURVE",
"241 -71 CURVE SMOOTH",
"336 -71 OFFCURVE",
"395 -34 OFFCURVE",
"395 34 CURVE SMOOTH",
"395 121 OFFCURVE",
"295 157 OFFCURVE",
"125 157 CURVE",
"125 241 LINE",
"286 241 OFFCURVE",
"375 284 OFFCURVE",
"375 362 CURVE SMOOTH",
"375 416 OFFCURVE",
"329 446 OFFCURVE",
"259 446 CURVE SMOOTH",
"198 446 OFFCURVE",
"140 433 OFFCURVE",
"97 416 CURVE",
"53 493 LINE",
"101 518 OFFCURVE",
"173 537 OFFCURVE",
"256 537 CURVE SMOOTH",
"396 537 OFFCURVE",
"481 471 OFFCURVE",
"481 379 CURVE SMOOTH",
"481 298 OFFCURVE",
"411 231 OFFCURVE",
"338 208 CURVE",
"338 206 LINE"
);
}
);
width = 567;
}
);
},
{
glyphname = four.tosf;
lastChange = "2018-01-20 10:39:26 +0000";
layers = (
{
layerId = "293088C9-8C6F-4F1A-8530-3146F0106214";
paths = (
{
closed = 1;
nodes = (
"346 0 LINE",
"346 -150 LINE",
"447 -150 LINE",
"447 0 LINE",
"537 0 LINE",
"537 87 LINE",
"447 87 LINE",
"447 525 LINE",
"320 525 LINE",
"36 85 LINE",
"36 0 LINE"
);
},
{
closed = 1;
nodes = (
"131 89 LINE",
"344 428 LINE",
"346 427 LINE",
"346 87 LINE",
"132 87 LINE"
);
}
);
width = 567;
}
);
},
{
glyphname = five.tosf;
lastChange = "2018-01-20 10:39:38 +0000";
layers = (
{
layerId = "293088C9-8C6F-4F1A-8530-3146F0106214";
paths = (
{
closed = 1;
nodes = (
"95 -49 LINE",
"134 -62 OFFCURVE",
"179 -71 OFFCURVE",
"227 -71 CURVE SMOOTH",
"345 -71 OFFCURVE",
"411 -26 OFFCURVE",
"411 54 CURVE SMOOTH",
"411 132 OFFCURVE",
"337 175 OFFCURVE",
"203 175 CURVE SMOOTH",
"179 175 OFFCURVE",
"141 174 OFFCURVE",
"93 170 CURVE",
"93 525 LINE",
"476 525 LINE",
"476 439 LINE",
"191 439 LINE",
"191 259 LINE",
"206 260 OFFCURVE",
"220 261 OFFCURVE",
"238 261 CURVE SMOOTH",
"416 261 OFFCURVE",
"515 187 OFFCURVE",
"515 54 CURVE SMOOTH",
"515 -85 OFFCURVE",
"413 -162 OFFCURVE",
"229 -162 CURVE SMOOTH",
"152 -162 OFFCURVE",
"95 -146 OFFCURVE",
"52 -124 CURVE"
);
}
);
width = 567;
}
);
},
{
glyphname = six.tosf;
lastChange = "2018-01-20 10:39:58 +0000";
layers = (
{
layerId = "293088C9-8C6F-4F1A-8530-3146F0106214";
paths = (
{
closed = 1;
nodes = (
"147 299 OFFCURVE",
"201 354 OFFCURVE",
"283 354 CURVE",
"365 354 OFFCURVE",
"419 299 OFFCURVE",
"419 217 CURVE",
"419 135 OFFCURVE",
"365 81 OFFCURVE",
"283 81 CURVE",
"201 81 OFFCURVE",
"147 135 OFFCURVE",
"147 217 CURVE"
);
},
{
closed = 1;
nodes = (
"206 518 OFFCURVE",
"300.428 597.822 OFFCURVE",
"437 634 CURVE",
"391 713 LINE",
"177 656 OFFCURVE",
"50 470 OFFCURVE",
"50 254 CURVE SMOOTH",
"50 89 OFFCURVE",
"145 -12 OFFCURVE",
"283 -12 CURVE SMOOTH",
"422 -12 OFFCURVE",
"517 80 OFFCURVE",
"517 217 CURVE SMOOTH",
"517 354 OFFCURVE",
"428 443 OFFCURVE",
"298 443 CURVE SMOOTH",
"248.665 443 OFFCURVE",
"201 425 OFFCURVE",
"164 398 CURVE",
"162 399 LINE"
);
}
);
width = 567;
}
);
},
{
glyphname = seven.tosf;
lastChange = "2018-01-20 10:40:17 +0000";
layers = (
{
layerId = "293088C9-8C6F-4F1A-8530-3146F0106214";
paths = (
{
closed = 1;
nodes = (
"410 441 LINE",
"411 439 LINE",
"87 -112 LINE",
"173 -162 LINE",
"515 430 LINE",
"515 525 LINE",
"40 525 LINE",
"40 441 LINE"
);
}
);
width = 567;
}
);
},
{
glyphname = eight.tosf;
lastChange = "2018-01-20 10:40:54 +0000";
layers = (
{
layerId = "293088C9-8C6F-4F1A-8530-3146F0106214";
paths = (
{
closed = 1;
nodes = (
"147 125 OFFCURVE",
"201 79 OFFCURVE",
"283 80 CURVE SMOOTH",
"365 81 OFFCURVE",
"419 127 OFFCURVE",
"419 192 CURVE SMOOTH",
"419 261 OFFCURVE",
"365 316 OFFCURVE",
"257 328 CURVE",
"183 301 OFFCURVE",
"147 248 OFFCURVE",
"147 192 CURVE SMOOTH"
);
},
{
closed = 1;
nodes = (
"164 460 OFFCURVE",
"211 414 OFFCURVE",
"304 404 CURVE",
"369 427 OFFCURVE",
"402 473 OFFCURVE",
"402 526 CURVE SMOOTH",
"402 584 OFFCURVE",
"354 622 OFFCURVE",
"283 622 CURVE SMOOTH",
"212 622 OFFCURVE",
"164 584 OFFCURVE",
"164 526 CURVE SMOOTH"
);
},
{
closed = 1;
nodes = (
"463 334 OFFCURVE",
"517 275 OFFCURVE",
"517 187 CURVE SMOOTH",
"517 69 OFFCURVE",
"424 -12 OFFCURVE",
"285 -12 CURVE SMOOTH",
"143 -12 OFFCURVE",
"49 69 OFFCURVE",
"49 187 CURVE SMOOTH",
"49 275 OFFCURVE",
"100 334 OFFCURVE",
"172 368 CURVE",
"172 370 LINE",
"110 404 OFFCURVE",
"68 454 OFFCURVE",
"68 531 CURVE SMOOTH",
"68 640 OFFCURVE",
"155 712 OFFCURVE",
"285 712 CURVE SMOOTH",
"413 712 OFFCURVE",
"498 640 OFFCURVE",
"498 531 CURVE SMOOTH",
"498 454 OFFCURVE",
"456 404 OFFCURVE",
"394 370 CURVE",
"394 368 LINE"
);
}
);
width = 567;
}
);
},
{
glyphname = nine.tosf;
lastChange = "2018-01-20 10:41:40 +0000";
layers = (
{
layerId = "293088C9-8C6F-4F1A-8530-3146F0106214";
paths = (
{
closed = 1;
nodes = (
"420 390 OFFCURVE",
"366 444 OFFCURVE",
"284 444 CURVE",
"202 444 OFFCURVE",
"148 390 OFFCURVE",
"148 308 CURVE",
"148 226 OFFCURVE",
"202 171 OFFCURVE",
"284 171 CURVE",
"366 171 OFFCURVE",
"420 226 OFFCURVE",
"420 308 CURVE"
);
},
{
closed = 1;
nodes = (
"365 100 OFFCURVE",
"318.178 82 OFFCURVE",
"269 82 CURVE SMOOTH",
"139 82 OFFCURVE",
"50 171 OFFCURVE",
"50 308 CURVE SMOOTH",
"50 445 OFFCURVE",
"145 537 OFFCURVE",
"284 537 CURVE SMOOTH",
"422 537 OFFCURVE",
"517 436 OFFCURVE",
"517 271 CURVE SMOOTH",
"517 55 OFFCURVE",
"390 -105 OFFCURVE",
"176 -162 CURVE",
"130 -83 LINE",
"266.208 -46.918 OFFCURVE",
"359 11 OFFCURVE",
"404 126 CURVE",
"402 127 LINE"
);
}
);
width = 567;
}
);
},
{
glyphname = asterisk;
lastChange = "2018-01-20 10:44:18 +0000";
layers = (
{
layerId = "293088C9-8C6F-4F1A-8530-3146F0106214";
paths = (
{
closed = 1;
nodes = (
"309 383 LINE",
"362 450 LINE",
"266 550 LINE",
"267 552 LINE",
"416 587 LINE",
"371 660 LINE",
"248 606 LINE",
"246 607 LINE",
"259 762 LINE",
"179 739 LINE",
"187 607 LINE",
"185 606 LINE",
"45 665 LINE",
"40 581 LINE",
"165 552 LINE",
"166 550 LINE",
"59 429 LINE",
"140 399 LINE",
"215 512 LINE",
"217 512 LINE"
);
}
);
width = 456;
}
);
leftKerningGroup = quote;
rightKerningGroup = quote;
unicode = 002A;
},
{
glyphname = backslash;
lastChange = "2017-12-29 17:10:06 +0000";
layers = (
{
layerId = "293088C9-8C6F-4F1A-8530-3146F0106214";
paths = (
{
closed = 1;
nodes = (
"133 773 LINE",
"50 726 LINE",
"309 -81 LINE",
"392 -33 LINE"
);
}
);
width = 442;
}
);
leftKerningGroup = backslash;
rightKerningGroup = backslash;
unicode = 005C;
},
{
glyphname = periodcentered;
lastChange = "2017-12-29 14:21:23 +0000";
layers = (
{
layerId = "293088C9-8C6F-4F1A-8530-3146F0106214";
paths = (
{
closed = 1;
nodes = (
"80 214 LINE",
"203 214 LINE",
"203 337 LINE",
"80 337 LINE"
);
}
);
width = 283;
}
);
leftKerningGroup = hyphen;
leftMetricsKey = period;
rightKerningGroup = hyphen;
rightMetricsKey = period;
unicode = 00B7;
},
{
glyphname = bullet;
lastChange = "2018-01-12 16:10:18 +0000";
layers = (
{
layerId = "293088C9-8C6F-4F1A-8530-3146F0106214";
paths = (
{
closed = 1;
nodes = (
"227 171 OFFCURVE",
"269 213 OFFCURVE",
"269 266 CURVE SMOOTH",
"269 318 OFFCURVE",
"227 360 OFFCURVE",
"175 360 CURVE SMOOTH",
"122 360 OFFCURVE",
"80 318 OFFCURVE",
"80 266 CURVE SMOOTH",
"80 213 OFFCURVE",
"122 171 OFFCURVE",
"175 171 CURVE SMOOTH"
);
}
);
width = 349;
}
);
leftKerningGroup = hyphen;
leftMetricsKey = period;
rightKerningGroup = hyphen;
rightMetricsKey = period;
unicode = 2022;
},
{
glyphname = colon;
lastChange = "2018-01-12 16:07:48 +0000";
layers = (
{
layerId = "293088C9-8C6F-4F1A-8530-3146F0106214";
paths = (
{
closed = 1;
nodes = (
"80 0 LINE",
"203 0 LINE",
"203 123 LINE",
"80 123 LINE"
);
},
{
closed = 1;
nodes = (
"80 402 LINE",
"203 402 LINE",
"203 525 LINE",
"80 525 LINE"
);
}
);
width = 283;
}
);
leftKerningGroup = colon;
unicode = 003A;
},
{
glyphname = comma;
lastChange = "2017-12-29 14:05:52 +0000";
layers = (
{
layerId = "293088C9-8C6F-4F1A-8530-3146F0106214";
paths = (
{
closed = 1;
nodes = (
"161 -108 LINE",
"246 123 LINE",
"135 123 LINE",
"80 -108 LINE"
);
}
);
width = 326;
}
);
leftKerningGroup = period;
leftMetricsKey = period;
rightKerningGroup = period;
rightMetricsKey = period;
unicode = 002C;
},
{
glyphname = ellipsis;
lastChange = "2017-12-29 14:05:52 +0000";
layers = (
{
layerId = "293088C9-8C6F-4F1A-8530-3146F0106214";
paths = (
{
closed = 1;
nodes = (
"80 0 LINE",
"203 0 LINE",
"203 123 LINE",
"80 123 LINE"
);
},
{
closed = 1;
nodes = (
"313 0 LINE",
"436 0 LINE",
"436 123 LINE",
"313 123 LINE"
);
},
{
closed = 1;
nodes = (
"546 0 LINE",
"669 0 LINE",
"669 123 LINE",
"546 123 LINE"
);
}
);
width = 749;
}
);
leftKerningGroup = period;
leftMetricsKey = period;
rightKerningGroup = period;
rightMetricsKey = period;
unicode = 2026;
},
{
glyphname = exclam;
lastChange = "2018-01-15 23:13:57 +0000";
layers = (
{
layerId = "293088C9-8C6F-4F1A-8530-3146F0106214";
paths = (
{
closed = 1;
nodes = (
"204 235 LINE",
"219 700 LINE",
"100 700 LINE",
"115 235 LINE"
);
},
{
closed = 1;
nodes = (
"102 0 LINE",
"217 0 LINE",
"217 116 LINE",
"102 116 LINE"
);
}
);
width = 319;
}
);
leftKerningGroup = l;
rightKerningGroup = l;
unicode = 0021;
},
{
glyphname = exclamdown;
lastChange = "2018-01-15 23:13:53 +0000";
layers = (
{
layerId = "293088C9-8C6F-4F1A-8530-3146F0106214";
paths = (
{
closed = 1;
nodes = (
"100 -175 LINE",
"219 -175 LINE",
"204 290 LINE",
"115 290 LINE"
);
},
{
closed = 1;
nodes = (
"217 409 LINE",
"217 525 LINE",
"102 525 LINE",
"102 409 LINE"
);
}
);
width = 319;
}
);
rightKerningGroup = exclamdown;
unicode = 00A1;
},
{
glyphname = numbersign;
lastChange = "2018-01-20 10:42:35 +0000";
layers = (
{
layerId = "293088C9-8C6F-4F1A-8530-3146F0106214";
paths = (
{
closed = 1;
nodes = (
"151 118 LINE",
"141 0 LINE",
"227 0 LINE",
"237 118 LINE",
"379 118 LINE",
"369 0 LINE",
"455 0 LINE",
"465 118 LINE",
"576 118 LINE",
"576 192 LINE",
"472 192 LINE",
"484 333 LINE",
"592 333 LINE",
"592 407 LINE",
"491 407 LINE",
"501 525 LINE",
"415 525 LINE",
"405 407 LINE",
"263 407 LINE",
"273 525 LINE",
"187 525 LINE",
"177 407 LINE",
"66 407 LINE",
"66 333 LINE",
"170 333 LINE",
"158 192 LINE",
"50 192 LINE",
"50 118 LINE"
);
},
{
closed = 1;
nodes = (
"256 333 LINE",
"398 333 LINE",
"386 192 LINE",
"244 192 LINE"
);
}
);
width = 642;
}
);
leftKerningGroup = numbersign;
rightKerningGroup = numbersign;
unicode = 0023;
},
{
glyphname = period;
lastChange = "2018-01-02 16:49:45 +0000";
layers = (
{
layerId = "293088C9-8C6F-4F1A-8530-3146F0106214";
paths = (
{
closed = 1;
nodes = (
"80 0 LINE",
"203 0 LINE",
"203 123 LINE",
"80 123 LINE"
);
}
);
width = 283;
}
);
leftKerningGroup = period;
rightKerningGroup = period;
unicode = 002E;
},
{
glyphname = question;
lastChange = "2018-01-15 23:13:35 +0000";
layers = (
{
layerId = "293088C9-8C6F-4F1A-8530-3146F0106214";
paths = (
{
closed = 1;
nodes = (
"83 687 OFFCURVE",
"142 712 OFFCURVE",
"231 712 CURVE",
"363 712 OFFCURVE",
"448 648 OFFCURVE",
"448 539 CURVE",
"448 384 OFFCURVE",
"198 377 OFFCURVE",
"264 208 CURVE",
"176 208 LINE",
"112 408 OFFCURVE",
"343 439 OFFCURVE",
"343 531 CURVE",
"343 589 OFFCURVE",
"298 621 OFFCURVE",
"234 621 CURVE",
"162 621 OFFCURVE",
"124 599 OFFCURVE",
"81 582 CURVE",
"35 662 LINE"
);
},
{
closed = 1;
nodes = (
"277 0 LINE",
"277 116 LINE",
"162 116 LINE",
"162 0 LINE"
);
}
);
width = 498;
}
);
leftKerningGroup = question;
unicode = 003F;
},
{
glyphname = questiondown;
lastChange = "2018-01-15 23:13:47 +0000";
layers = (
{
layerId = "293088C9-8C6F-4F1A-8530-3146F0106214";
paths = (
{
closed = 1;
nodes = (
"415 -162 OFFCURVE",
"356 -187 OFFCURVE",
"267 -187 CURVE",
"135 -187 OFFCURVE",
"50 -123 OFFCURVE",
"50 -14 CURVE",
"50 141 OFFCURVE",
"300 148 OFFCURVE",
"234 317 CURVE",
"322 317 LINE",
"386 117 OFFCURVE",
"155 86 OFFCURVE",
"155 -6 CURVE",
"155 -63 OFFCURVE",
"200 -96 OFFCURVE",
"264 -96 CURVE",
"336 -96 OFFCURVE",
"374 -74 OFFCURVE",
"417 -57 CURVE",
"463 -137 LINE"
);
},
{
closed = 1;
nodes = (
"221 525 LINE",
"221 409 LINE",
"336 409 LINE",
"336 525 LINE"
);
}
);
width = 463;
}
);
rightKerningGroup = questiondown;
unicode = 00BF;
},
{
glyphname = quotedbl;
lastChange = "2018-01-20 10:45:53 +0000";
layers = (
{
layerId = "293088C9-8C6F-4F1A-8530-3146F0106214";
paths = (
{
closed = 1;
nodes = (
"72 541 LINE",
"153 541 LINE",
"166 760 LINE",
"60 760 LINE"
);
},
{
closed = 1;
nodes = (
"252 541 LINE",
"333 541 LINE",
"346 760 LINE",
"240 760 LINE"
);
}
);
width = 366;
}
);
leftKerningGroup = quote;
leftMetricsKey = quoteright;
rightKerningGroup = quote;
rightMetricsKey = quoteright;
unicode = 0022;
},
{
glyphname = quotesingle;
lastChange = "2018-01-20 10:45:53 +0000";
layers = (
{
layerId = "293088C9-8C6F-4F1A-8530-3146F0106214";
paths = (
{
closed = 1;
nodes = (
"72 541 LINE",
"153 541 LINE",
"166 760 LINE",
"60 760 LINE"
);
}
);
width = 186;
}
);
leftKerningGroup = quote;
leftMetricsKey = quoteright;
rightKerningGroup = quote;
rightMetricsKey = quoteright;
unicode = 0027;
},
{
glyphname = semicolon;
lastChange = "2018-01-12 16:07:53 +0000";
layers = (
{
layerId = "293088C9-8C6F-4F1A-8530-3146F0106214";
paths = (
{
closed = 1;
nodes = (
"129 402 LINE",
"252 402 LINE",
"252 525 LINE",
"129 525 LINE"
);
},
{
closed = 1;
nodes = (
"161 -108 LINE",
"246 123 LINE",
"135 123 LINE",
"80 -108 LINE"
);
}
);
width = 332;
}
);
leftKerningGroup = colon;
leftMetricsKey = colon;
rightMetricsKey = colon;
unicode = 003B;
},
{
glyphname = slash;
lastChange = "2017-12-29 17:06:28 +0000";
layers = (
{
layerId = "293088C9-8C6F-4F1A-8530-3146F0106214";
paths = (
{
closed = 1;
nodes = (
"133 -81 LINE",
"392 726 LINE",
"309 773 LINE",
"50 -33 LINE"
);
}
);
width = 442;
}
);
leftKerningGroup = slash;
rightKerningGroup = slash;
unicode = 002F;
},
{
glyphname = underscore;
lastChange = "2017-12-29 14:05:52 +0000";
layers = (
{
layerId = "293088C9-8C6F-4F1A-8530-3146F0106214";
paths = (
{
closed = 1;
nodes = (
"80 -127 LINE",
"534 -127 LINE",
"534 -30 LINE",
"80 -30 LINE"
);
}
);
width = 614;
}
);
leftKerningGroup = period;
leftMetricsKey = period;
rightKerningGroup = period;
rightMetricsKey = period;
unicode = 005F;
},
{
glyphname = braceleft;
lastChange = "2018-01-12 16:07:16 +0000";
layers = (
{
layerId = "293088C9-8C6F-4F1A-8530-3146F0106214";
paths = (
{
closed = 1;
nodes = (
"108 265 OFFCURVE",
"133 229 OFFCURVE",
"126 172 CURVE SMOOTH",
"112 54 LINE SMOOTH",
"99 -67 OFFCURVE",
"160 -140 OFFCURVE",
"286 -140 CURVE SMOOTH",
"332 -140 LINE",
"332 -55 LINE",
"286 -55 LINE SMOOTH",
"222 -55 OFFCURVE",
"196 -22 OFFCURVE",
"204 54 CURVE SMOOTH",
"221 205 LINE SMOOTH",
"228 266 OFFCURVE",
"185 300 OFFCURVE",
"140 302 CURVE",
"140 308 LINE",
"186 308 OFFCURVE",
"228 342 OFFCURVE",
"221 405 CURVE SMOOTH",
"204 556 LINE SMOOTH",
"196 632 OFFCURVE",
"222 665 OFFCURVE",
"286 665 CURVE SMOOTH",
"332 665 LINE",
"332 750 LINE",
"286 750 LINE SMOOTH",
"160 750 OFFCURVE",
"99 677 OFFCURVE",
"112 556 CURVE SMOOTH",
"126 438 LINE SMOOTH",
"132 381 OFFCURVE",
"107 345 OFFCURVE",
"60 345 CURVE",
"60 265 LINE"
);
}
);
width = 362;
}
);
rightKerningGroup = paren;
unicode = 007B;
},
{
glyphname = braceright;
lastChange = "2018-01-12 16:07:25 +0000";
layers = (
{
layerId = "293088C9-8C6F-4F1A-8530-3146F0106214";
paths = (
{
closed = 1;
nodes = (
"302 345 LINE",
"255 345 OFFCURVE",
"230 381 OFFCURVE",
"236 438 CURVE SMOOTH",
"250 556 LINE SMOOTH",
"263 677 OFFCURVE",
"202 750 OFFCURVE",
"76 750 CURVE SMOOTH",
"30 750 LINE",
"30 665 LINE",
"76 665 LINE SMOOTH",
"140 665 OFFCURVE",
"166 632 OFFCURVE",
"158 556 CURVE SMOOTH",
"141 405 LINE SMOOTH",
"134 342 OFFCURVE",
"176 308 OFFCURVE",
"222 308 CURVE",
"222 302 LINE",
"177 300 OFFCURVE",
"134 266 OFFCURVE",
"141 205 CURVE SMOOTH",
"158 54 LINE SMOOTH",
"166 -22 OFFCURVE",
"140 -55 OFFCURVE",
"76 -55 CURVE SMOOTH",
"30 -55 LINE",
"30 -140 LINE",
"76 -140 LINE SMOOTH",
"202 -140 OFFCURVE",
"263 -67 OFFCURVE",
"250 54 CURVE SMOOTH",
"236 172 LINE SMOOTH",
"229 229 OFFCURVE",
"254 265 OFFCURVE",
"302 265 CURVE"
);
}
);
width = 362;
}
);
leftKerningGroup = paren;
unicode = 007D;
},
{
glyphname = bracketleft;
lastChange = "2018-01-12 16:06:46 +0000";
layers = (
{
layerId = "293088C9-8C6F-4F1A-8530-3146F0106214";
paths = (
{
closed = 1;
nodes = (
"326 -55 LINE",
"178 -55 LINE",
"178 665 LINE",
"326 665 LINE",
"326 750 LINE",
"80 750 LINE",
"80 -140 LINE",
"326 -140 LINE"
);
}
);
width = 356;
}
);
rightKerningGroup = paren;
unicode = 005B;
},
{
glyphname = bracketright;
lastChange = "2018-01-12 16:06:52 +0000";
layers = (
{
layerId = "293088C9-8C6F-4F1A-8530-3146F0106214";
paths = (
{
closed = 1;
nodes = (
"276 -140 LINE",
"276 750 LINE",
"30 750 LINE",
"30 665 LINE",
"178 665 LINE",
"178 -55 LINE",
"30 -55 LINE",
"30 -140 LINE"
);
}
);
width = 356;
}
);
leftKerningGroup = paren;
unicode = 005D;
},
{
glyphname = parenleft;
lastChange = "2017-12-29 16:24:36 +0000";
layers = (
{
layerId = "293088C9-8C6F-4F1A-8530-3146F0106214";
paths = (
{
closed = 1;
nodes = (
"50 101 OFFCURVE",
"134 -62 OFFCURVE",
"284 -151 CURVE",
"321 -71 LINE",
"212 2 OFFCURVE",
"151 136 OFFCURVE",
"151 305 CURVE SMOOTH",
"151 475 OFFCURVE",
"211 609 OFFCURVE",
"320 681 CURVE",
"283 761 LINE",
"133 673 OFFCURVE",
"50 510 OFFCURVE",
"50 305 CURVE SMOOTH"
);
}
);
width = 351;
}
);
rightKerningGroup = paren;
unicode = 0028;
},
{
glyphname = parenright;
lastChange = "2017-12-29 16:24:42 +0000";
layers = (
{
layerId = "293088C9-8C6F-4F1A-8530-3146F0106214";
paths = (
{
closed = 1;
nodes = (
"301 510 OFFCURVE",
"218 673 OFFCURVE",
"68 761 CURVE",
"31 681 LINE",
"140 609 OFFCURVE",
"200 475 OFFCURVE",
"200 305 CURVE SMOOTH",
"200 136 OFFCURVE",
"139 2 OFFCURVE",
"30 -71 CURVE",
"67 -151 LINE",
"217 -63 OFFCURVE",
"301 100 OFFCURVE",
"301 305 CURVE SMOOTH"
);
}
);
width = 351;
}
);
leftKerningGroup = paren;
unicode = 0029;
},
{
glyphname = emdash;
lastChange = "2018-01-12 16:10:44 +0000";
layers = (
{
layerId = "293088C9-8C6F-4F1A-8530-3146F0106214";
paths = (
{
closed = 1;
nodes = (
"40 221 LINE",
"900 221 LINE",
"900 312 LINE",
"40 312 LINE"
);
}
);
width = 940;
}
);
leftKerningGroup = hyphen;
leftMetricsKey = hyphen;
rightKerningGroup = hyphen;
rightMetricsKey = hyphen;
unicode = 2014;
},
{
glyphname = endash;
lastChange = "2018-01-12 16:10:47 +0000";
layers = (
{
layerId = "293088C9-8C6F-4F1A-8530-3146F0106214";
paths = (
{
closed = 1;
nodes = (
"40 221 LINE",
"470 221 LINE",
"470 312 LINE",
"40 312 LINE"
);
}
);
width = 510;
}
);
leftKerningGroup = hyphen;
leftMetricsKey = hyphen;
rightKerningGroup = hyphen;
rightMetricsKey = hyphen;
unicode = 2013;
},
{
glyphname = hyphen;
lastChange = "2018-01-12 16:10:49 +0000";
layers = (
{
layerId = "293088C9-8C6F-4F1A-8530-3146F0106214";
paths = (
{
closed = 1;
nodes = (
"40 218 LINE",
"364 218 LINE",
"364 315 LINE",
"40 315 LINE"
);
}
);
width = 404;
}
);
leftKerningGroup = hyphen;
rightKerningGroup = hyphen;
unicode = 002D;
},
{
glyphname = guillemetleft;
lastChange = "2018-01-20 10:46:41 +0000";
layers = (
{
layerId = "293088C9-8C6F-4F1A-8530-3146F0106214";
paths = (
{
closed = 1;
nodes = (
"211 11 LINE",
"297 63 LINE",
"147 265 LINE",
"297 467 LINE",
"211 519 LINE",
"30 265 LINE"
);
},
{
closed = 1;
nodes = (
"454 27 LINE",
"540 78 LINE",
"392 265 LINE",
"540 452 LINE",
"454 503 LINE",
"275 265 LINE"
);
}
);
width = 580;
}
);
unicode = 00AB;
},
{
glyphname = guillemetright;
lastChange = "2018-01-20 10:46:49 +0000";
layers = (
{
layerId = "293088C9-8C6F-4F1A-8530-3146F0106214";
paths = (
{
closed = 1;
nodes = (
"369 519 LINE",
"283 467 LINE",
"433 265 LINE",
"283 63 LINE",
"369 11 LINE",
"550 265 LINE"
);
},
{
closed = 1;
nodes = (
"126 503 LINE",
"40 452 LINE",
"188 265 LINE",
"40 78 LINE",
"126 27 LINE",
"305 265 LINE"
);
}
);
width = 580;
}
);
unicode = 00BB;
},
{
glyphname = guilsinglleft;
lastChange = "2018-01-12 16:10:56 +0000";
layers = (
{
layerId = "293088C9-8C6F-4F1A-8530-3146F0106214";
paths = (
{
closed = 1;
nodes = (
"211 11 LINE",
"297 63 LINE",
"147 265 LINE",
"297 467 LINE",
"211 519 LINE",
"30 265 LINE"
);
}
);
width = 337;
}
);
unicode = 2039;
},
{
glyphname = guilsinglright;
lastChange = "2018-01-12 16:10:59 +0000";
layers = (
{
layerId = "293088C9-8C6F-4F1A-8530-3146F0106214";
paths = (
{
closed = 1;
nodes = (
"126 519 LINE",
"40 467 LINE",
"190 265 LINE",
"40 63 LINE",
"126 11 LINE",
"307 265 LINE"
);
}
);
width = 337;
}
);
unicode = 203A;
},
{
glyphname = quotedblleft;
lastChange = "2018-01-20 10:45:53 +0000";
layers = (
{
layerId = "293088C9-8C6F-4F1A-8530-3146F0106214";
paths = (
{
closed = 1;
nodes = (
"145 760 LINE",
"60 529 LINE",
"171 529 LINE",
"226 760 LINE"
);
},
{
closed = 1;
nodes = (
"333 760 LINE",
"248 529 LINE",
"359 529 LINE",
"414 760 LINE"
);
}
);
width = 434;
}
);
leftKerningGroup = quote;
leftMetricsKey = quoteright;
rightKerningGroup = quote;
rightMetricsKey = quoteright;
unicode = 201C;
},
{
glyphname = quotedblright;
lastChange = "2018-01-20 10:45:53 +0000";
layers = (
{
layerId = "293088C9-8C6F-4F1A-8530-3146F0106214";
paths = (
{
closed = 1;
nodes = (
"329 529 LINE",
"414 760 LINE",
"303 760 LINE",
"248 529 LINE"
);
},
{
closed = 1;
nodes = (
"141 529 LINE",
"226 760 LINE",
"115 760 LINE",
"60 529 LINE"
);
}
);
width = 434;
}
);
leftKerningGroup = quote;
leftMetricsKey = quoteright;
rightKerningGroup = quote;
rightMetricsKey = quoteright;
unicode = 201D;
},
{
glyphname = quoteleft;
lastChange = "2018-01-20 10:45:53 +0000";
layers = (
{
layerId = "293088C9-8C6F-4F1A-8530-3146F0106214";
paths = (
{
closed = 1;
nodes = (
"145 760 LINE",
"60 529 LINE",
"171 529 LINE",
"226 760 LINE"
);
}
);
width = 246;
}
);
leftKerningGroup = quote;
leftMetricsKey = quoteright;
rightKerningGroup = quote;
rightMetricsKey = quoteright;
unicode = 2018;
},
{
glyphname = quoteright;
lastChange = "2018-01-20 10:45:15 +0000";
layers = (
{
layerId = "293088C9-8C6F-4F1A-8530-3146F0106214";
paths = (
{
closed = 1;
nodes = (
"141 529 LINE",
"226 760 LINE",
"115 760 LINE",
"60 529 LINE"
);
}
);
width = 246;
}
);
leftKerningGroup = quote;
rightKerningGroup = quote;
unicode = 2019;
},
{
glyphname = cent;
lastChange = "2018-01-20 11:16:09 +0000";
layers = (
{
layerId = "293088C9-8C6F-4F1A-8530-3146F0106214";
paths = (
{
closed = 1;
nodes = (
"67 223 OFFCURVE",
"140 122 OFFCURVE",
"263 98 CURVE",
"261 0 LINE",
"353 0 LINE",
"351 92 LINE",
"422 96 OFFCURVE",
"473 116 OFFCURVE",
"496 129 CURVE",
"450 207 LINE",
"426 197 OFFCURVE",
"392 187 OFFCURVE",
"332 187 CURVE",
"231 187 OFFCURVE",
"172 255 OFFCURVE",
"172 370 CURVE",
"172 486 OFFCURVE",
"231 554 OFFCURVE",
"332 554 CURVE",
"393 554 OFFCURVE",
"427 544 OFFCURVE",
"451 534 CURVE",
"496 612 LINE",
"475 623 OFFCURVE",
"426 644 OFFCURVE",
"359 648 CURVE",
"361 740 LINE",
"269 740 LINE",
"271 644 LINE",
"143 622 OFFCURVE",
"67 521 OFFCURVE",
"67 370 CURVE"
);
}
);
width = 567;
}
);
unicode = 00A2;
},
{
glyphname = currency;
lastChange = "2018-01-20 11:17:35 +0000";
layers = (
{
layerId = "293088C9-8C6F-4F1A-8530-3146F0106214";
paths = (
{
closed = 1;
nodes = (
"405 50 OFFCURVE",
"485 135 OFFCURVE",
"485 262 CURVE SMOOTH",
"485 389 OFFCURVE",
"405 474 OFFCURVE",
"284 474 CURVE SMOOTH",
"163 474 OFFCURVE",
"82 389 OFFCURVE",
"82 262 CURVE SMOOTH",
"82 135 OFFCURVE",
"163 50 OFFCURVE",
"284 50 CURVE SMOOTH"
);
},
{
closed = 1;
nodes = (
"215 130 OFFCURVE",
"169 183 OFFCURVE",
"169 262 CURVE SMOOTH",
"169 341 OFFCURVE",
"215 394 OFFCURVE",
"284 394 CURVE SMOOTH",
"352 394 OFFCURVE",
"398 341 OFFCURVE",
"398 262 CURVE SMOOTH",
"398 183 OFFCURVE",
"352 130 OFFCURVE",
"284 130 CURVE SMOOTH"
);
},
{
closed = 1;
nodes = (
"158 353 LINE",
"220 415 LINE",
"111 527 LINE",
"46 462 LINE"
);
},
{
closed = 1;
nodes = (
"111 -3 LINE",
"220 109 LINE",
"158 171 LINE",
"46 62 LINE"
);
},
{
closed = 1;
nodes = (
"457 527 LINE",
"348 415 LINE",
"410 353 LINE",
"522 462 LINE"
);
},
{
closed = 1;
nodes = (
"410 171 LINE",
"348 109 LINE",
"457 -3 LINE",
"522 62 LINE"
);
}
);
width = 567;
}
);
unicode = 00A4;
},
{
glyphname = dollar;
lastChange = "2018-01-20 11:07:28 +0000";
layers = (
{
layerId = "293088C9-8C6F-4F1A-8530-3146F0106214";
paths = (
{
closed = 1;
nodes = (
"103 8 OFFCURVE",
"170 -8 OFFCURVE",
"239 -11 CURVE",
"237 -107 LINE",
"329 -107 LINE",
"327 -7 LINE",
"438 11 OFFCURVE",
"507 78 OFFCURVE",
"507 188 CURVE SMOOTH",
"507 406 OFFCURVE",
"182 390 OFFCURVE",
"182 531 CURVE SMOOTH",
"182 583 OFFCURVE",
"225 615 OFFCURVE",
"298 615 CURVE SMOOTH",
"345 615 OFFCURVE",
"387 608 OFFCURVE",
"434 590 CURVE",
"482 673 LINE",
"441 694 OFFCURVE",
"386 707 OFFCURVE",
"332 711 CURVE",
"334 807 LINE",
"242 807 LINE",
"244 707 LINE",
"141 690 OFFCURVE",
"77 623 OFFCURVE",
"77 529 CURVE SMOOTH",
"77 312 OFFCURVE",
"404 328 OFFCURVE",
"402 178 CURVE SMOOTH",
"401 118 OFFCURVE",
"350 87 OFFCURVE",
"265 87 CURVE SMOOTH",
"215 87 OFFCURVE",
"154 100 OFFCURVE",
"110 121 CURVE",
"60 34 LINE"
);
}
);
width = 567;
}
);
unicode = 0024;
},
{
glyphname = euro;
lastChange = "2018-01-20 11:12:19 +0000";
layers = (
{
layerId = "293088C9-8C6F-4F1A-8530-3146F0106214";
paths = (
{
closed = 1;
nodes = (
"124 239 LINE",
"154 76 OFFCURVE",
"256 -12 OFFCURVE",
"414 -12 CURVE SMOOTH",
"462 -12 OFFCURVE",
"496 -4 OFFCURVE",
"534 13 CURVE",
"486 90 LINE",
"457 84 OFFCURVE",
"440 82 OFFCURVE",
"412 82 CURVE SMOOTH",
"316 82 OFFCURVE",
"250 136 OFFCURVE",
"224 237 CURVE",
"225 239 LINE",
"451 239 LINE",
"451 308 LINE",
"213 308 LINE",
"211 327 OFFCURVE",
"211 370 OFFCURVE",
"212 389 CURVE",
"451 389 LINE",
"451 458 LINE",
"224 458 LINE",
"223 460 LINE",
"249 563 OFFCURVE",
"315 618 OFFCURVE",
"412 618 CURVE SMOOTH",
"440 618 OFFCURVE",
"457 616 OFFCURVE",
"486 610 CURVE",
"534 687 LINE",
"496 704 OFFCURVE",
"462 712 OFFCURVE",
"414 712 CURVE SMOOTH",
"255 712 OFFCURVE",
"153 623 OFFCURVE",
"123 458 CURVE",
"37 458 LINE",
"37 389 LINE",
"115 389 LINE",
"114 370 OFFCURVE",
"114 327 OFFCURVE",
"115 308 CURVE",
"37 308 LINE",
"37 239 LINE"
);
}
);
width = 567;
}
);
unicode = 20AC;
},
{
glyphname = sterling;
lastChange = "2018-01-20 11:12:54 +0000";
layers = (
{
layerId = "293088C9-8C6F-4F1A-8530-3146F0106214";
paths = (
{
closed = 1;
nodes = (
"148 323 LINE",
"148 248 LINE SMOOTH",
"148 174 OFFCURVE",
"125 124 OFFCURVE",
"74 95 CURVE",
"74 0 LINE",
"504 0 LINE",
"504 95 LINE",
"184 95 LINE",
"183 97 LINE",
"223 125 OFFCURVE",
"248 179 OFFCURVE",
"248 246 CURVE SMOOTH",
"248 323 LINE",
"439 323 LINE",
"439 402 LINE",
"248 402 LINE",
"248 511 LINE SMOOTH",
"248 576 OFFCURVE",
"286 617 OFFCURVE",
"364 617 CURVE SMOOTH",
"410 617 OFFCURVE",
"435 613 OFFCURVE",
"475 600 CURVE",
"523 681 LINE",
"467 703 OFFCURVE",
"427 712 OFFCURVE",
"367 712 CURVE SMOOTH",
"233 712 OFFCURVE",
"148 642 OFFCURVE",
"148 523 CURVE SMOOTH",
"148 402 LINE",
"65 402 LINE",
"65 323 LINE"
);
}
);
width = 567;
}
);
unicode = 00A3;
},
{
glyphname = yen;
lastChange = "2018-01-20 11:14:52 +0000";
layers = (
{
layerId = "293088C9-8C6F-4F1A-8530-3146F0106214";
paths = (
{
closed = 1;
nodes = (
"197 337 LINE",
"196 335 LINE",
"94 335 LINE",
"94 266 LINE",
"229 266 LINE",
"229 185 LINE",
"94 185 LINE",
"94 116 LINE",
"229 116 LINE",
"229 0 LINE",
"336 0 LINE",
"336 116 LINE",
"473 116 LINE",
"473 185 LINE",
"336 185 LINE",
"336 266 LINE",
"473 266 LINE",
"473 335 LINE",
"370 335 LINE",
"369 337 LINE",
"550 700 LINE",
"438 700 LINE",
"286 358 LINE",
"284 358 LINE",
"130 700 LINE",
"16 700 LINE"
);
}
);
width = 567;
}
);
unicode = 00A5;
},
{
glyphname = plus;
lastChange = "2018-01-15 19:19:26 +0000";
layers = (
{
layerId = "293088C9-8C6F-4F1A-8530-3146F0106214";
paths = (
{
closed = 1;
nodes = (
"251 222 LINE",
"249 36 LINE",
"345 36 LINE",
"343 222 LINE",
"534 220 LINE",
"534 313 LINE",
"343 311 LINE",
"345 497 LINE",
"249 497 LINE",
"251 311 LINE",
"60 313 LINE",
"60 220 LINE"
);
}
);
width = 594;
}
);
leftMetricsKey = minus;
rightMetricsKey = minus;
unicode = 002B;
},
{
glyphname = minus;
lastChange = "2018-01-15 19:18:50 +0000";
layers = (
{
layerId = "293088C9-8C6F-4F1A-8530-3146F0106214";
paths = (
{
closed = 1;
nodes = (
"60 218 LINE",
"534 218 LINE",
"534 315 LINE",
"60 315 LINE"
);
}
);
width = 594;
}
);
unicode = 2212;
},
{
glyphname = multiply;
lastChange = "2018-01-15 19:19:35 +0000";
layers = (
{
layerId = "293088C9-8C6F-4F1A-8530-3146F0106214";
paths = (
{
closed = 1;
nodes = (
"131 34 LINE",
"297 203 LINE",
"463 37 LINE",
"528 103 LINE",
"364 264 LINE",
"528 427 LINE",
"463 493 LINE",
"297 324 LINE",
"131 493 LINE",
"66 427 LINE",
"230 264 LINE",
"66 100 LINE"
);
}
);
width = 594;
}
);
unicode = 00D7;
},
{
glyphname = divide;
lastChange = "2018-01-20 10:51:36 +0000";
layers = (
{
layerId = "293088C9-8C6F-4F1A-8530-3146F0106214";
paths = (
{
closed = 1;
nodes = (
"60 218 LINE",
"534 218 LINE",
"534 315 LINE",
"60 315 LINE"
);
},
{
closed = 1;
nodes = (
"356 499 LINE",
"238 499 LINE",
"238 380 LINE",
"356 380 LINE"
);
},
{
closed = 1;
nodes = (
"356 153 LINE",
"238 153 LINE",
"238 34 LINE",
"356 34 LINE"
);
}
);
width = 594;
}
);
leftMetricsKey = minus;
rightMetricsKey = minus;
unicode = 00F7;
},
{
glyphname = equal;
lastChange = "2018-01-15 19:19:26 +0000";
layers = (
{
layerId = "293088C9-8C6F-4F1A-8530-3146F0106214";
paths = (
{
closed = 1;
nodes = (
"60 121 LINE",
"534 121 LINE",
"534 216 LINE",
"60 216 LINE"
);
},
{
closed = 1;
nodes = (
"60 318 LINE",
"534 318 LINE",
"534 413 LINE",
"60 413 LINE"
);
}
);
width = 594;
}
);
leftMetricsKey = minus;
rightMetricsKey = minus;
unicode = 003D;
},
{
glyphname = notequal;
lastChange = "2018-01-20 10:51:48 +0000";
layers = (
{
layerId = "293088C9-8C6F-4F1A-8530-3146F0106214";
paths = (
{
closed = 1;
nodes = (
"195 121 LINE",
"153 26 LINE",
"214 -9 LINE",
"272 121 LINE",
"534 121 LINE",
"534 216 LINE",
"314 216 LINE",
"360 318 LINE",
"534 318 LINE",
"534 413 LINE",
"402 413 LINE",
"442 502 LINE",
"381 537 LINE",
"326 413 LINE",
"60 413 LINE",
"60 318 LINE",
"283 318 LINE",
"238 216 LINE",
"60 216 LINE",
"60 121 LINE"
);
}
);
width = 594;
}
);
leftMetricsKey = minus;
rightMetricsKey = minus;
unicode = 2260;
},
{
glyphname = greater;
lastChange = "2018-01-20 10:52:38 +0000";
layers = (
{
layerId = "293088C9-8C6F-4F1A-8530-3146F0106214";
paths = (
{
closed = 1;
nodes = (
"534 220 LINE",
"534 312 LINE",
"108 500 LINE",
"60 418 LINE",
"429 267 LINE",
"429 265 LINE",
"60 114 LINE",
"108 32 LINE"
);
}
);
width = 594;
}
);
leftMetricsKey = minus;
rightMetricsKey = minus;
unicode = 003E;
},
{
glyphname = less;
lastChange = "2018-01-20 10:52:48 +0000";
layers = (
{
layerId = "293088C9-8C6F-4F1A-8530-3146F0106214";
paths = (
{
closed = 1;
nodes = (
"534 114 LINE",
"165 265 LINE",
"165 267 LINE",
"534 418 LINE",
"486 500 LINE",
"60 312 LINE",
"60 220 LINE",
"486 32 LINE"
);
}
);
width = 594;
}
);
leftMetricsKey = minus;
rightMetricsKey = minus;
unicode = 003C;
},
{
glyphname = greaterequal;
lastChange = "2018-01-20 10:52:58 +0000";
layers = (
{
layerId = "293088C9-8C6F-4F1A-8530-3146F0106214";
paths = (
{
closed = 1;
nodes = (
"60 85 LINE",
"60 0 LINE",
"534 0 LINE",
"534 85 LINE"
);
},
{
closed = 1;
nodes = (
"524 293 LINE",
"524 389 LINE",
"104 550 LINE",
"70 468 LINE",
"429 342 LINE",
"429 340 LINE",
"70 214 LINE",
"104 132 LINE"
);
}
);
width = 594;
}
);
leftMetricsKey = minus;
rightMetricsKey = minus;
unicode = 2265;
},
{
glyphname = lessequal;
lastChange = "2018-01-20 10:53:08 +0000";
layers = (
{
layerId = "293088C9-8C6F-4F1A-8530-3146F0106214";
paths = (
{
closed = 1;
nodes = (
"60 0 LINE",
"534 0 LINE",
"534 85 LINE",
"60 85 LINE"
);
},
{
closed = 1;
nodes = (
"524 214 LINE",
"165 340 LINE",
"165 342 LINE",
"524 468 LINE",
"490 550 LINE",
"70 389 LINE",
"70 293 LINE",
"490 132 LINE"
);
}
);
width = 594;
}
);
leftMetricsKey = minus;
rightMetricsKey = minus;
unicode = 2264;
},
{
glyphname = plusminus;
lastChange = "2018-01-15 19:19:26 +0000";
layers = (
{
layerId = "293088C9-8C6F-4F1A-8530-3146F0106214";
paths = (
{
closed = 1;
nodes = (
"60 0 LINE",
"534 0 LINE",
"534 85 LINE",
"60 85 LINE"
);
},
{
closed = 1;
nodes = (
"251 300 LINE",
"249 149 LINE",
"345 149 LINE",
"343 300 LINE",
"534 298 LINE",
"534 391 LINE",
"343 389 LINE",
"345 540 LINE",
"249 540 LINE",
"251 389 LINE",
"60 391 LINE",
"60 298 LINE"
);
}
);
width = 594;
}
);
leftMetricsKey = minus;
rightMetricsKey = minus;
unicode = 00B1;
},
{
glyphname = approxequal;
lastChange = "2018-01-15 19:19:26 +0000";
layers = (
{
layerId = "293088C9-8C6F-4F1A-8530-3146F0106214";
paths = (
{
closed = 1;
nodes = (
"147 364 OFFCURVE",
"176 386 OFFCURVE",
"209 386 CURVE SMOOTH",
"261 386 OFFCURVE",
"316 332 OFFCURVE",
"395 332 CURVE SMOOTH",
"457 332 OFFCURVE",
"504 367 OFFCURVE",
"534 429 CURVE",
"457 475 LINE",
"447 445 OFFCURVE",
"418 426 OFFCURVE",
"385 426 CURVE SMOOTH",
"333 426 OFFCURVE",
"278 480 OFFCURVE",
"199 480 CURVE SMOOTH",
"137 480 OFFCURVE",
"90 443 OFFCURVE",
"60 380 CURVE",
"137 334 LINE"
);
},
{
closed = 1;
nodes = (
"147 174 OFFCURVE",
"176 196 OFFCURVE",
"209 196 CURVE SMOOTH",
"261 196 OFFCURVE",
"316 142 OFFCURVE",
"395 142 CURVE SMOOTH",
"457 142 OFFCURVE",
"504 177 OFFCURVE",
"534 239 CURVE",
"457 285 LINE",
"447 255 OFFCURVE",
"418 236 OFFCURVE",
"385 236 CURVE SMOOTH",
"333 236 OFFCURVE",
"278 290 OFFCURVE",
"199 290 CURVE SMOOTH",
"137 290 OFFCURVE",
"90 253 OFFCURVE",
"60 190 CURVE",
"137 144 LINE"
);
}
);
width = 594;
}
);
leftMetricsKey = minus;
rightMetricsKey = minus;
unicode = 2248;
},
{
glyphname = asciitilde;
lastChange = "2018-01-15 19:19:26 +0000";
layers = (
{
layerId = "293088C9-8C6F-4F1A-8530-3146F0106214";
paths = (
{
closed = 1;
nodes = (
"147 294 OFFCURVE",
"176 316 OFFCURVE",
"209 316 CURVE SMOOTH",
"261 316 OFFCURVE",
"316 262 OFFCURVE",
"395 262 CURVE SMOOTH",
"457 262 OFFCURVE",
"504 297 OFFCURVE",
"534 359 CURVE",
"457 405 LINE",
"447 375 OFFCURVE",
"418 356 OFFCURVE",
"385 356 CURVE SMOOTH",
"333 356 OFFCURVE",
"278 410 OFFCURVE",
"199 410 CURVE SMOOTH",
"137 410 OFFCURVE",
"90 373 OFFCURVE",
"60 310 CURVE",
"137 264 LINE"
);
}
);
width = 594;
}
);
leftMetricsKey = minus;
rightMetricsKey = minus;
unicode = 007E;
},
{
glyphname = logicalnot;
lastChange = "2018-01-20 10:53:17 +0000";
layers = (
{
layerId = "293088C9-8C6F-4F1A-8530-3146F0106214";
paths = (
{
closed = 1;
nodes = (
"434 268 LINE",
"434 112 LINE",
"534 112 LINE",
"534 365 LINE",
"60 365 LINE",
"60 268 LINE"
);
}
);
width = 594;
}
);
leftMetricsKey = minus;
rightMetricsKey = minus;
unicode = 00AC;
},
{
glyphname = infinity;
lastChange = "2018-01-20 10:54:15 +0000";
layers = (
{
layerId = "293088C9-8C6F-4F1A-8530-3146F0106214";
paths = (
{
closed = 1;
nodes = (
"357 143 OFFCURVE",
"303.703 92 OFFCURVE",
"225 92 CURVE SMOOTH",
"120 92 OFFCURVE",
"50 160 OFFCURVE",
"50 268 CURVE SMOOTH",
"50 376 OFFCURVE",
"120 444 OFFCURVE",
"225 444 CURVE SMOOTH",
"303.236 444 OFFCURVE",
"356 392 OFFCURVE",
"402 334 CURVE",
"404 334 LINE",
"450 392 OFFCURVE",
"502.764 444 OFFCURVE",
"581 444 CURVE SMOOTH",
"686 444 OFFCURVE",
"756 376 OFFCURVE",
"756 268 CURVE SMOOTH",
"756 160 OFFCURVE",
"686 92 OFFCURVE",
"581 92 CURVE SMOOTH",
"503.181 92 OFFCURVE",
"451 143 OFFCURVE",
"405 200 CURVE",
"403 200 LINE"
);
},
{
closed = 1;
nodes = (
"136 215 OFFCURVE",
"177 177 OFFCURVE",
"230 177 CURVE SMOOTH",
"278 177 OFFCURVE",
"315 220 OFFCURVE",
"352 268 CURVE",
"315 315 OFFCURVE",
"278 358 OFFCURVE",
"230 358 CURVE SMOOTH",
"177 358 OFFCURVE",
"136 321 OFFCURVE",
"136 268 CURVE SMOOTH"
);
},
{
closed = 1;
nodes = (
"492 219 OFFCURVE",
"529 177 OFFCURVE",
"576 177 CURVE SMOOTH",
"629 177 OFFCURVE",
"670 215 OFFCURVE",
"670 268 CURVE SMOOTH",
"670 321 OFFCURVE",
"629 358 OFFCURVE",
"576 358 CURVE SMOOTH",
"529 358 OFFCURVE",
"492 315 OFFCURVE",
"455 267 CURVE"
);
}
);
width = 806;
}
);
leftKerningGroup = o;
leftMetricsKey = o;
rightKerningGroup = o;
rightMetricsKey = o;
unicode = 221E;
},
{
glyphname = integral;
lastChange = "2018-01-15 19:20:53 +0000";
layers = (
{
layerId = "293088C9-8C6F-4F1A-8530-3146F0106214";
paths = (
{
closed = 1;
nodes = (
"-19 -206 OFFCURVE",
"14 -212 OFFCURVE",
"54 -212 CURVE SMOOTH",
"161 -212 OFFCURVE",
"221 -147 OFFCURVE",
"221 -31 CURVE SMOOTH",
"221 576 LINE SMOOTH",
"221 636 OFFCURVE",
"247 670 OFFCURVE",
"295 670 CURVE SMOOTH",
"304 670 OFFCURVE",
"321 668 OFFCURVE",
"342 665 CURVE",
"380 745 LINE",
"363 756 OFFCURVE",
"330 762 OFFCURVE",
"286 762 CURVE SMOOTH",
"179 762 OFFCURVE",
"119 697 OFFCURVE",
"119 581 CURVE SMOOTH",
"119 -26 LINE SMOOTH",
"119 -86 OFFCURVE",
"93 -120 OFFCURVE",
"45 -120 CURVE SMOOTH",
"29 -120 OFFCURVE",
"12 -118 OFFCURVE",
"-2 -115 CURVE",
"-40 -195 LINE"
);
}
);
width = 340;
}
);
unicode = 222B;
},
{
glyphname = product;
lastChange = "2018-01-20 10:54:24 +0000";
layers = (
{
layerId = "293088C9-8C6F-4F1A-8530-3146F0106214";
paths = (
{
closed = 1;
nodes = (
"140 660 LINE",
"140 -200 LINE",
"242 -200 LINE",
"242 660 LINE",
"460 660 LINE",
"460 -200 LINE",
"562 -200 LINE",
"562 660 LINE",
"672 660 LINE",
"672 750 LINE",
"30 750 LINE",
"30 660 LINE"
);
}
);
width = 702;
}
);
unicode = 220F;
},
{
glyphname = summation;
lastChange = "2018-01-20 10:55:00 +0000";
layers = (
{
layerId = "293088C9-8C6F-4F1A-8530-3146F0106214";
paths = (
{
closed = 1;
nodes = (
"522 -200 LINE",
"522 -110 LINE",
"161 -110 LINE",
"160 -108 LINE",
"399 254 LINE",
"399 296 LINE",
"160 658 LINE",
"161 660 LINE",
"522 660 LINE",
"522 750 LINE",
"47 750 LINE",
"47 660 LINE",
"304 275 LINE",
"47 -110 LINE",
"47 -200 LINE"
);
}
);
width = 567;
}
);
unicode = 2211;
},
{
glyphname = radical;
lastChange = "2018-01-20 10:55:54 +0000";
layers = (
{
layerId = "293088C9-8C6F-4F1A-8530-3146F0106214";
paths = (
{
closed = 1;
nodes = (
"152 259 LINE",
"308 -200 LINE",
"440 -200 LINE",
"678 810 LINE",
"569 810 LINE",
"411 75 LINE",
"391 -20 OFFCURVE",
"376 -123 OFFCURVE",
"376 -123 CURVE",
"374 -123 LINE",
"374 -123 OFFCURVE",
"350 -20 OFFCURVE",
"320 73 CURVE",
"229 350 LINE",
"20 350 LINE",
"20 259 LINE"
);
}
);
width = 708;
}
);
rightKerningGroup = radical;
unicode = 221A;
},
{
glyphname = partialdiff;
lastChange = "2018-01-20 10:56:24 +0000";
layers = (
{
layerId = "293088C9-8C6F-4F1A-8530-3146F0106214";
paths = (
{
closed = 1;
nodes = (
"421 407 OFFCURVE",
"362.536 434 OFFCURVE",
"277 434 CURVE SMOOTH",
"144 434 OFFCURVE",
"60 348 OFFCURVE",
"60 211 CURVE SMOOTH",
"60 74 OFFCURVE",
"151 -12 OFFCURVE",
"297 -12 CURVE SMOOTH",
"467 -12 OFFCURVE",
"555 101 OFFCURVE",
"555 337 CURVE SMOOTH",
"555 592 OFFCURVE",
"485 712 OFFCURVE",
"298 712 CURVE SMOOTH",
"210 712 OFFCURVE",
"140 678 OFFCURVE",
"102 657 CURVE",
"150 574 LINE",
"188 595 OFFCURVE",
"254 619 OFFCURVE",
"298 619 CURVE SMOOTH",
"410.541 619 OFFCURVE",
"451 550 OFFCURVE",
"459 384 CURVE",
"457 383 LINE"
);
},
{
closed = 1;
nodes = (
"155 291 OFFCURVE",
"210 342 OFFCURVE",
"297 342 CURVE SMOOTH",
"360.198 342 OFFCURVE",
"419 319 OFFCURVE",
"458 293 CURVE",
"451 153 OFFCURVE",
"395.207 76 OFFCURVE",
"297 76 CURVE SMOOTH",
"210 76 OFFCURVE",
"155 131 OFFCURVE",
"155 211 CURVE SMOOTH"
);
}
);
width = 615;
}
);
unicode = 2202;
},
{
glyphname = percent;
lastChange = "2018-01-15 19:20:25 +0000";
layers = (
{
layerId = "293088C9-8C6F-4F1A-8530-3146F0106214";
paths = (
{
closed = 1;
nodes = (
"60 452 OFFCURVE",
"123 387 OFFCURVE",
"219 387 CURVE",
"314 387 OFFCURVE",
"377 452 OFFCURVE",
"377 550 CURVE",
"377 647 OFFCURVE",
"314 712 OFFCURVE",
"219 712 CURVE",
"123 712 OFFCURVE",
"60 647 OFFCURVE",
"60 550 CURVE"
);
},
{
closed = 1;
nodes = (
"194 34 LINE",
"681 632 LINE",
"613 670 LINE",
"125 72 LINE"
);
},
{
closed = 1;
nodes = (
"139 602 OFFCURVE",
"171 636 OFFCURVE",
"219 636 CURVE",
"267 636 OFFCURVE",
"298 602 OFFCURVE",
"298 550 CURVE",
"298 497 OFFCURVE",
"267 462 OFFCURVE",
"219 462 CURVE",
"171 462 OFFCURVE",
"139 497 OFFCURVE",
"139 550 CURVE"
);
},
{
closed = 1;
nodes = (
"430 53 OFFCURVE",
"493 -12 OFFCURVE",
"589 -12 CURVE",
"684 -12 OFFCURVE",
"747 53 OFFCURVE",
"747 151 CURVE",
"747 248 OFFCURVE",
"684 313 OFFCURVE",
"589 313 CURVE",
"493 313 OFFCURVE",
"430 248 OFFCURVE",
"430 151 CURVE"
);
},
{
closed = 1;
nodes = (
"509 203 OFFCURVE",
"541 237 OFFCURVE",
"589 237 CURVE",
"637 237 OFFCURVE",
"668 203 OFFCURVE",
"668 151 CURVE",
"668 98 OFFCURVE",
"637 63 OFFCURVE",
"589 63 CURVE",
"541 63 OFFCURVE",
"509 98 OFFCURVE",
"509 151 CURVE"
);
}
);
width = 807;
}
);
unicode = 0025;
},
{
glyphname = perthousand;
lastChange = "2018-01-15 19:20:30 +0000";
layers = (
{
layerId = "293088C9-8C6F-4F1A-8530-3146F0106214";
paths = (
{
closed = 1;
nodes = (
"60 452 OFFCURVE",
"123 387 OFFCURVE",
"219 387 CURVE",
"314 387 OFFCURVE",
"377 452 OFFCURVE",
"377 550 CURVE",
"377 647 OFFCURVE",
"314 712 OFFCURVE",
"219 712 CURVE",
"123 712 OFFCURVE",
"60 647 OFFCURVE",
"60 550 CURVE"
);
},
{
closed = 1;
nodes = (
"194 34 LINE",
"681 632 LINE",
"613 670 LINE",
"125 72 LINE"
);
},
{
closed = 1;
nodes = (
"139 602 OFFCURVE",
"171 636 OFFCURVE",
"219 636 CURVE",
"267 636 OFFCURVE",
"298 602 OFFCURVE",
"298 550 CURVE",
"298 497 OFFCURVE",
"267 462 OFFCURVE",
"219 462 CURVE",
"171 462 OFFCURVE",
"139 497 OFFCURVE",
"139 550 CURVE"
);
},
{
closed = 1;
nodes = (
"430 53 OFFCURVE",
"493 -12 OFFCURVE",
"589 -12 CURVE",
"684 -12 OFFCURVE",
"747 53 OFFCURVE",
"747 151 CURVE",
"747 248 OFFCURVE",
"684 313 OFFCURVE",
"589 313 CURVE",
"493 313 OFFCURVE",
"430 248 OFFCURVE",
"430 151 CURVE"
);
},
{
closed = 1;
nodes = (
"509 203 OFFCURVE",
"541 237 OFFCURVE",
"589 237 CURVE",
"637 237 OFFCURVE",
"668 203 OFFCURVE",
"668 151 CURVE",
"668 98 OFFCURVE",
"637 63 OFFCURVE",
"589 63 CURVE",
"541 63 OFFCURVE",
"509 98 OFFCURVE",
"509 151 CURVE"
);
},
{
closed = 1;
nodes = (
"790 53 OFFCURVE",
"853 -12 OFFCURVE",
"949 -12 CURVE",
"1044 -12 OFFCURVE",
"1107 53 OFFCURVE",
"1107 151 CURVE",
"1107 248 OFFCURVE",
"1044 313 OFFCURVE",
"949 313 CURVE",
"853 313 OFFCURVE",
"790 248 OFFCURVE",
"790 151 CURVE"
);
},
{
closed = 1;
nodes = (
"869 203 OFFCURVE",
"901 237 OFFCURVE",
"949 237 CURVE",
"997 237 OFFCURVE",
"1028 203 OFFCURVE",
"1028 151 CURVE",
"1028 98 OFFCURVE",
"997 63 OFFCURVE",
"949 63 CURVE",
"901 63 OFFCURVE",
"869 98 OFFCURVE",
"869 151 CURVE"
);
}
);
width = 1167;
}
);
unicode = 2030;
},
{
glyphname = upArrow;
lastChange = "2017-12-31 15:09:25 +0000";
layers = (
{
layerId = "293088C9-8C6F-4F1A-8530-3146F0106214";
paths = (
{
closed = 1;
nodes = (
"270 19 LINE",
"269 501 LINE",
"100 330 LINE",
"50 415 LINE",
"319 682 LINE",
"587 415 LINE",
"537 330 LINE",
"369 501 LINE",
"369 19 LINE"
);
}
);
width = 637;
}
);
unicode = 2191;
},
{
glyphname = northEastArrow;
lastChange = "2017-12-31 15:10:59 +0000";
layers = (
{
layerId = "293088C9-8C6F-4F1A-8530-3146F0106214";
paths = (
{
closed = 1;
nodes = (
"50 146 LINE",
"390 487 LINE",
"150 486 LINE",
"174 581 LINE",
"553 580 LINE",
"554 202 LINE",
"459 177 LINE",
"461 417 LINE",
"120 76 LINE"
);
}
);
width = 629;
}
);
unicode = 2197;
},
{
glyphname = rightArrow;
lastChange = "2017-12-31 15:11:54 +0000";
layers = (
{
layerId = "293088C9-8C6F-4F1A-8530-3146F0106214";
paths = (
{
closed = 1;
nodes = (
"50 399 LINE",
"532 400 LINE",
"361 569 LINE",
"446 619 LINE",
"713 350 LINE",
"446 82 LINE",
"361 132 LINE",
"532 300 LINE",
"50 300 LINE"
);
}
);
width = 763;
}
);
unicode = 2192;
},
{
glyphname = southEastArrow;
lastChange = "2017-12-31 15:11:21 +0000";
layers = (
{
layerId = "293088C9-8C6F-4F1A-8530-3146F0106214";
paths = (
{
closed = 1;
nodes = (
"461 267 LINE",
"459 507 LINE",
"554 482 LINE",
"553 104 LINE",
"174 103 LINE",
"150 198 LINE",
"390 197 LINE",
"50 538 LINE",
"120 608 LINE"
);
}
);
width = 629;
}
);
unicode = 2198;
},
{
glyphname = downArrow;
lastChange = "2017-12-31 15:09:51 +0000";
layers = (
{
layerId = "293088C9-8C6F-4F1A-8530-3146F0106214";
paths = (
{
closed = 1;
nodes = (
"369 200 LINE",
"537 371 LINE",
"587 286 LINE",
"319 19 LINE",
"50 286 LINE",
"100 371 LINE",
"269 200 LINE",
"270 682 LINE",
"369 682 LINE"
);
}
);
width = 637;
}
);
unicode = 2193;
},
{
glyphname = southWestArrow;
lastChange = "2017-12-31 15:11:38 +0000";
layers = (
{
layerId = "293088C9-8C6F-4F1A-8530-3146F0106214";
paths = (
{
closed = 1;
nodes = (
"579 538 LINE",
"239 197 LINE",
"479 198 LINE",
"455 103 LINE",
"76 104 LINE",
"75 482 LINE",
"170 507 LINE",
"168 267 LINE",
"509 608 LINE"
);
}
);
width = 629;
}
);
unicode = 2199;
},
{
glyphname = leftArrow;
lastChange = "2017-12-31 15:10:14 +0000";
layers = (
{
layerId = "293088C9-8C6F-4F1A-8530-3146F0106214";
paths = (
{
closed = 1;
nodes = (
"231 300 LINE",
"402 132 LINE",
"317 82 LINE",
"50 350 LINE",
"317 619 LINE",
"402 569 LINE",
"231 400 LINE",
"713 399 LINE",
"713 300 LINE"
);
}
);
width = 763;
}
);
unicode = 2190;
},
{
glyphname = northWestArrow;
lastChange = "2017-12-31 15:10:40 +0000";
layers = (
{
layerId = "293088C9-8C6F-4F1A-8530-3146F0106214";
paths = (
{
closed = 1;
nodes = (
"168 417 LINE",
"170 177 LINE",
"75 202 LINE",
"76 580 LINE",
"455 581 LINE",
"479 486 LINE",
"239 487 LINE",
"579 146 LINE",
"509 76 LINE"
);
}
);
width = 629;
}
);
unicode = 2196;
},
{
glyphname = upArrow.alt;
lastChange = "2017-12-31 15:15:19 +0000";
layers = (
{
layerId = "293088C9-8C6F-4F1A-8530-3146F0106214";
paths = (
{
closed = 1;
nodes = (
"373 91 LINE",
"372 471 LINE",
"240 336 LINE",
"200 403 LINE",
"412 613 LINE",
"623 403 LINE",
"583 336 LINE",
"452 471 LINE",
"452 91 LINE"
);
},
{
closed = 1;
nodes = (
"612 -12 OFFCURVE",
"774 150 OFFCURVE",
"774 350 CURVE SMOOTH",
"774 550 OFFCURVE",
"612 712 OFFCURVE",
"412 712 CURVE SMOOTH",
"212 712 OFFCURVE",
"50 550 OFFCURVE",
"50 350 CURVE SMOOTH",
"50 150 OFFCURVE",
"212 -12 OFFCURVE",
"412 -12 CURVE SMOOTH"
);
}
);
width = 824;
}
);
},
{
glyphname = northEastArrow.alt;
lastChange = "2017-12-31 15:17:54 +0000";
layers = (
{
layerId = "293088C9-8C6F-4F1A-8530-3146F0106214";
paths = (
{
closed = 1;
nodes = (
"469 464 LINE",
"281 461 LINE",
"300 537 LINE",
"598 536 LINE",
"600 238 LINE",
"524 219 LINE",
"526 407 LINE",
"257 139 LINE",
"201 195 LINE"
);
},
{
closed = 1;
nodes = (
"50 150 OFFCURVE",
"212 -12 OFFCURVE",
"412 -12 CURVE SMOOTH",
"612 -12 OFFCURVE",
"774 150 OFFCURVE",
"774 350 CURVE SMOOTH",
"774 550 OFFCURVE",
"612 712 OFFCURVE",
"412 712 CURVE SMOOTH",
"212 712 OFFCURVE",
"50 550 OFFCURVE",
"50 350 CURVE SMOOTH"
);
}
);
width = 824;
}
);
},
{
glyphname = rightArrow.alt;
lastChange = "2017-12-31 15:16:28 +0000";
layers = (
{
layerId = "293088C9-8C6F-4F1A-8530-3146F0106214";
paths = (
{
closed = 1;
nodes = (
"533 390 LINE",
"398 521 LINE",
"465 561 LINE",
"675 350 LINE",
"465 138 LINE",
"398 178 LINE",
"533 310 LINE",
"153 311 LINE",
"153 390 LINE"
);
},
{
closed = 1;
nodes = (
"50 150 OFFCURVE",
"212 -12 OFFCURVE",
"412 -12 CURVE SMOOTH",
"612 -12 OFFCURVE",
"774 150 OFFCURVE",
"774 350 CURVE SMOOTH",
"774 550 OFFCURVE",
"612 712 OFFCURVE",
"412 712 CURVE SMOOTH",
"212 712 OFFCURVE",
"50 550 OFFCURVE",
"50 350 CURVE SMOOTH"
);
}
);
width = 824;
}
);
},
{
glyphname = southEastArrow.alt;
lastChange = "2017-12-31 15:18:34 +0000";
layers = (
{
layerId = "293088C9-8C6F-4F1A-8530-3146F0106214";
paths = (
{
closed = 1;
nodes = (
"526 294 LINE",
"523 482 LINE",
"599 463 LINE",
"598 165 LINE",
"300 163 LINE",
"281 239 LINE",
"469 237 LINE",
"201 506 LINE",
"257 562 LINE"
);
},
{
closed = 1;
nodes = (
"50 150 OFFCURVE",
"212 -12 OFFCURVE",
"412 -12 CURVE SMOOTH",
"612 -12 OFFCURVE",
"774 150 OFFCURVE",
"774 350 CURVE SMOOTH",
"774 550 OFFCURVE",
"612 712 OFFCURVE",
"412 712 CURVE SMOOTH",
"212 712 OFFCURVE",
"50 550 OFFCURVE",
"50 350 CURVE SMOOTH"
);
}
);
width = 824;
}
);
},
{
glyphname = downArrow.alt;
lastChange = "2017-12-31 15:15:39 +0000";
layers = (
{
layerId = "293088C9-8C6F-4F1A-8530-3146F0106214";
paths = (
{
closed = 1;
nodes = (
"452 229 LINE",
"583 364 LINE",
"623 297 LINE",
"412 87 LINE",
"200 297 LINE",
"240 364 LINE",
"372 229 LINE",
"373 609 LINE",
"452 609 LINE"
);
},
{
closed = 1;
nodes = (
"212 712 OFFCURVE",
"50 550 OFFCURVE",
"50 350 CURVE SMOOTH",
"50 150 OFFCURVE",
"212 -12 OFFCURVE",
"412 -12 CURVE SMOOTH",
"612 -12 OFFCURVE",
"774 150 OFFCURVE",
"774 350 CURVE SMOOTH",
"774 550 OFFCURVE",
"612 712 OFFCURVE",
"412 712 CURVE SMOOTH"
);
}
);
width = 824;
}
);
},
{
glyphname = southWestArrow.alt;
lastChange = "2017-12-31 15:19:14 +0000";
layers = (
{
layerId = "293088C9-8C6F-4F1A-8530-3146F0106214";
paths = (
{
closed = 1;
nodes = (
"623 506 LINE",
"355 237 LINE",
"543 239 LINE",
"524 163 LINE",
"226 165 LINE",
"225 463 LINE",
"301 482 LINE",
"298 294 LINE",
"567 562 LINE"
);
},
{
closed = 1;
nodes = (
"774 550 OFFCURVE",
"612 712 OFFCURVE",
"412 712 CURVE SMOOTH",
"212 712 OFFCURVE",
"50 550 OFFCURVE",
"50 350 CURVE SMOOTH",
"50 150 OFFCURVE",
"212 -12 OFFCURVE",
"412 -12 CURVE SMOOTH",
"612 -12 OFFCURVE",
"774 150 OFFCURVE",
"774 350 CURVE SMOOTH"
);
}
);
width = 824;
}
);
},
{
glyphname = leftArrow.alt;
lastChange = "2017-12-31 15:18:58 +0000";
layers = (
{
layerId = "293088C9-8C6F-4F1A-8530-3146F0106214";
paths = (
{
closed = 1;
nodes = (
"671 311 LINE",
"291 310 LINE",
"426 178 LINE",
"359 138 LINE",
"149 350 LINE",
"359 561 LINE",
"426 521 LINE",
"291 390 LINE",
"671 390 LINE"
);
},
{
closed = 1;
nodes = (
"774 550 OFFCURVE",
"612 712 OFFCURVE",
"412 712 CURVE SMOOTH",
"212 712 OFFCURVE",
"50 550 OFFCURVE",
"50 350 CURVE SMOOTH",
"50 150 OFFCURVE",
"212 -12 OFFCURVE",
"412 -12 CURVE SMOOTH",
"612 -12 OFFCURVE",
"774 150 OFFCURVE",
"774 350 CURVE SMOOTH"
);
}
);
width = 824;
}
);
},
{
glyphname = northWestArrow.alt;
lastChange = "2017-12-31 15:19:30 +0000";
layers = (
{
layerId = "293088C9-8C6F-4F1A-8530-3146F0106214";
paths = (
{
closed = 1;
nodes = (
"567 139 LINE",
"298 407 LINE",
"300 219 LINE",
"224 238 LINE",
"226 536 LINE",
"524 537 LINE",
"543 461 LINE",
"355 464 LINE",
"623 195 LINE"
);
},
{
closed = 1;
nodes = (
"774 550 OFFCURVE",
"612 712 OFFCURVE",
"412 712 CURVE SMOOTH",
"212 712 OFFCURVE",
"50 550 OFFCURVE",
"50 350 CURVE SMOOTH",
"50 150 OFFCURVE",
"212 -12 OFFCURVE",
"412 -12 CURVE SMOOTH",
"612 -12 OFFCURVE",
"774 150 OFFCURVE",
"774 350 CURVE SMOOTH"
);
}
);
width = 824;
}
);
},
{
glyphname = lozenge;
lastChange = "2018-01-20 10:56:55 +0000";
layers = (
{
layerId = "293088C9-8C6F-4F1A-8530-3146F0106214";
paths = (
{
closed = 1;
nodes = (
"254 0 LINE",
"372 0 LINE",
"576 350 LINE",
"372 700 LINE",
"254 700 LINE",
"50 350 LINE"
);
},
{
closed = 1;
nodes = (
"312 612 LINE",
"314 612 LINE",
"473 350 LINE",
"314 88 LINE",
"312 88 LINE",
"153 350 LINE"
);
}
);
width = 626;
}
);
unicode = 25CA;
},
{
glyphname = at;
lastChange = "2018-01-20 10:57:29 +0000";
layers = (
{
layerId = "293088C9-8C6F-4F1A-8530-3146F0106214";
paths = (
{
closed = 1;
nodes = (
"532 163 OFFCURVE",
"562 132 OFFCURVE",
"628 132 CURVE SMOOTH",
"750 132 OFFCURVE",
"832 224 OFFCURVE",
"832 400 CURVE SMOOTH",
"832 593 OFFCURVE",
"696 722 OFFCURVE",
"492 722 CURVE SMOOTH",
"233 722 OFFCURVE",
"70 552 OFFCURVE",
"70 280 CURVE SMOOTH",
"70 58 OFFCURVE",
"217 -82 OFFCURVE",
"452 -82 CURVE SMOOTH",
"536 -82 OFFCURVE",
"624 -63 OFFCURVE",
"678 -33 CURVE",
"635 42 LINE",
"591 18 OFFCURVE",
"518 3 OFFCURVE",
"452 3 CURVE SMOOTH",
"274 3 OFFCURVE",
"162 114 OFFCURVE",
"162 280 CURVE SMOOTH",
"162 495 OFFCURVE",
"289 637 OFFCURVE",
"492 637 CURVE SMOOTH",
"641 637 OFFCURVE",
"740 538 OFFCURVE",
"740 400 CURVE SMOOTH",
"740 271 OFFCURVE",
"690 212 OFFCURVE",
"644 212 CURVE SMOOTH",
"601 212 OFFCURVE",
"585 239 OFFCURVE",
"589 284 CURVE SMOOTH",
"595 353 OFFCURVE",
"604 422 OFFCURVE",
"611 492 CURVE",
"577 506 OFFCURVE",
"540 516 OFFCURVE",
"499 516 CURVE SMOOTH",
"368 516 OFFCURVE",
"280 424 OFFCURVE",
"280 287 CURVE SMOOTH",
"280 194 OFFCURVE",
"331 132 OFFCURVE",
"408 132 CURVE SMOOTH",
"454 132 OFFCURVE",
"492 153 OFFCURVE",
"519 191 CURVE",
"521 191 LINE"
);
},
{
closed = 1;
nodes = (
"363 380 OFFCURVE",
"415 444 OFFCURVE",
"494 444 CURVE SMOOTH",
"506 444 OFFCURVE",
"517 443 OFFCURVE",
"525 441 CURVE",
"505 261 LINE",
"480 230 OFFCURVE",
"451 212 OFFCURVE",
"416 212 CURVE SMOOTH",
"379 212 OFFCURVE",
"363 245 OFFCURVE",
"363 289 CURVE SMOOTH"
);
}
);
width = 902;
}
);
leftKerningGroup = at;
rightKerningGroup = at;
unicode = 0040;
},
{
glyphname = ampersand;
lastChange = "2018-01-20 10:58:11 +0000";
layers = (
{
layerId = "293088C9-8C6F-4F1A-8530-3146F0106214";
paths = (
{
closed = 1;
nodes = (
"65 243 OFFCURVE",
"113 311 OFFCURVE",
"210 368 CURVE",
"179 421 OFFCURVE",
"157 473 OFFCURVE",
"157 520 CURVE",
"157 635 OFFCURVE",
"233 712 OFFCURVE",
"352 712 CURVE",
"455 712 OFFCURVE",
"524 649 OFFCURVE",
"524 554 CURVE",
"524 451 OFFCURVE",
"425 388 OFFCURVE",
"328 338 CURVE",
"364 293 OFFCURVE",
"412 244 OFFCURVE",
"462 204 CURVE",
"495 248 OFFCURVE",
"526 306 OFFCURVE",
"559 371 CURVE",
"637 326 LINE",
"604 261 OFFCURVE",
"567 202 OFFCURVE",
"531 153 CURVE",
"577 121 OFFCURVE",
"628 93 OFFCURVE",
"676 72 CURVE",
"630 -8 LINE",
"583 13 OFFCURVE",
"529 49 OFFCURVE",
"476 89 CURVE",
"414 28 OFFCURVE",
"343 -12 OFFCURVE",
"255 -12 CURVE",
"141 -12 OFFCURVE",
"65 56 OFFCURVE",
"65 158 CURVE"
);
},
{
closed = 1;
nodes = (
"164 116 OFFCURVE",
"203 74 OFFCURVE",
"269 74 CURVE",
"318 74 OFFCURVE",
"365 102 OFFCURVE",
"408 142 CURVE",
"353 189 OFFCURVE",
"297 245 OFFCURVE",
"255 300 CURVE",
"193 260 OFFCURVE",
"164 215 OFFCURVE",
"164 170 CURVE"
);
},
{
closed = 1;
nodes = (
"250 489 OFFCURVE",
"263 446 OFFCURVE",
"285 405 CURVE",
"359 440 OFFCURVE",
"432 482 OFFCURVE",
"431 547 CURVE",
"431 601 OFFCURVE",
"400 631 OFFCURVE",
"352 631 CURVE",
"290 631 OFFCURVE",
"250 583 OFFCURVE",
"250 525 CURVE"
);
}
);
width = 696;
}
);
leftKerningGroup = ampersand;
rightKerningGroup = ampersand;
unicode = 0026;
},
{
glyphname = paragraph;
lastChange = "2018-01-20 10:59:55 +0000";
layers = (
{
layerId = "293088C9-8C6F-4F1A-8530-3146F0106214";
paths = (
{
closed = 1;
nodes = (
"35 341 OFFCURVE",
"134 255 OFFCURVE",
"276 255 CURVE",
"276 609 LINE",
"362 609 LINE",
"365 -33 LINE",
"365 -85 OFFCURVE",
"331 -115 OFFCURVE",
"273 -115 CURVE",
"258.143 -115 OFFCURVE",
"243 -114 OFFCURVE",
"234 -112 CURVE",
"187 -192 LINE",
"207 -203 OFFCURVE",
"243.166 -209 OFFCURVE",
"282 -209 CURVE",
"395 -209 OFFCURVE",
"461 -145 OFFCURVE",
"461 -38 CURVE",
"461 700 LINE",
"276 700 LINE",
"134 700 OFFCURVE",
"35 614 OFFCURVE",
"35 477 CURVE"
);
}
);
width = 541;
}
);
unicode = 00B6;
},
{
glyphname = section;
lastChange = "2018-01-20 11:00:35 +0000";
layers = (
{
layerId = "293088C9-8C6F-4F1A-8530-3146F0106214";
paths = (
{
closed = 1;
nodes = (
"454 190 OFFCURVE",
"479 228 OFFCURVE",
"479 283 CURVE SMOOTH",
"479 471 OFFCURVE",
"170 456 OFFCURVE",
"170 555 CURVE SMOOTH",
"170 605 OFFCURVE",
"227 624 OFFCURVE",
"277 624 CURVE SMOOTH",
"323 624 OFFCURVE",
"361 615 OFFCURVE",
"396 601 CURVE",
"439 676 LINE",
"396 698 OFFCURVE",
"335 712 OFFCURVE",
"279 712 CURVE SMOOTH",
"170 712 OFFCURVE",
"74 670 OFFCURVE",
"74 566 CURVE SMOOTH",
"74 508 OFFCURVE",
"102 471 OFFCURVE",
"142 443 CURVE",
"142 441 LINE",
"101 418 OFFCURVE",
"74 381 OFFCURVE",
"74 326 CURVE SMOOTH",
"74 134 OFFCURVE",
"383 153 OFFCURVE",
"383 48 CURVE SMOOTH",
"383 -8 OFFCURVE",
"324 -21 OFFCURVE",
"260 -21 CURVE SMOOTH",
"200 -21 OFFCURVE",
"132 -5 OFFCURVE",
"96 11 CURVE",
"50 -66 LINE",
"95 -94 OFFCURVE",
"184 -112 OFFCURVE",
"258 -112 CURVE SMOOTH",
"382 -112 OFFCURVE",
"479 -66 OFFCURVE",
"479 43 CURVE SMOOTH",
"479 99 OFFCURVE",
"452 135 OFFCURVE",
"413 163 CURVE",
"413 165 LINE"
);
},
{
closed = 1;
nodes = (
"170 354 OFFCURVE",
"190 385 OFFCURVE",
"226 398 CURVE",
"304 364 OFFCURVE",
"383 340 OFFCURVE",
"383 275 CURVE SMOOTH",
"383 246 OFFCURVE",
"366 219 OFFCURVE",
"333 206 CURVE",
"253 240 OFFCURVE",
"170 262 OFFCURVE",
"170 323 CURVE SMOOTH"
);
}
);
width = 534;
}
);
unicode = 00A7;
},
{
glyphname = copyright;
lastChange = "2018-01-15 19:17:56 +0000";
layers = (
{
layerId = "293088C9-8C6F-4F1A-8530-3146F0106214";
paths = (
{
closed = 1;
nodes = (
"640 -12 OFFCURVE",
"791 138 OFFCURVE",
"791 350 CURVE SMOOTH",
"791 562 OFFCURVE",
"640 712 OFFCURVE",
"426 712 CURVE SMOOTH",
"212 712 OFFCURVE",
"60 562 OFFCURVE",
"60 350 CURVE SMOOTH",
"60 138 OFFCURVE",
"212 -12 OFFCURVE",
"426 -12 CURVE SMOOTH"
);
},
{
closed = 1;
nodes = (
"260 64 OFFCURVE",
"142 182 OFFCURVE",
"142 350 CURVE SMOOTH",
"142 517 OFFCURVE",
"260 635 OFFCURVE",
"426 635 CURVE SMOOTH",
"592 635 OFFCURVE",
"709 517 OFFCURVE",
"709 350 CURVE SMOOTH",
"709 182 OFFCURVE",
"592 64 OFFCURVE",
"426 64 CURVE SMOOTH"
);
},
{
closed = 1;
nodes = (
"240 230 OFFCURVE",
"322 152 OFFCURVE",
"444 152 CURVE SMOOTH",
"502 152 OFFCURVE",
"543 168 OFFCURVE",
"560 178 CURVE",
"533 245 LINE",
"512 234 OFFCURVE",
"479 228 OFFCURVE",
"444 228 CURVE SMOOTH",
"367 228 OFFCURVE",
"322 273 OFFCURVE",
"322 348 CURVE SMOOTH",
"322 425 OFFCURVE",
"367 470 OFFCURVE",
"444 470 CURVE SMOOTH",
"477 470 OFFCURVE",
"510 464 OFFCURVE",
"533 454 CURVE",
"560 520 LINE",
"543 529 OFFCURVE",
"502 546 OFFCURVE",
"444 546 CURVE SMOOTH",
"322 546 OFFCURVE",
"240 467 OFFCURVE",
"240 348 CURVE SMOOTH"
);
}
);
width = 851;
}
);
leftKerningGroup = O;
leftMetricsKey = O;
rightKerningGroup = O;
rightMetricsKey = O;
unicode = 00A9;
},
{
glyphname = registered;
lastChange = "2018-01-20 10:48:29 +0000";
layers = (
{
layerId = "293088C9-8C6F-4F1A-8530-3146F0106214";
paths = (
{
closed = 1;
nodes = (
"575 154 OFFCURVE",
"703 282 OFFCURVE",
"703 463 CURVE SMOOTH",
"703 644 OFFCURVE",
"575 772 OFFCURVE",
"392 772 CURVE SMOOTH",
"209 772 OFFCURVE",
"80 644 OFFCURVE",
"80 463 CURVE SMOOTH",
"80 282 OFFCURVE",
"209 154 OFFCURVE",
"392 154 CURVE SMOOTH"
);
},
{
closed = 1;
nodes = (
"250 219 OFFCURVE",
"150 320 OFFCURVE",
"150 463 CURVE SMOOTH",
"150 605 OFFCURVE",
"250 706 OFFCURVE",
"392 706 CURVE SMOOTH",
"534 706 OFFCURVE",
"633 605 OFFCURVE",
"633 463 CURVE SMOOTH",
"633 320 OFFCURVE",
"534 219 OFFCURVE",
"392 219 CURVE SMOOTH"
);
},
{
closed = 1;
nodes = (
"342 303 LINE",
"342 417 LINE",
"377 417 LINE",
"432 348 LINE SMOOTH",
"451 325 OFFCURVE",
"476 303 OFFCURVE",
"512 298 CURVE",
"534 344 LINE",
"505 355 OFFCURVE",
"487 373 OFFCURVE",
"473 389 CURVE SMOOTH",
"438 427 LINE",
"483 442 OFFCURVE",
"514 474 OFFCURVE",
"514 521 CURVE SMOOTH",
"514 592 OFFCURVE",
"470 627 OFFCURVE",
"378 627 CURVE SMOOTH",
"283 627 LINE",
"283 303 LINE"
);
},
{
closed = 1;
nodes = (
"343 570 LINE",
"381 570 LINE SMOOTH",
"425 570 OFFCURVE",
"453 559 OFFCURVE",
"453 521 CURVE SMOOTH",
"453 484 OFFCURVE",
"424 472 OFFCURVE",
"381 472 CURVE SMOOTH",
"343 472 LINE"
);
}
);
width = 783;
}
);
leftKerningGroup = O;
rightKerningGroup = O;
unicode = 00AE;
},
{
glyphname = trademark;
lastChange = "2018-01-20 11:02:06 +0000";
layers = (
{
layerId = "293088C9-8C6F-4F1A-8530-3146F0106214";
paths = (
{
closed = 1;
nodes = (
"454 363 LINE",
"454 606 LINE",
"456 607 LINE",
"563 433 LINE",
"601 433 LINE",
"707 607 LINE",
"709 606 LINE",
"709 363 LINE",
"777 363 LINE",
"777 700 LINE",
"689 700 LINE",
"583 516 LINE",
"581 516 LINE",
"474 700 LINE",
"385 700 LINE",
"385 363 LINE"
);
},
{
closed = 1;
nodes = (
"163 640 LINE",
"163 363 LINE",
"235 363 LINE",
"235 640 LINE",
"328 640 LINE",
"328 700 LINE",
"70 700 LINE",
"70 640 LINE"
);
}
);
width = 847;
}
);
leftKerningGroup = quote;
rightKerningGroup = quote;
unicode = 2122;
},
{
glyphname = degree;
lastChange = "2018-01-20 11:02:19 +0000";
layers = (
{
layerId = "293088C9-8C6F-4F1A-8530-3146F0106214";
paths = (
{
closed = 1;
nodes = (
"274 399 OFFCURVE",
"335 461 OFFCURVE",
"335 555 CURVE SMOOTH",
"335 649 OFFCURVE",
"274 712 OFFCURVE",
"183 712 CURVE SMOOTH",
"91 712 OFFCURVE",
"30 649 OFFCURVE",
"30 555 CURVE SMOOTH",
"30 461 OFFCURVE",
"91 399 OFFCURVE",
"183 399 CURVE SMOOTH"
);
},
{
closed = 1;
nodes = (
"137 472 OFFCURVE",
"106 505 OFFCURVE",
"106 555 CURVE SMOOTH",
"106 605 OFFCURVE",
"137 638 OFFCURVE",
"183 638 CURVE SMOOTH",
"229 638 OFFCURVE",
"259 605 OFFCURVE",
"259 555 CURVE SMOOTH",
"259 505 OFFCURVE",
"229 472 OFFCURVE",
"183 472 CURVE SMOOTH"
);
}
);
width = 365;
}
);
leftKerningGroup = quote;
rightKerningGroup = quote;
unicode = 00B0;
},
{
glyphname = bar;
lastChange = "2018-01-15 19:18:24 +0000";
layers = (
{
layerId = "293088C9-8C6F-4F1A-8530-3146F0106214";
paths = (
{
closed = 1;
nodes = (
"206 -200 LINE",
"206 750 LINE",
"100 750 LINE",
"100 -200 LINE"
);
}
);
width = 306;
}
);
unicode = 007C;
},
{
glyphname = brokenbar;
lastChange = "2018-01-15 19:18:28 +0000";
layers = (
{
layerId = "293088C9-8C6F-4F1A-8530-3146F0106214";
paths = (
{
closed = 1;
nodes = (
"206 -200 LINE",
"206 165 LINE",
"100 165 LINE",
"100 -200 LINE"
);
},
{
closed = 1;
nodes = (
"206 385 LINE",
"206 750 LINE",
"100 750 LINE",
"100 385 LINE"
);
}
);
width = 306;
}
);
unicode = 00A6;
},
{
glyphname = dagger;
lastChange = "2018-01-20 11:02:39 +0000";
layers = (
{
layerId = "293088C9-8C6F-4F1A-8530-3146F0106214";
paths = (
{
closed = 1;
nodes = (
"190 486 LINE",
"190 0 LINE",
"294 0 LINE",
"294 486 LINE",
"449 486 LINE",
"449 570 LINE",
"294 570 LINE",
"294 750 LINE",
"190 750 LINE",
"190 570 LINE",
"35 570 LINE",
"35 486 LINE"
);
}
);
width = 484;
}
);
unicode = 2020;
},
{
glyphname = daggerdbl;
lastChange = "2018-01-20 11:02:41 +0000";
layers = (
{
layerId = "293088C9-8C6F-4F1A-8530-3146F0106214";
paths = (
{
closed = 1;
nodes = (
"190 180 LINE",
"190 0 LINE",
"294 0 LINE",
"294 180 LINE",
"449 180 LINE",
"449 264 LINE",
"294 264 LINE",
"294 486 LINE",
"449 486 LINE",
"449 570 LINE",
"294 570 LINE",
"294 750 LINE",
"190 750 LINE",
"190 570 LINE",
"35 570 LINE",
"35 486 LINE",
"190 486 LINE",
"190 264 LINE",
"35 264 LINE",
"35 180 LINE"
);
}
);
width = 484;
}
);
unicode = 2021;
},
{
glyphname = dieresiscomb;
lastChange = "2018-01-11 15:48:41 +0000";
layers = (
{
anchors = (
{
name = _top;
position = "{237, 525}";
},
{
name = top;
position = "{237, 781}";
}
);
layerId = "293088C9-8C6F-4F1A-8530-3146F0106214";
paths = (
{
closed = 1;
nodes = (
"182 752 LINE",
"72 752 LINE",
"72 641 LINE",
"182 641 LINE"
);
},
{
closed = 1;
nodes = (
"402 752 LINE",
"292 752 LINE",
"292 641 LINE",
"402 641 LINE"
);
}
);
width = 474;
}
);
unicode = 0308;
},
{
glyphname = dotaccentcomb;
lastChange = "2018-01-11 15:55:18 +0000";
layers = (
{
anchors = (
{
name = _top;
position = "{154, 525}";
},
{
name = top;
position = "{154, 783}";
}
);
layerId = "293088C9-8C6F-4F1A-8530-3146F0106214";
paths = (
{
closed = 1;
nodes = (
"209 752 LINE",
"99 752 LINE",
"99 641 LINE",
"209 641 LINE"
);
}
);
width = 308;
}
);
unicode = 0307;
},
{
glyphname = gravecomb;
lastChange = "2018-01-11 15:51:14 +0000";
layers = (
{
anchors = (
{
name = _top;
position = "{184, 525}";
},
{
name = top;
position = "{184, 760}";
}
);
layerId = "293088C9-8C6F-4F1A-8530-3146F0106214";
paths = (
{
closed = 1;
nodes = (
"89 777 LINE",
"44 699 LINE",
"245 613 LINE",
"282 677 LINE"
);
}
);
width = 336;
}
);
unicode = 0300;
},
{
glyphname = acutecomb;
lastChange = "2018-01-11 15:51:03 +0000";
layers = (
{
anchors = (
{
name = _top;
position = "{153, 525}";
},
{
name = top;
position = "{153, 795}";
}
);
layerId = "293088C9-8C6F-4F1A-8530-3146F0106214";
paths = (
{
closed = 1;
nodes = (
"102 613 LINE",
"303 699 LINE",
"258 777 LINE",
"65 677 LINE"
);
}
);
width = 336;
}
);
unicode = 0301;
},
{
glyphname = hungarumlautcomb;
lastChange = "2018-01-11 15:54:22 +0000";
layers = (
{
anchors = (
{
name = _top;
position = "{241, 525}";
},
{
name = top;
position = "{241, 838}";
}
);
layerId = "293088C9-8C6F-4F1A-8530-3146F0106214";
paths = (
{
closed = 1;
nodes = (
"95 603 LINE",
"269 737 LINE",
"213 808 LINE",
"50 661 LINE"
);
},
{
closed = 1;
nodes = (
"323 603 LINE",
"497 737 LINE",
"441 808 LINE",
"278 661 LINE"
);
}
);
width = 553;
}
);
unicode = 030B;
},
{
glyphname = circumflexcomb;
lastChange = "2018-01-11 15:49:26 +0000";
layers = (
{
anchors = (
{
name = _top;
position = "{208, 525}";
},
{
name = top;
position = "{208, 782}";
}
);
layerId = "293088C9-8C6F-4F1A-8530-3146F0106214";
paths = (
{
closed = 1;
nodes = (
"81 606 LINE",
"208 688 LINE",
"335 606 LINE",
"370 667 LINE",
"208 777 LINE",
"46 667 LINE"
);
}
);
width = 416;
}
);
unicode = 0302;
},
{
glyphname = caroncomb;
lastChange = "2018-01-11 15:54:40 +0000";
layers = (
{
anchors = (
{
name = _top;
position = "{208, 525}";
},
{
name = top;
position = "{208, 797}";
}
);
layerId = "293088C9-8C6F-4F1A-8530-3146F0106214";
paths = (
{
closed = 1;
nodes = (
"208 596 LINE",
"370 706 LINE",
"335 767 LINE",
"208 685 LINE",
"81 767 LINE",
"46 706 LINE"
);
}
);
width = 416;
}
);
unicode = 030C;
},
{
glyphname = brevecomb;
lastChange = "2018-01-11 15:50:11 +0000";
layers = (
{
anchors = (
{
name = _top;
position = "{216, 525}";
},
{
name = top;
position = "{216, 775}";
}
);
layerId = "293088C9-8C6F-4F1A-8530-3146F0106214";
paths = (
{
closed = 1;
nodes = (
"72 691 OFFCURVE",
"121 619 OFFCURVE",
"216 619 CURVE SMOOTH",
"311 619 OFFCURVE",
"360 691 OFFCURVE",
"382 731 CURVE",
"323 765 LINE",
"293 713 OFFCURVE",
"260 690 OFFCURVE",
"216 690 CURVE SMOOTH",
"172 690 OFFCURVE",
"139 713 OFFCURVE",
"109 765 CURVE",
"50 731 LINE"
);
}
);
width = 432;
}
);
unicode = 0306;
},
{
glyphname = ringcomb;
lastChange = "2018-01-11 15:53:15 +0000";
layers = (
{
anchors = (
{
name = _top;
position = "{129, 525}";
},
{
name = top;
position = "{129, 795}";
}
);
layerId = "293088C9-8C6F-4F1A-8530-3146F0106214";
paths = (
{
closed = 1;
nodes = (
"187 598 OFFCURVE",
"225 636 OFFCURVE",
"225 692 CURVE SMOOTH",
"225 748 OFFCURVE",
"187 785 OFFCURVE",
"129 785 CURVE SMOOTH",
"71 785 OFFCURVE",
"32 748 OFFCURVE",
"32 692 CURVE SMOOTH",
"32 636 OFFCURVE",
"71 598 OFFCURVE",
"129 598 CURVE SMOOTH"
);
},
{
closed = 1;
nodes = (
"103 651 OFFCURVE",
"86 667 OFFCURVE",
"86 692 CURVE SMOOTH",
"86 716 OFFCURVE",
"103 732 OFFCURVE",
"129 732 CURVE SMOOTH",
"154 732 OFFCURVE",
"171 716 OFFCURVE",
"171 692 CURVE SMOOTH",
"171 667 OFFCURVE",
"154 651 OFFCURVE",
"129 651 CURVE SMOOTH"
);
}
);
width = 257;
}
);
unicode = 030A;
},
{
glyphname = tildecomb;
lastChange = "2018-01-11 15:52:56 +0000";
layers = (
{
anchors = (
{
name = _top;
position = "{209, 525}";
},
{
name = top;
position = "{209, 765}";
}
);
layerId = "293088C9-8C6F-4F1A-8530-3146F0106214";
paths = (
{
closed = 1;
nodes = (
"116 660 OFFCURVE",
"130 682 OFFCURVE",
"155 682 CURVE SMOOTH",
"186 682 OFFCURVE",
"218 634 OFFCURVE",
"270 634 CURVE SMOOTH",
"316 634 OFFCURVE",
"344 670 OFFCURVE",
"367 717 CURVE",
"309 751 LINE",
"301 729 OFFCURVE",
"287 707 OFFCURVE",
"262 707 CURVE SMOOTH",
"231 707 OFFCURVE",
"199 755 OFFCURVE",
"147 755 CURVE SMOOTH",
"101 755 OFFCURVE",
"73 720 OFFCURVE",
"50 672 CURVE",
"108 638 LINE"
);
}
);
width = 417;
}
);
unicode = 0303;
},
{
glyphname = macroncomb;
lastChange = "2018-01-11 15:52:01 +0000";
layers = (
{
anchors = (
{
name = _top;
position = "{212, 525}";
},
{
name = top;
position = "{212, 733}";
}
);
layerId = "293088C9-8C6F-4F1A-8530-3146F0106214";
paths = (
{
closed = 1;
nodes = (
"50 651 LINE",
"374 651 LINE",
"374 736 LINE",
"50 736 LINE"
);
}
);
width = 424;
}
);
unicode = 0304;
},
{
glyphname = commaturnedabovecomb;
lastChange = "2018-01-11 15:54:52 +0000";
layers = (
{
anchors = (
{
name = _top;
position = "{98, 525}";
},
{
name = top;
position = "{118, 775}";
}
);
layerId = "293088C9-8C6F-4F1A-8530-3146F0106214";
paths = (
{
closed = 1;
nodes = (
"136 605 LINE",
"196 772 LINE",
"92 772 LINE",
"60 605 LINE"
);
}
);
width = 236;
}
);
unicode = 0312;
},
{
glyphname = commaaccentcomb;
lastChange = "2018-01-11 16:41:07 +0000";
layers = (
{
anchors = (
{
name = _bottom;
position = "{118, 0}";
},
{
name = bottom;
position = "{118, -242}";
}
);
layerId = "293088C9-8C6F-4F1A-8530-3146F0106214";
paths = (
{
closed = 1;
nodes = (
"111 -232 LINE",
"171 -65 LINE",
"67 -65 LINE",
"35 -232 LINE"
);
}
);
width = 256;
}
);
unicode = 0326;
},
{
glyphname = cedillacomb;
lastChange = "2018-01-20 10:07:52 +0000";
layers = (
{
anchors = (
{
name = _bottom;
position = "{340, 0}";
},
{
name = bottom;
position = "{344, -215}";
}
);
layerId = "293088C9-8C6F-4F1A-8530-3146F0106214";
paths = (
{
closed = 1;
nodes = (
"307 -192 LINE",
"377 -164 OFFCURVE",
"409 -130 OFFCURVE",
"409 -79 CURVE",
"409 -41 OFFCURVE",
"384 0 OFFCURVE",
"325 12 CURVE",
"312 12 LINE",
"310 0 LINE",
"322 -15 OFFCURVE",
"330 -32 OFFCURVE",
"330 -53 CURVE SMOOTH",
"330 -89 OFFCURVE",
"314 -111 OFFCURVE",
"272 -131 CURVE"
);
}
);
width = 600;
}
);
unicode = 0327;
},
{
glyphname = ogonekcomb;
lastChange = "2018-01-20 09:45:21 +0000";
layers = (
{
anchors = (
{
name = _ogonek;
position = "{173, 0}";
}
);
layerId = "293088C9-8C6F-4F1A-8530-3146F0106214";
paths = (
{
closed = 1;
nodes = (
"160 -121 OFFCURVE",
"130 -105 OFFCURVE",
"130 -68 CURVE SMOOTH",
"130 -36 OFFCURVE",
"152 -11 OFFCURVE",
"191 0 CURVE",
"161 13 LINE",
"130 0 LINE",
"86 -13 OFFCURVE",
"59 -50 OFFCURVE",
"59 -91 CURVE",
"59 -149 OFFCURVE",
"101 -184 OFFCURVE",
"160 -184 CURVE SMOOTH",
"191 -184 OFFCURVE",
"219 -177 OFFCURVE",
"239 -166 CURVE",
"206 -108 LINE"
);
}
);
width = 340;
}
);
unicode = 0328;
},
{
glyphname = strokeshortcomb;
lastChange = "2017-12-10 11:52:56 +0000";
layers = (
{
anchors = (
{
name = _center;
position = "{221, 353}";
}
);
layerId = "293088C9-8C6F-4F1A-8530-3146F0106214";
paths = (
{
closed = 1;
nodes = (
"50 319 LINE",
"391 319 LINE",
"391 386 LINE",
"50 386 LINE"
);
}
);
width = 441;
}
);
unicode = 0335;
},
{
glyphname = slashshortcomb;
lastChange = "2017-12-10 13:08:12 +0000";
layers = (
{
anchors = (
{
name = _center;
position = "{215, 348}";
}
);
layerId = "293088C9-8C6F-4F1A-8530-3146F0106214";
paths = (
{
closed = 1;
nodes = (
"84 234 LINE",
"379 404 LINE",
"346 462 LINE",
"50 292 LINE"
);
}
);
width = 429;
}
);
unicode = 0337;
},
{
glyphname = slashlongcomb;
lastChange = "2017-12-10 13:08:38 +0000";
layers = (
{
anchors = (
{
name = _center;
position = "{242, 268}";
}
);
layerId = "293088C9-8C6F-4F1A-8530-3146F0106214";
paths = (
{
closed = 1;
nodes = (
"50 -48 LINE",
"493 550 LINE",
"434 584 LINE",
"-9 -14 LINE"
);
}
);
width = 489;
}
);
unicode = 0338;
},
{
glyphname = dieresiscomb.case;
lastChange = "2017-12-26 15:04:25 +0000";
layers = (
{
anchors = (
{
name = _top;
position = "{227, 700}";
},
{
name = top;
position = "{227, 913}";
}
);
layerId = "293088C9-8C6F-4F1A-8530-3146F0106214";
paths = (
{
closed = 1;
nodes = (
"173 883 LINE",
"61 883 LINE",
"61 770 LINE",
"173 770 LINE"
);
},
{
closed = 1;
nodes = (
"393 883 LINE",
"281 883 LINE",
"281 770 LINE",
"393 770 LINE"
);
}
);
width = 474;
}
);
},
{
glyphname = dotaccentcomb.case;
lastChange = "2017-12-26 15:04:28 +0000";
layers = (
{
anchors = (
{
name = _top;
position = "{117, 700}";
},
{
name = top;
position = "{117, 895}";
}
);
layerId = "293088C9-8C6F-4F1A-8530-3146F0106214";
paths = (
{
closed = 1;
nodes = (
"173 883 LINE",
"61 883 LINE",
"61 770 LINE",
"173 770 LINE"
);
}
);
width = 234;
}
);
},
{
glyphname = gravecomb.case;
lastChange = "2017-12-10 13:54:47 +0000";
layers = (
{
anchors = (
{
name = _top;
position = "{236, 700}";
},
{
name = top;
position = "{236, 910}";
}
);
layerId = "293088C9-8C6F-4F1A-8530-3146F0106214";
paths = (
{
closed = 1;
nodes = (
"98 932 LINE",
"53 854 LINE",
"284 756 LINE",
"321 820 LINE"
);
}
);
width = 373;
}
);
},
{
glyphname = acutecomb.case;
lastChange = "2017-12-10 13:54:23 +0000";
layers = (
{
anchors = (
{
name = _top;
position = "{137, 700}";
},
{
name = top;
position = "{137, 945}";
}
);
layerId = "293088C9-8C6F-4F1A-8530-3146F0106214";
paths = (
{
closed = 1;
nodes = (
"89 756 LINE",
"320 854 LINE",
"275 932 LINE",
"52 820 LINE"
);
}
);
width = 373;
}
);
},
{
glyphname = circumflexcomb.case;
lastChange = "2017-12-10 13:55:03 +0000";
layers = (
{
anchors = (
{
name = _top;
position = "{208, 700}";
},
{
name = top;
position = "{208, 932}";
}
);
layerId = "293088C9-8C6F-4F1A-8530-3146F0106214";
paths = (
{
closed = 1;
nodes = (
"76 761 LINE",
"208 834 LINE",
"340 761 LINE",
"376 823 LINE",
"208 919 LINE",
"40 823 LINE"
);
}
);
width = 416;
}
);
},
{
glyphname = caroncomb.case;
lastChange = "2017-12-10 13:09:43 +0000";
layers = (
{
anchors = (
{
name = _top;
position = "{208, 700}";
},
{
name = top;
position = "{208, 919}";
}
);
layerId = "293088C9-8C6F-4F1A-8530-3146F0106214";
paths = (
{
closed = 1;
nodes = (
"208 758 LINE",
"376 854 LINE",
"340 916 LINE",
"208 843 LINE",
"76 916 LINE",
"40 854 LINE"
);
}
);
width = 416;
}
);
},
{
glyphname = brevecomb.case;
lastChange = "2017-12-10 13:55:21 +0000";
layers = (
{
anchors = (
{
name = _top;
position = "{217, 700}";
},
{
name = top;
position = "{217, 915}";
}
);
layerId = "293088C9-8C6F-4F1A-8530-3146F0106214";
paths = (
{
closed = 1;
nodes = (
"72 825 OFFCURVE",
"125 767 OFFCURVE",
"217 767 CURVE SMOOTH",
"309 767 OFFCURVE",
"362 825 OFFCURVE",
"384 865 CURVE",
"325 899 LINE",
"305 865 OFFCURVE",
"263 836 OFFCURVE",
"217 836 CURVE",
"171 836 OFFCURVE",
"129 865 OFFCURVE",
"109 899 CURVE",
"50 865 LINE"
);
}
);
width = 434;
}
);
},
{
glyphname = ringcomb.case;
lastChange = "2017-12-10 11:14:56 +0000";
layers = (
{
anchors = (
{
name = _top;
position = "{129, 700}";
},
{
name = top;
position = "{129, 923}";
}
);
layerId = "293088C9-8C6F-4F1A-8530-3146F0106214";
paths = (
{
closed = 1;
nodes = (
"193 705 OFFCURVE",
"233 743 OFFCURVE",
"233 803 CURVE SMOOTH",
"233 863 OFFCURVE",
"193 900 OFFCURVE",
"129 900 CURVE SMOOTH",
"64 900 OFFCURVE",
"24 863 OFFCURVE",
"24 803 CURVE SMOOTH",
"24 743 OFFCURVE",
"64 705 OFFCURVE",
"129 705 CURVE SMOOTH"
);
},
{
closed = 1;
nodes = (
"96 758 OFFCURVE",
"77 775 OFFCURVE",
"77 803 CURVE SMOOTH",
"77 831 OFFCURVE",
"96 847 OFFCURVE",
"129 847 CURVE SMOOTH",
"161 847 OFFCURVE",
"180 831 OFFCURVE",
"180 803 CURVE SMOOTH",
"180 775 OFFCURVE",
"161 758 OFFCURVE",
"129 758 CURVE SMOOTH"
);
}
);
width = 257;
}
);
},
{
glyphname = tildecomb.case;
lastChange = "2017-12-10 13:57:32 +0000";
layers = (
{
anchors = (
{
name = _top;
position = "{203, 700}";
},
{
name = top;
position = "{203, 885}";
}
);
layerId = "293088C9-8C6F-4F1A-8530-3146F0106214";
paths = (
{
closed = 1;
nodes = (
"116 798 OFFCURVE",
"130 820 OFFCURVE",
"155 820 CURVE SMOOTH",
"186 820 OFFCURVE",
"218 772 OFFCURVE",
"270 772 CURVE SMOOTH",
"316 772 OFFCURVE",
"344 808 OFFCURVE",
"367 855 CURVE",
"309 889 LINE",
"301 867 OFFCURVE",
"287 845 OFFCURVE",
"262 845 CURVE SMOOTH",
"231 845 OFFCURVE",
"199 893 OFFCURVE",
"147 893 CURVE SMOOTH",
"101 893 OFFCURVE",
"73 858 OFFCURVE",
"50 810 CURVE",
"108 776 LINE"
);
}
);
width = 396;
}
);
},
{
glyphname = macroncomb.case;
lastChange = "2017-12-09 14:28:29 +0000";
layers = (
{
anchors = (
{
name = _top;
position = "{212, 700}";
},
{
name = top;
position = "{212, 872}";
}
);
layerId = "293088C9-8C6F-4F1A-8530-3146F0106214";
paths = (
{
closed = 1;
nodes = (
"50 792 LINE",
"374 792 LINE",
"374 872 LINE",
"50 872 LINE"
);
}
);
width = 424;
}
);
},
{
glyphname = commaturnedabovecomb.case;
lastChange = "2017-12-09 15:12:27 +0000";
layers = (
{
anchors = (
{
name = _top;
position = "{98, 700}";
},
{
name = top;
position = "{113, 905}";
}
);
layerId = "293088C9-8C6F-4F1A-8530-3146F0106214";
paths = (
{
closed = 1;
nodes = (
"134 758 LINE",
"184 905 LINE",
"84 905 LINE",
"62 758 LINE"
);
}
);
width = 236;
}
);
},
{
glyphname = commaaccentcomb.case;
lastChange = "2017-12-09 14:46:08 +0000";
layers = (
{
anchors = (
{
name = _bottom;
position = "{123, 0}";
},
{
name = bottom;
position = "{123, -222}";
}
);
layerId = "293088C9-8C6F-4F1A-8530-3146F0106214";
paths = (
{
closed = 1;
nodes = (
"124 -222 LINE",
"174 -75 LINE",
"74 -75 LINE",
"52 -222 LINE"
);
}
);
width = 256;
}
);
},
{
glyphname = cedillacomb.case;
lastChange = "2017-12-31 15:54:16 +0000";
layers = (
{
anchors = (
{
name = _bottom;
position = "{344, 0}";
},
{
name = bottom;
position = "{344, -215}";
}
);
layerId = "293088C9-8C6F-4F1A-8530-3146F0106214";
paths = (
{
closed = 1;
nodes = (
"303 -195 LINE",
"377 -164 OFFCURVE",
"409 -111 OFFCURVE",
"409 -62 CURVE",
"409 -33 OFFCURVE",
"401 -8 OFFCURVE",
"391 11 CURVE",
"316 12 LINE",
"314 0 LINE",
"323 -16 OFFCURVE",
"329 -34 OFFCURVE",
"329 -56 CURVE SMOOTH",
"329 -92 OFFCURVE",
"305 -112 OFFCURVE",
"268 -134 CURVE"
);
}
);
width = 600;
}
);
},
{
glyphname = ogonekcomb.case;
lastChange = "2018-01-20 09:41:45 +0000";
layers = (
{
anchors = (
{
name = _ogonek;
position = "{173, 0}";
}
);
layerId = "293088C9-8C6F-4F1A-8530-3146F0106214";
paths = (
{
closed = 1;
nodes = (
"169 -119 OFFCURVE",
"145 -105 OFFCURVE",
"145 -75 CURVE SMOOTH",
"145 -45 OFFCURVE",
"173 -16 OFFCURVE",
"216 0 CURVE",
"207 12 LINE",
"151 12 LINE",
"131 0 LINE",
"86 -20 OFFCURVE",
"71 -57 OFFCURVE",
"71 -90 CURVE",
"71 -149 OFFCURVE",
"113 -184 OFFCURVE",
"168 -184 CURVE SMOOTH",
"194 -184 OFFCURVE",
"215 -179 OFFCURVE",
"239 -166 CURVE",
"206 -108 LINE"
);
}
);
width = 340;
}
);
},
{
glyphname = strokeshortcomb.case;
lastChange = "2017-12-10 12:00:03 +0000";
layers = (
{
anchors = (
{
name = _center;
position = "{271, 354}";
}
);
layerId = "293088C9-8C6F-4F1A-8530-3146F0106214";
paths = (
{
closed = 1;
nodes = (
"50 319 LINE",
"491 319 LINE",
"491 389 LINE",
"50 389 LINE"
);
}
);
width = 541;
}
);
},
{
glyphname = strokelongcomb.case;
lastChange = "2017-12-26 15:24:29 +0000";
layers = (
{
anchors = (
{
name = _center;
position = "{421, 364}";
}
);
layerId = "293088C9-8C6F-4F1A-8530-3146F0106214";
paths = (
{
closed = 1;
nodes = (
"51 324 LINE",
"791 324 LINE",
"791 404 LINE",
"51 404 LINE"
);
}
);
width = 841;
}
);
},
{
glyphname = slashshortcomb.case;
lastChange = "2017-12-10 13:23:18 +0000";
layers = (
{
anchors = (
{
name = _center;
position = "{232, 357}";
}
);
layerId = "293088C9-8C6F-4F1A-8530-3146F0106214";
paths = (
{
closed = 1;
nodes = (
"84 233 LINE",
"413 421 LINE",
"378 482 LINE",
"49 294 LINE"
);
}
);
width = 463;
}
);
},
